<svg width="61" height="18" viewBox="0 0 61 18" fill="none" xmlns="http://www.w3.org/2000/svg">
<path fill-rule="evenodd" clip-rule="evenodd" d="M8.61595 0.0885887C8.65577 0.0485678 8.70427 0.0182552 8.75769 0H9.00131C9.05473 0.0182552 9.10323 0.0485678 9.14305 0.0885887L11.5039 2.44505C11.5386 2.47962 11.5662 2.52069 11.5849 2.56592C11.6037 2.61115 11.6134 2.65964 11.6134 2.70861C11.6134 2.75758 11.6037 2.80606 11.5849 2.85129C11.5662 2.89652 11.5386 2.93759 11.5039 2.97216L9.14305 5.32862C9.10848 5.36331 9.06741 5.39083 9.02218 5.40961C8.97696 5.42839 8.92847 5.43806 8.8795 5.43806C8.83053 5.43806 8.78204 5.42839 8.73681 5.40961C8.69159 5.39083 8.65051 5.36331 8.61595 5.32862L6.25062 2.97216C6.21594 2.93759 6.18842 2.89652 6.16964 2.85129C6.15086 2.80606 6.14119 2.75758 6.14119 2.70861C6.14119 2.65964 6.15086 2.61115 6.16964 2.56592C6.18842 2.52069 6.21594 2.47962 6.25062 2.44505L8.61595 0.0885887ZM39.4892 11.9595C38.0585 11.9595 37.0663 10.861 37.0663 9.26197C37.0663 7.71166 38.0585 6.63088 39.4715 6.63088C39.8004 6.63923 40.1242 6.71364 40.4238 6.84968C40.7234 6.98572 40.9925 7.18061 41.2153 7.42276C41.438 7.66492 41.6097 7.94939 41.7203 8.25926C41.8309 8.56913 41.878 8.89808 41.8589 9.22653C41.8589 10.8078 40.9199 11.9595 39.4892 11.9595ZM38.2768 5.79291C37.8384 5.99828 37.4542 6.30347 37.1549 6.68403V0.646699C37.1549 0.256907 37.115 0.203754 36.7119 0.203754H36.3841C35.9943 0.203754 35.9412 0.248049 35.9412 0.646699V12.429C35.9412 12.8188 35.9811 12.872 36.3841 12.872H36.7119C37.1017 12.872 37.1549 12.8277 37.1549 12.429V11.8886C37.4461 12.2705 37.8233 12.5782 38.2559 12.7867C38.6884 12.9953 39.1641 13.0989 39.6442 13.089C41.6507 13.089 43.1302 11.4368 43.1302 9.26197C43.1302 7.08711 41.6685 5.50137 39.6796 5.50137C39.1957 5.4877 38.7153 5.58754 38.2768 5.79291ZM25.8066 5.48365C25.1067 5.48365 24.7922 5.67412 24.15 6.44041V6.10378C24.15 5.7007 24.0968 5.66083 23.707 5.66083H23.3792C22.9762 5.66083 22.9363 5.71399 22.9363 6.10378V12.429C22.9363 12.8277 22.9894 12.872 23.3792 12.872H23.707C24.1101 12.872 24.15 12.8188 24.15 12.429V9.0715C24.0993 8.47716 24.1952 7.87947 24.429 7.33073C24.5675 7.09745 24.7729 6.9111 25.0185 6.79581C25.2641 6.68051 25.5386 6.64158 25.8066 6.68403C25.9279 6.70349 26.0467 6.73616 26.1609 6.78148C26.205 6.79899 26.2541 6.79899 26.2982 6.78148C26.3422 6.76188 26.3793 6.72946 26.4045 6.68846C26.4706 6.59469 26.5284 6.4954 26.5773 6.39169L26.6792 6.19237C26.7364 6.10085 26.7783 6.0006 26.8032 5.89559C26.8032 5.66969 26.3603 5.47923 25.811 5.47923L25.8066 5.48365ZM29.39 9.8688C29.356 10.3336 29.4334 10.7998 29.6159 11.2286C29.7739 11.4544 29.9841 11.6386 30.2285 11.7659C30.4729 11.8931 30.7444 11.9595 31.02 11.9595C31.2956 11.9595 31.5671 11.8931 31.8115 11.7659C32.0559 11.6386 32.2661 11.4544 32.4241 11.2286C32.6066 10.7998 32.684 10.3336 32.65 9.8688V6.10377C32.65 5.70069 32.7032 5.66083 33.093 5.66083H33.4252C33.8238 5.66083 33.8681 5.71398 33.8681 6.10377V10.0017C33.8681 11.0603 33.6954 11.6361 33.2081 12.1765C32.6191 12.7608 31.8231 13.0886 30.9934 13.0886C30.1638 13.0886 29.3677 12.7608 28.7787 12.1765C28.2915 11.6361 28.1187 11.0603 28.1187 10.0017V6.10377C28.1187 5.70069 28.1674 5.66083 28.5617 5.66083H28.8939C29.2925 5.66083 29.3368 5.71398 29.3368 6.10377L29.39 9.8688ZM47.8298 5.48365C47.1343 5.48365 46.8198 5.67412 46.1731 6.44041V6.10378C46.1731 5.7007 46.12 5.66083 45.7302 5.66083H45.398C44.9993 5.66083 44.955 5.71399 44.955 6.10378V12.429C44.955 12.8277 45.0082 12.872 45.398 12.872H45.7391C46.1377 12.872 46.182 12.8188 46.182 12.429V9.0715C46.1337 8.47725 46.2294 7.88011 46.4611 7.33073C46.5997 7.09865 46.8044 6.91317 47.049 6.79798C47.2936 6.68279 47.5669 6.64312 47.8342 6.68403C47.9555 6.70349 48.0743 6.73616 48.1885 6.78148C48.2326 6.79899 48.2818 6.79899 48.3259 6.78148C48.3703 6.76075 48.4085 6.72866 48.4366 6.68846C48.5012 6.5946 48.5575 6.4953 48.6049 6.39169L48.7112 6.19237C48.7657 6.09998 48.806 5.99994 48.8308 5.89559C48.8308 5.66969 48.3879 5.47923 47.8386 5.47923L47.8298 5.48365ZM51.2315 12.872C51.6213 12.872 51.6745 12.8277 51.6745 12.429V6.10376C51.6745 5.71397 51.6302 5.66082 51.2315 5.66082H50.8993C50.5095 5.66082 50.4564 5.70068 50.4564 6.10376V12.429C50.4564 12.8188 50.5007 12.872 50.8993 12.872H51.2315ZM51.791 3.42002C51.8883 3.27434 51.9403 3.10306 51.9403 2.92785C51.9403 2.6929 51.8469 2.46757 51.6808 2.30143C51.5146 2.1353 51.2893 2.04196 51.0544 2.04196C50.8792 2.04196 50.7079 2.09392 50.5622 2.19126C50.4165 2.2886 50.303 2.42696 50.2359 2.58884C50.1689 2.75071 50.1513 2.92883 50.1855 3.10068C50.2197 3.27252 50.3041 3.43037 50.4279 3.55427C50.5518 3.67816 50.7097 3.76254 50.8815 3.79672C51.0534 3.8309 51.2315 3.81336 51.3934 3.74631C51.5553 3.67925 51.6936 3.56571 51.791 3.42002ZM57.6277 5.86899C57.7319 5.76258 57.7839 5.70943 57.8471 5.68288C57.9102 5.6564 57.9844 5.6564 58.1326 5.6564H58.673C58.9875 5.6564 59.116 5.74499 59.116 5.93545C59.116 6.00632 59.0495 6.11263 58.9078 6.24994L56.4051 8.76144L59.5633 12.305C59.6829 12.4645 59.7538 12.5663 59.7538 12.6372C59.7538 12.8099 59.612 12.8985 59.3108 12.8985H58.7616C58.4471 12.8985 58.4471 12.8985 58.2566 12.6726L55.537 9.60746L55.2225 9.92195V12.4467C55.2225 12.8454 55.1693 12.8897 54.7795 12.8897H54.4473C54.0442 12.8897 54.0044 12.8365 54.0044 12.4467V0.646699C54.0044 0.248049 54.0575 0.203754 54.4473 0.203754H54.7795C55.1782 0.203754 55.2225 0.256907 55.2225 0.646699V8.31849L57.6277 5.86901L57.6277 5.86899ZM8.61592 11.862L6.25059 14.2185C6.21604 14.2527 6.18861 14.2934 6.16989 14.3383C6.15117 14.3831 6.14153 14.4312 6.14153 14.4798C6.14153 14.5285 6.15117 14.5766 6.16989 14.6214C6.18861 14.6663 6.21604 14.707 6.25059 14.7412L8.61592 17.1021C8.64803 17.1336 8.68554 17.1591 8.72665 17.1774H9.03228C9.0734 17.1591 9.1109 17.1336 9.14302 17.1021L11.5039 14.7412C11.5385 14.707 11.5659 14.6663 11.5846 14.6214C11.6033 14.5766 11.613 14.5285 11.613 14.4798C11.613 14.4312 11.6033 14.3831 11.5846 14.3383C11.5659 14.2934 11.5385 14.2527 11.5039 14.2185L9.14302 11.862C9.10861 11.8265 9.06728 11.7983 9.02158 11.7792C8.97588 11.7602 8.92676 11.7507 8.87726 11.7513C8.82845 11.751 8.78011 11.7607 8.73517 11.7797C8.69024 11.7988 8.64966 11.8268 8.61592 11.862ZM12.1417 8.3185L14.507 5.96647L14.5026 5.96204C14.5737 5.89299 14.6692 5.85479 14.7684 5.85573C14.8661 5.85548 14.9599 5.89367 15.0297 5.96204L17.3906 8.3185C17.426 8.35314 17.454 8.39449 17.4732 8.44013C17.4924 8.48576 17.5023 8.53477 17.5023 8.58427C17.5023 8.63377 17.4924 8.68277 17.4732 8.72841C17.454 8.77404 17.426 8.81539 17.3906 8.85003L15.0341 11.2021C14.9996 11.2368 14.9585 11.2643 14.9133 11.2831C14.868 11.3018 14.8196 11.3115 14.7706 11.3115C14.7216 11.3115 14.6731 11.3018 14.6279 11.2831C14.5827 11.2643 14.5416 11.2368 14.507 11.2021L12.1417 8.8456C12.0738 8.77469 12.0358 8.68027 12.0358 8.58205C12.0358 8.48384 12.0738 8.38942 12.1417 8.3185ZM5.65703 14.7899L4.60725 15.8486C4.57249 15.8773 4.54575 15.9145 4.52963 15.9566C4.51351 15.9987 4.50855 16.0442 4.51524 16.0888C4.52192 16.1334 4.54003 16.1755 4.5678 16.211C4.59556 16.2465 4.63204 16.2743 4.67369 16.2915L5.55958 16.7344C5.59692 16.7566 5.63974 16.7677 5.68312 16.7665C5.7265 16.7654 5.76867 16.752 5.80477 16.7279C5.84088 16.7039 5.86945 16.6701 5.8872 16.6305C5.90494 16.5909 5.91114 16.5471 5.90508 16.5041V14.8962C5.90508 14.7722 5.86079 14.7058 5.79434 14.7058C5.73369 14.7126 5.67808 14.7428 5.63931 14.7899H5.65703ZM11.8362 16.4731V14.8962V14.8785C11.8362 14.7545 11.8804 14.688 11.9469 14.688C12.0061 14.6955 12.0601 14.7257 12.0975 14.7722L13.1473 15.8175C13.1822 15.8459 13.2091 15.8828 13.2256 15.9247C13.242 15.9666 13.2474 16.012 13.2412 16.0565C13.2349 16.101 13.2173 16.1432 13.19 16.179C13.1627 16.2147 13.1266 16.2428 13.0853 16.2605L12.1772 16.7034C12.14 16.7243 12.0977 16.7344 12.055 16.7327C12.0124 16.7309 11.9711 16.7173 11.9357 16.6934C11.9003 16.6695 11.8723 16.6363 11.8547 16.5974C11.8371 16.5585 11.8307 16.5154 11.8362 16.4731ZM12.2082 11.5387C12.1103 11.5387 12.0163 11.5773 11.9466 11.6461C11.877 11.7149 11.8373 11.8084 11.8361 11.9063V14.0325C11.8373 14.1308 11.8768 14.2248 11.9464 14.2943C12.0159 14.3638 12.1099 14.4034 12.2082 14.4045H14.3388C14.3893 14.4069 14.4398 14.3991 14.4872 14.3815C14.5347 14.364 14.5781 14.337 14.6149 14.3023C14.6517 14.2675 14.6811 14.2257 14.7014 14.1794C14.7217 14.133 14.7324 14.0831 14.733 14.0325V11.9063C14.7318 11.8084 14.6921 11.7149 14.6224 11.6461C14.5528 11.5773 14.4588 11.5387 14.3609 11.5387H12.2082ZM16.1334 4.34461L16.146 4.332L16.1328 4.34528L16.1334 4.34461ZM16.3321 4.25227C16.2563 4.25566 16.1849 4.28885 16.1334 4.34461L15.0918 5.38177C14.9501 5.52352 14.9988 5.64311 15.2026 5.64311H16.7839C16.8264 5.64748 16.8693 5.64016 16.9079 5.62196C16.9466 5.60375 16.9795 5.57535 17.0032 5.5398C17.0269 5.50426 17.0405 5.46292 17.0424 5.42024C17.0443 5.37756 17.0346 5.33516 17.0142 5.29762L16.5713 4.41173C16.55 4.36564 16.5164 4.32635 16.4742 4.2982C16.432 4.27005 16.3828 4.25415 16.3321 4.25227ZM11.8361 0.699854V2.27674C11.8361 2.48049 11.9513 2.52921 12.0975 2.38747L13.1472 1.33769C13.1821 1.30931 13.2091 1.2724 13.2255 1.23054C13.242 1.18868 13.2474 1.14328 13.2411 1.09874C13.2349 1.05419 13.2173 1.01201 13.1899 0.976278C13.1626 0.940543 13.1266 0.91246 13.0852 0.894749L12.1772 0.451804C12.1439 0.443158 12.1092 0.441648 12.0753 0.447375C12.0434 0.447061 12.0118 0.453636 11.9827 0.466652C11.9536 0.479668 11.9277 0.498816 11.9066 0.522789C11.8856 0.546762 11.87 0.574993 11.8609 0.605553C11.8518 0.636112 11.8494 0.668279 11.8538 0.699854H11.8361ZM0.73149 5.2799L1.17443 4.39401V4.39844C1.19405 4.35207 1.22664 4.31235 1.26828 4.28406C1.30993 4.25577 1.35886 4.24012 1.4092 4.23898C1.44765 4.24008 1.48549 4.24888 1.52049 4.26486C1.55548 4.28084 1.58692 4.30366 1.61295 4.33199L2.66273 5.36406C2.8089 5.5058 2.76018 5.62539 2.55199 5.62539H0.961821C0.918853 5.63146 0.875045 5.62526 0.835446 5.60751C0.795846 5.58976 0.762065 5.56119 0.737994 5.52509C0.713924 5.48898 0.700542 5.44681 0.699391 5.40343C0.698241 5.36005 0.709368 5.31723 0.73149 5.2799ZM3.4202 2.7684C3.32188 2.76955 3.22791 2.80912 3.15838 2.87865C3.08885 2.94818 3.04928 3.04215 3.04813 3.14048V5.26661C3.04928 5.36493 3.08885 5.4589 3.15838 5.52843C3.22791 5.59796 3.32188 5.63753 3.4202 5.63868H5.55076C5.64909 5.63753 5.74306 5.59796 5.81259 5.52843C5.88212 5.4589 5.92169 5.36493 5.92284 5.26661V3.14048C5.92169 3.04215 5.88212 2.94818 5.81259 2.87865C5.74306 2.80912 5.64909 2.76955 5.55076 2.7684H3.4202ZM4.69146 0.91689L5.57735 0.473946H5.59507C5.63429 0.457096 5.67642 0.448068 5.71909 0.447369C5.75076 0.447769 5.78199 0.454824 5.81075 0.468075C5.83952 0.481325 5.86517 0.500476 5.88606 0.524284C5.90694 0.548092 5.92259 0.576025 5.93198 0.606271C5.94137 0.636516 5.94429 0.668398 5.94057 0.699847V2.29888C5.94057 2.50263 5.82097 2.55136 5.6748 2.40961L4.62502 1.35983C4.59026 1.33113 4.56352 1.29391 4.5474 1.25181C4.53128 1.20971 4.52632 1.16416 4.533 1.11958C4.53969 1.07499 4.5578 1.0329 4.58556 0.997383C4.61333 0.961867 4.64981 0.934137 4.69146 0.91689ZM15.2026 11.5387C14.9988 11.5387 14.9501 11.6539 15.0918 11.8L16.146 12.8498C16.1754 12.8834 16.2127 12.9091 16.2546 12.9245C16.2965 12.9399 16.3416 12.9445 16.3857 12.9379C16.4298 12.9313 16.4716 12.9137 16.5071 12.8866C16.5427 12.8596 16.5708 12.8241 16.589 12.7834L17.0319 11.8975C17.0528 11.8602 17.0629 11.8179 17.0612 11.7753C17.0594 11.7326 17.0458 11.6913 17.0219 11.656C16.998 11.6206 16.9648 11.5925 16.9259 11.575C16.887 11.5574 16.8439 11.551 16.8016 11.5564H15.2026V11.5387ZM3.15866 11.6461C3.22831 11.5773 3.32228 11.5387 3.4202 11.5387H5.55076C5.64868 11.5387 5.74265 11.5773 5.8123 11.6461C5.88196 11.7149 5.92167 11.8084 5.92284 11.9063V14.0325C5.92169 14.1308 5.88212 14.2248 5.81259 14.2943C5.74306 14.3638 5.64909 14.4034 5.55076 14.4045H3.4202C3.32188 14.4034 3.22791 14.3638 3.15838 14.2943C3.08885 14.2248 3.04928 14.1308 3.04813 14.0325V11.9063C3.04929 11.8084 3.08901 11.7149 3.15866 11.6461ZM0.975166 11.5387C0.932829 11.5333 0.889811 11.5397 0.850912 11.5573C0.812013 11.5748 0.778763 11.6029 0.754874 11.6382C0.730984 11.6736 0.717395 11.7149 0.715622 11.7576C0.71385 11.8002 0.723963 11.8425 0.744835 11.8798L1.18778 12.7657C1.20503 12.8073 1.23276 12.8438 1.26827 12.8716C1.30379 12.8993 1.34588 12.9174 1.39047 12.9241C1.43505 12.9308 1.4806 12.9258 1.5227 12.9097C1.5648 12.8936 1.60201 12.8669 1.63072 12.8321L2.6805 11.7823C2.82667 11.6362 2.77795 11.521 2.56977 11.521H0.975166V11.5387ZM11.9464 2.87865C12.0159 2.80912 12.1099 2.76955 12.2082 2.7684H14.3387C14.4371 2.76955 14.531 2.80912 14.6006 2.87865C14.6701 2.94818 14.7097 3.04215 14.7108 3.14048V5.26661C14.7097 5.36493 14.6701 5.4589 14.6006 5.52843C14.531 5.59796 14.4371 5.63753 14.3387 5.63868H12.2082C12.1099 5.63753 12.0159 5.59796 11.9464 5.52843C11.8768 5.4589 11.8373 5.36493 11.8361 5.26661V3.14048C11.8373 3.04215 11.8768 2.94818 11.9464 2.87865ZM2.72476 5.96645L0.359435 8.31849C0.324748 8.35305 0.297225 8.39413 0.278446 8.43935C0.259667 8.48458 0.25 8.53307 0.25 8.58204C0.25 8.63101 0.259667 8.6795 0.278446 8.72472C0.297225 8.76995 0.324748 8.81102 0.359435 8.84559L2.72476 11.2021C2.75932 11.2367 2.8004 11.2643 2.84562 11.283C2.89085 11.3018 2.93934 11.3115 2.98831 11.3115C3.03728 11.3115 3.08577 11.3018 3.13099 11.283C3.17622 11.2643 3.21729 11.2367 3.25186 11.2021L5.61275 8.84559C5.64744 8.81102 5.67496 8.76995 5.69374 8.72472C5.71252 8.6795 5.72219 8.63101 5.72219 8.58204C5.72219 8.53307 5.71252 8.48458 5.69374 8.43935C5.67496 8.39413 5.64744 8.35305 5.61275 8.31849L3.25186 5.96645C3.18072 5.89741 3.08522 5.85921 2.98609 5.86015C2.8884 5.8599 2.79454 5.89808 2.72476 5.96645ZM59.8735 6.00633H59.8336V5.90002H59.8779C59.9311 5.90002 59.9532 5.90002 59.9532 5.95318C59.9532 6.00633 59.9178 6.00633 59.8735 6.00633ZM59.7539 6.20566H59.8336V6.06834H59.8735C59.8905 6.06574 59.9078 6.06983 59.9219 6.07974C59.9359 6.08965 59.9456 6.10462 59.9488 6.1215C59.9509 6.15265 59.96 6.18292 59.9754 6.21008H60.064C60.0491 6.1827 60.04 6.15254 60.0374 6.1215C60.0241 6.07277 60.0064 6.03734 59.9709 6.03734C59.991 6.03351 60.0092 6.0232 60.0228 6.00799C60.0364 5.99278 60.0447 5.97352 60.0462 5.95318C60.0466 5.93874 60.0436 5.92441 60.0374 5.91134C60.0313 5.89827 60.0222 5.88682 60.0108 5.87788C59.9734 5.85605 59.9299 5.84674 59.8868 5.8513H59.7539V6.20566ZM59.6349 6.12744C59.6216 6.09309 59.6154 6.05642 59.6166 6.01962C59.616 5.98318 59.6227 5.947 59.6362 5.91316C59.6497 5.87933 59.6699 5.84853 59.6954 5.82256C59.721 5.79659 59.7515 5.77596 59.7851 5.76188C59.8187 5.74781 59.8548 5.74056 59.8912 5.74057C59.9597 5.74918 60.0228 5.78251 60.0684 5.8343C60.1141 5.88609 60.1393 5.95277 60.1393 6.02183C60.1393 6.09089 60.1141 6.15758 60.0684 6.20937C60.0228 6.26116 59.9597 6.29449 59.8912 6.3031C59.8544 6.30312 59.8179 6.29574 59.784 6.28138C59.7501 6.26703 59.7194 6.24601 59.6938 6.21956C59.6682 6.19311 59.6482 6.16179 59.6349 6.12744ZM60.2239 6.15762C60.2417 6.11382 60.2506 6.0669 60.25 6.01962C60.25 5.97291 60.2407 5.92667 60.2225 5.88363C60.2044 5.84059 60.1778 5.80161 60.1444 5.769C60.111 5.73639 60.0713 5.7108 60.0279 5.69374C59.9844 5.67669 59.9379 5.66851 59.8912 5.66969C59.8443 5.66852 59.7976 5.67667 59.7539 5.69367C59.7102 5.71068 59.6703 5.73619 59.6365 5.76875C59.6027 5.8013 59.5757 5.84024 59.5571 5.8833C59.5385 5.92637 59.5286 5.9727 59.528 6.01962C59.528 6.06711 59.5374 6.11413 59.5557 6.15795C59.574 6.20177 59.6009 6.24152 59.6346 6.2749C59.6684 6.30827 59.7085 6.33461 59.7525 6.35237C59.7966 6.37014 59.8437 6.37899 59.8912 6.3784C59.9385 6.379 59.9854 6.37012 60.0292 6.3523C60.073 6.33448 60.1128 6.30808 60.1462 6.27464C60.1797 6.24121 60.2061 6.20142 60.2239 6.15762Z" fill="white"/>
</svg>
