<svg width="140" height="61" viewBox="0 0 140 61" fill="none" xmlns="http://www.w3.org/2000/svg">
<path fill-rule="evenodd" clip-rule="evenodd" d="M63.1412 18.9548C63.1412 15.4062 66.0179 12.5294 69.5666 12.5294C73.1152 12.5294 75.9919 15.4062 75.9919 18.9548C75.9919 22.5035 73.1152 25.3802 69.5666 25.3802C66.0179 25.3802 63.1412 22.5035 63.1412 18.9548ZM69.5666 6.74658C62.8241 6.74658 57.3583 12.2124 57.3583 18.9548C57.3583 25.6973 62.8241 31.1631 69.5666 31.1631C76.309 31.1631 81.7748 25.6973 81.7748 18.9548C81.7748 12.2124 76.309 6.74658 69.5666 6.74658ZM24.7983 45.5483C25.2301 45.9029 25.5154 46.3733 25.6542 46.9593H20.866C20.9739 46.3424 21.2284 45.8644 21.6293 45.5251C22.0457 45.1859 22.5777 45.0162 23.2254 45.0162C23.8422 45.0162 24.3665 45.1936 24.7983 45.5483ZM23.2948 52.0944C21.5985 52.0944 20.7503 51.1923 20.7503 49.3881H29.5634V48.9486C29.5634 47.9154 29.4169 46.9901 29.1239 46.1728C28.8309 45.3401 28.4068 44.6384 27.8517 44.0678C27.2965 43.4973 26.618 43.0655 25.8161 42.7725C25.0142 42.4641 24.1121 42.3099 23.1097 42.3099C22.0919 42.3099 21.1744 42.4641 20.3571 42.7725C19.5552 43.0655 18.869 43.4896 18.2984 44.0447C17.7278 44.5999 17.2883 45.2784 16.9799 46.0803C16.6715 46.8667 16.5173 47.7535 16.5173 48.7404C16.5173 49.6965 16.6792 50.5601 17.003 51.3311C17.3269 52.1022 17.7818 52.7653 18.3678 53.3204C18.9692 53.8756 19.6863 54.3074 20.519 54.6158C21.3517 54.9088 22.2693 55.0553 23.2717 55.0553C26.5409 55.0553 28.5842 53.6982 29.4015 50.9841H25.3535C24.8909 51.7243 24.2046 52.0944 23.2948 52.0944ZM4.18679 42.7494H0V54.6158H4.18679V48.2778C4.18679 47.4913 4.37184 46.8899 4.74194 46.4735C5.12746 46.0417 5.67491 45.8258 6.38427 45.8258C6.64643 45.8258 6.89316 45.8644 7.12448 45.9415C7.35579 46.0186 7.56397 46.1497 7.74902 46.3347C7.96492 46.5506 8.11142 46.8436 8.18852 47.2137C8.28105 47.5684 8.32731 48.0387 8.32731 48.6247V54.6158H12.5141V47.0749C12.5141 46.4427 12.4524 45.8798 12.329 45.3863C12.2057 44.8929 11.9744 44.4457 11.6351 44.0447C11.2187 43.5512 10.7098 43.1734 10.1084 42.9113C9.52243 42.6337 8.81307 42.4949 7.98034 42.4949C7.19387 42.4949 6.50764 42.6183 5.92164 42.865C5.33565 43.0963 4.75736 43.559 4.18679 44.2529V42.7494ZM37.5313 48.6247C37.5313 49.0257 37.6007 49.3958 37.7394 49.735C37.8937 50.0589 38.0864 50.3442 38.3177 50.5909C38.5645 50.8376 38.8498 51.0304 39.1736 51.1692C39.5129 51.308 39.8675 51.3774 40.2376 51.3774C40.6077 51.3774 40.9547 51.308 41.2786 51.1692C41.6178 51.0304 41.9031 50.8376 42.1344 50.5909C42.3812 50.3442 42.5739 50.0589 42.7127 49.735C42.8669 49.3958 42.944 49.0334 42.944 48.6479C42.944 48.2778 42.8669 47.9308 42.7127 47.607C42.5739 47.2677 42.3812 46.9747 42.1344 46.728C41.9031 46.4812 41.6178 46.2885 41.2786 46.1497C40.9547 46.0109 40.6077 45.9415 40.2376 45.9415C39.8675 45.9415 39.5129 46.0109 39.1736 46.1497C38.8498 46.2885 38.5645 46.4812 38.3177 46.728C38.0864 46.9747 37.8937 47.26 37.7394 47.5838C37.6007 47.9077 37.5313 48.2546 37.5313 48.6247ZM33.1132 48.5785C33.1132 47.6995 33.2905 46.8822 33.6452 46.1265C33.9999 45.3555 34.4933 44.6924 35.1256 44.1372C35.7579 43.5667 36.5058 43.1195 37.3693 42.7956C38.2483 42.4718 39.2044 42.3099 40.2376 42.3099C41.2554 42.3099 42.1961 42.4718 43.0597 42.7956C43.9387 43.104 44.6943 43.5435 45.3266 44.1141C45.9742 44.6693 46.4754 45.3401 46.8301 46.1265C47.1848 46.8976 47.3621 47.7535 47.3621 48.6941C47.3621 49.6348 47.1771 50.4984 46.807 51.2848C46.4523 52.0559 45.9588 52.7267 45.3266 53.2973C44.6943 53.8524 43.931 54.2842 43.0365 54.5926C42.1575 54.9011 41.2015 55.0553 40.1682 55.0553C39.1505 55.0553 38.2098 54.9011 37.3462 54.5926C36.4826 54.2842 35.7347 53.8447 35.1025 53.2742C34.4856 52.7036 33.9999 52.0251 33.6452 51.2386C33.2905 50.4367 33.1132 49.55 33.1132 48.5785ZM55.8531 46.6079L57.954 45.4897C57.2687 44.0365 56.2221 43.3098 54.814 43.3098C53.8578 43.3098 53.0445 43.6223 52.3744 44.2473C51.7193 44.8723 51.3918 45.6629 51.3918 46.6192C51.3918 47.342 51.5838 47.9331 51.9678 48.3924C52.269 48.7539 52.7885 49.1153 53.5265 49.4767C53.79 49.6047 54.0498 49.729 54.3058 49.8494C54.5618 49.9699 54.8178 50.0942 55.0738 50.2222C55.7364 50.6137 56.0677 51.0354 56.0677 51.4872C56.0677 52.2703 55.6385 52.6618 54.7802 52.6618C54.351 52.6618 53.982 52.5187 53.6733 52.2326C53.5152 52.0895 53.2855 51.7545 52.9843 51.2274L50.8157 52.2326C51.5838 54.0322 52.8902 54.932 54.735 54.932C55.8117 54.932 56.7304 54.5932 57.4909 53.9155C58.274 53.2002 58.6655 52.3117 58.6655 51.25C58.6655 50.4217 58.4321 49.7628 57.9652 49.2734C57.4984 48.784 56.5911 48.2494 55.2432 47.6696C54.2644 47.2554 53.7749 46.8375 53.7749 46.4159C53.7749 46.1749 53.8578 45.9791 54.0234 45.8285C54.1891 45.6704 54.3886 45.5914 54.622 45.5914C55.1115 45.5914 55.5218 45.9302 55.8531 46.6079ZM72.5959 49.7139H64.7122C64.78 50.6175 65.0736 51.3366 65.5932 51.8712C66.1127 52.3983 66.7791 52.6618 67.5923 52.6618C68.2248 52.6618 68.7482 52.5112 69.1623 52.21C69.5689 51.9088 70.032 51.3516 70.5515 50.5384L72.6975 51.7356C72.3662 52.3004 72.0161 52.786 71.6471 53.1926C71.2782 53.5917 70.8829 53.923 70.4612 54.1866C70.0395 54.4426 69.584 54.6308 69.0945 54.7513C68.6051 54.8718 68.0742 54.932 67.502 54.932C65.8605 54.932 64.5428 54.4049 63.5489 53.3508C62.5549 52.2891 62.058 50.881 62.058 49.1266C62.058 47.3872 62.5399 45.9791 63.5037 44.9024C64.475 43.8407 65.7626 43.3098 67.3665 43.3098C68.9854 43.3098 70.2654 43.8256 71.2066 44.8572C72.1403 45.8813 72.6072 47.3006 72.6072 49.1153L72.5959 49.7139ZM69.9868 47.6357C69.6329 46.2803 68.7783 45.6027 67.4229 45.6027C67.1142 45.6027 66.8243 45.6516 66.5532 45.7495C66.2822 45.8398 66.0337 45.9754 65.8078 46.1561C65.5894 46.3293 65.4012 46.5401 65.2431 46.7886C65.0849 47.0371 64.9645 47.3194 64.8816 47.6357H69.9868ZM79.5574 43.6148H77.0048V54.6158H79.5574V49.3073C79.5574 47.9369 79.7306 46.9768 80.077 46.4272C80.4309 45.87 81.0295 45.5914 81.8728 45.5914C82.6484 45.5914 83.183 45.8022 83.4767 46.2239C83.7779 46.638 83.9285 47.3872 83.9285 48.4715V54.6158H86.481V47.8729C86.481 46.3217 86.1723 45.2036 85.5549 44.5184C84.8396 43.7127 83.8419 43.3098 82.5618 43.3098C81.4474 43.3098 80.4459 43.7503 79.5574 44.6313V43.6148ZM97.712 45.4897L95.6112 46.6079C95.2799 45.9302 94.8695 45.5914 94.3801 45.5914C94.1466 45.5914 93.9471 45.6704 93.7814 45.8285C93.6158 45.9791 93.533 46.1749 93.533 46.4159C93.533 46.8375 94.0224 47.2554 95.0013 47.6696C96.3491 48.2494 97.2564 48.784 97.7233 49.2734C98.1901 49.7628 98.4235 50.4217 98.4235 51.25C98.4235 52.3117 98.032 53.2002 97.2489 53.9155C96.4884 54.5932 95.5698 54.932 94.493 54.932C92.6482 54.932 91.3418 54.0322 90.5738 52.2326L92.7423 51.2274C93.0435 51.7545 93.2732 52.0895 93.4313 52.2326C93.74 52.5187 94.109 52.6618 94.5382 52.6618C95.3966 52.6618 95.8258 52.2703 95.8258 51.4872C95.8258 51.0354 95.4945 50.6137 94.8318 50.2222C94.5758 50.0942 94.3198 49.9699 94.0638 49.8494C93.8078 49.729 93.548 49.6047 93.2845 49.4767C92.5466 49.1153 92.027 48.7539 91.7258 48.3924C91.3418 47.9331 91.1498 47.342 91.1498 46.6192C91.1498 45.6629 91.4773 44.8723 92.1324 44.2473C92.8026 43.6223 93.6158 43.3098 94.5721 43.3098C95.9801 43.3098 97.0268 44.0365 97.712 45.4897ZM103.521 44.9814C102.384 46.0959 101.816 47.4474 101.816 49.0362C101.816 50.7229 102.373 52.1234 103.488 53.2378C104.602 54.3673 105.984 54.932 107.633 54.932C109.297 54.932 110.701 54.3786 111.846 53.2717C112.983 52.1573 113.551 50.7756 113.551 49.1266C113.551 47.4926 112.986 46.1147 111.857 44.9927C110.712 43.8708 109.319 43.3098 107.678 43.3098C106.044 43.3098 104.658 43.867 103.521 44.9814ZM105.295 51.6905C104.707 51.0504 104.414 50.1807 104.414 49.0814C104.414 48.0574 104.715 47.2215 105.317 46.574C105.92 45.9264 106.707 45.6027 107.678 45.6027C108.664 45.6027 109.459 45.9264 110.061 46.574C110.656 47.214 110.953 48.0686 110.953 49.1379C110.953 50.2071 110.656 51.0617 110.061 51.7018C109.466 52.3418 108.672 52.6618 107.678 52.6618C106.692 52.6618 105.897 52.338 105.295 51.6905ZM117.87 43.6148H120.411V44.5974C120.878 44.108 121.292 43.7729 121.653 43.5922C122.022 43.404 122.459 43.3098 122.964 43.3098C123.634 43.3098 124.334 43.5282 125.064 43.9649L123.901 46.2916C123.419 45.9453 122.949 45.7721 122.489 45.7721C121.104 45.7721 120.411 46.8187 120.411 48.912V54.6158H117.87V43.6148ZM127.678 43.6148L132.625 52.5714L128.333 60.6019H131.235L140 43.6148H137.131L133.991 49.9398L130.625 43.6148H127.678Z" fill="white"/>
<circle cx="81.7742" cy="3.53397" r="3.53397" fill="white"/>
</svg>

