<svg width="71" height="28" viewBox="0 0 71 28" fill="none" xmlns="http://www.w3.org/2000/svg">
<path fill-rule="evenodd" clip-rule="evenodd" d="M32.0706 6.47741C32.0706 4.70309 33.509 3.26472 35.2833 3.26472C37.0576 3.26472 38.496 4.70309 38.496 6.47741C38.496 8.25174 37.0576 9.69011 35.2833 9.69011C33.509 9.69011 32.0706 8.25174 32.0706 6.47741ZM35.2833 0.373291C31.9121 0.373291 29.1792 3.1062 29.1792 6.47741C29.1792 9.84863 31.9121 12.5815 35.2833 12.5815C38.6545 12.5815 41.3874 9.84863 41.3874 6.47741C41.3874 3.1062 38.6545 0.373291 35.2833 0.373291ZM12.8992 19.7741C13.1151 19.9515 13.2577 20.1866 13.3271 20.4796H10.933C10.987 20.1712 11.1142 19.9322 11.3147 19.7626C11.5228 19.5929 11.7889 19.5081 12.1127 19.5081C12.4211 19.5081 12.6833 19.5968 12.8992 19.7741ZM12.1474 23.0472C11.2992 23.0472 10.8752 22.5962 10.8752 21.694H15.2817V21.4743C15.2817 20.9577 15.2084 20.4951 15.0619 20.0864C14.9155 19.67 14.7034 19.3192 14.4258 19.0339C14.1483 18.7486 13.809 18.5327 13.4081 18.3862C13.0071 18.232 12.556 18.1549 12.0549 18.1549C11.546 18.1549 11.0872 18.232 10.6785 18.3862C10.2776 18.5327 9.93449 18.7448 9.6492 19.0224C9.36391 19.2999 9.14416 19.6392 8.98995 20.0401C8.83574 20.4334 8.75864 20.8767 8.75864 21.3702C8.75864 21.8482 8.8396 22.28 9.00152 22.6656C9.16344 23.0511 9.3909 23.3826 9.6839 23.6602C9.9846 23.9378 10.3431 24.1537 10.7595 24.3079C11.1759 24.4544 11.6346 24.5276 12.1358 24.5276C13.7704 24.5276 14.7921 23.8491 15.2007 22.4921H13.1767C12.9454 22.8622 12.6023 23.0472 12.1474 23.0472ZM2.59339 18.3747H0.5V24.3079H2.59339V21.1389C2.59339 20.7456 2.68592 20.4449 2.87097 20.2368C3.06373 20.0209 3.33745 19.9129 3.69214 19.9129C3.82321 19.9129 3.94658 19.9322 4.06224 19.9707C4.1779 20.0093 4.28199 20.0748 4.37451 20.1674C4.48246 20.2753 4.55571 20.4218 4.59426 20.6069C4.64052 20.7842 4.66366 21.0194 4.66366 21.3124V24.3079H6.75705V20.5375C6.75705 20.2213 6.72621 19.9399 6.66452 19.6932C6.60284 19.4464 6.48718 19.2228 6.31755 19.0224C6.10937 18.7756 5.85492 18.5867 5.55421 18.4556C5.26122 18.3168 4.90653 18.2475 4.49017 18.2475C4.09694 18.2475 3.75382 18.3091 3.46082 18.4325C3.16782 18.5482 2.87868 18.7795 2.59339 19.1264V18.3747ZM19.2656 21.3124C19.2656 21.5128 19.3003 21.6979 19.3697 21.8675C19.4468 22.0294 19.5432 22.1721 19.6589 22.2955C19.7822 22.4188 19.9249 22.5152 20.0868 22.5846C20.2564 22.654 20.4338 22.6887 20.6188 22.6887C20.8039 22.6887 20.9774 22.654 21.1393 22.5846C21.3089 22.5152 21.4516 22.4188 21.5672 22.2955C21.6906 22.1721 21.787 22.0294 21.8564 21.8675C21.9335 21.6979 21.972 21.5167 21.972 21.3239C21.972 21.1389 21.9335 20.9654 21.8564 20.8035C21.787 20.6338 21.6906 20.4873 21.5672 20.364C21.4516 20.2406 21.3089 20.1442 21.1393 20.0748C20.9774 20.0054 20.8039 19.9707 20.6188 19.9707C20.4338 19.9707 20.2564 20.0054 20.0868 20.0748C19.9249 20.1442 19.7822 20.2406 19.6589 20.364C19.5432 20.4873 19.4468 20.63 19.3697 20.7919C19.3003 20.9538 19.2656 21.1273 19.2656 21.3124ZM17.0566 21.2892C17.0566 20.8497 17.1453 20.4411 17.3226 20.0633C17.4999 19.6777 17.7467 19.3462 18.0628 19.0686C18.3789 18.7833 18.7529 18.5597 19.1847 18.3978C19.6242 18.2359 20.1022 18.1549 20.6188 18.1549C21.1277 18.1549 21.5981 18.2359 22.0298 18.3978C22.4693 18.552 22.8471 18.7718 23.1633 19.0571C23.4871 19.3346 23.7377 19.67 23.915 20.0633C24.0924 20.4488 24.1811 20.8767 24.1811 21.3471C24.1811 21.8174 24.0885 22.2492 23.9035 22.6424C23.7261 23.0279 23.4794 23.3634 23.1633 23.6486C22.8471 23.9262 22.4655 24.1421 22.0183 24.2963C21.5788 24.4505 21.1007 24.5276 20.5841 24.5276C20.0752 24.5276 19.6049 24.4505 19.1731 24.2963C18.7413 24.1421 18.3674 23.9224 18.0512 23.6371C17.7428 23.3518 17.4999 23.0125 17.3226 22.6193C17.1453 22.2183 17.0566 21.775 17.0566 21.2892ZM28.4266 20.3039L29.477 19.7449C29.1344 19.0182 28.6111 18.6549 27.907 18.6549C27.4289 18.6549 27.0223 18.8112 26.6872 19.1236C26.3597 19.4361 26.1959 19.8314 26.1959 20.3096C26.1959 20.671 26.2919 20.9666 26.4839 21.1962C26.6345 21.3769 26.8943 21.5576 27.2632 21.7384C27.395 21.8024 27.5249 21.8645 27.6529 21.9247C27.7809 21.985 27.9089 22.0471 28.0369 22.1111C28.3682 22.3069 28.5339 22.5177 28.5339 22.7436C28.5339 23.1351 28.3193 23.3309 27.8901 23.3309C27.6755 23.3309 27.491 23.2594 27.3366 23.1163C27.2576 23.0448 27.1428 22.8772 26.9922 22.6137L25.9079 23.1163C26.2919 24.0161 26.9451 24.466 27.8675 24.466C28.4059 24.466 28.8652 24.2966 29.2454 23.9578C29.637 23.6001 29.8328 23.1558 29.8328 22.625C29.8328 22.2108 29.716 21.8814 29.4826 21.6367C29.2492 21.392 28.7955 21.1247 28.1216 20.8348C27.6322 20.6277 27.3875 20.4188 27.3875 20.2079C27.3875 20.0875 27.4289 19.9896 27.5117 19.9143C27.5945 19.8352 27.6943 19.7957 27.811 19.7957C28.0557 19.7957 28.2609 19.9651 28.4266 20.3039ZM36.7979 21.857H32.8561C32.89 22.3087 33.0368 22.6683 33.2966 22.9356C33.5564 23.1991 33.8896 23.3309 34.2962 23.3309C34.6124 23.3309 34.8741 23.2556 35.0812 23.105C35.2845 22.9544 35.516 22.6758 35.7758 22.2692L36.8488 22.8678C36.6831 23.1502 36.508 23.393 36.3236 23.5963C36.1391 23.7959 35.9414 23.9615 35.7306 24.0933C35.5198 24.2213 35.292 24.3154 35.0473 24.3757C34.8025 24.4359 34.5371 24.466 34.251 24.466C33.4303 24.466 32.7714 24.2025 32.2744 23.6754C31.7775 23.1445 31.529 22.4405 31.529 21.5633C31.529 20.6936 31.7699 19.9896 32.2518 19.4512C32.7375 18.9203 33.3813 18.6549 34.1832 18.6549C34.9927 18.6549 35.6327 18.9128 36.1033 19.4286C36.5702 19.9406 36.8036 20.6503 36.8036 21.5576L36.7979 21.857ZM35.4934 20.8178C35.3165 20.1402 34.8891 19.8013 34.2115 19.8013C34.0571 19.8013 33.9122 19.8258 33.7766 19.8747C33.6411 19.9199 33.5168 19.9877 33.4039 20.078C33.2947 20.1646 33.2006 20.2701 33.1215 20.3943C33.0425 20.5185 32.9822 20.6597 32.9408 20.8178H35.4934ZM40.2787 18.8074H39.0024V24.3079H40.2787V21.6536C40.2787 20.9684 40.3653 20.4884 40.5385 20.2136C40.7154 19.935 41.0147 19.7957 41.4364 19.7957C41.8242 19.7957 42.0915 19.9011 42.2383 20.1119C42.3889 20.319 42.4642 20.6936 42.4642 21.2357V24.3079H43.7405V20.9364C43.7405 20.1609 43.5862 19.6018 43.2774 19.2592C42.9198 18.8563 42.4209 18.6549 41.7809 18.6549C41.2237 18.6549 40.723 18.8752 40.2787 19.3157V18.8074ZM49.356 19.7449L48.3056 20.3039C48.1399 19.9651 47.9347 19.7957 47.69 19.7957C47.5733 19.7957 47.4735 19.8352 47.3907 19.9143C47.3079 19.9896 47.2665 20.0875 47.2665 20.2079C47.2665 20.4188 47.5112 20.6277 48.0006 20.8348C48.6745 21.1247 49.1282 21.392 49.3616 21.6367C49.5951 21.8814 49.7118 22.2108 49.7118 22.625C49.7118 23.1558 49.516 23.6001 49.1245 23.9578C48.7442 24.2966 48.2849 24.466 47.7465 24.466C46.8241 24.466 46.1709 24.0161 45.7869 23.1163L46.8712 22.6137C47.0218 22.8772 47.1366 23.0448 47.2157 23.1163C47.37 23.2594 47.5545 23.3309 47.7691 23.3309C48.1983 23.3309 48.4129 23.1351 48.4129 22.7436C48.4129 22.5177 48.2472 22.3069 47.9159 22.1111C47.7879 22.0471 47.6599 21.985 47.5319 21.9247C47.4039 21.8645 47.274 21.8024 47.1422 21.7384C46.7733 21.5576 46.5135 21.3769 46.3629 21.1962C46.1709 20.9666 46.0749 20.671 46.0749 20.3096C46.0749 19.8314 46.2387 19.4361 46.5662 19.1236C46.9013 18.8112 47.3079 18.6549 47.786 18.6549C48.4901 18.6549 49.0134 19.0182 49.356 19.7449ZM52.2607 19.4907C51.6922 20.0479 51.408 20.7237 51.408 21.5181C51.408 22.3614 51.6866 23.0617 52.2438 23.6189C52.801 24.1836 53.4919 24.466 54.3164 24.466C55.1484 24.466 55.8506 24.1893 56.4228 23.6359C56.9913 23.0787 57.2756 22.3878 57.2756 21.5633C57.2756 20.7463 56.9932 20.0573 56.4285 19.4964C55.8562 18.9354 55.1597 18.6549 54.339 18.6549C53.522 18.6549 52.8292 18.9335 52.2607 19.4907ZM53.1474 22.8452C52.8537 22.5252 52.7069 22.0904 52.7069 21.5407C52.7069 21.0287 52.8575 20.6108 53.1587 20.287C53.4599 19.9632 53.8533 19.8013 54.339 19.8013C54.8322 19.8013 55.2294 19.9632 55.5305 20.287C55.828 20.607 55.9767 21.0343 55.9767 21.5689C55.9767 22.1035 55.828 22.5309 55.5305 22.8509C55.2331 23.1709 54.8359 23.3309 54.339 23.3309C53.8458 23.3309 53.4486 23.169 53.1474 22.8452ZM59.4349 18.8074H60.7055V19.2987C60.9389 19.054 61.146 18.8865 61.3267 18.7961C61.5112 18.702 61.7296 18.6549 61.9818 18.6549C62.3169 18.6549 62.667 18.7641 63.0322 18.9825L62.4505 20.1458C62.2096 19.9726 61.9743 19.886 61.7446 19.886C61.0519 19.886 60.7055 20.4094 60.7055 21.456V24.3079H59.4349V18.8074ZM64.3388 18.8074L66.8123 23.2857L64.6663 27.301H66.1177L70.5 18.8074H69.0656L67.4956 21.9699L65.8127 18.8074H64.3388Z" fill="white"/>
</svg>
