<svg width="81" height="11" viewBox="0 0 81 11" fill="none" xmlns="http://www.w3.org/2000/svg">
<path fill-rule="evenodd" clip-rule="evenodd" d="M42.5596 9.79771V10.1214H45.3547V9.76829C44.5898 9.70944 44.5015 9.62118 44.5015 8.76792V6.47296C44.5015 4.91356 43.7365 4.23685 42.6773 4.23685C41.9711 4.23685 41.265 4.73703 40.7942 5.20779V0.794403C40.1605 1.0029 39.5112 1.16032 38.8523 1.26516V1.55939C39.7056 1.64766 39.735 1.7065 39.735 2.53033V8.79734C39.735 9.6506 39.6173 9.73887 38.8229 9.79771V10.1508H41.6181V9.79771C40.8237 9.73887 40.7648 9.6506 40.7648 8.79734V5.67855C40.925 5.47123 41.1299 5.30271 41.3642 5.18554C41.5985 5.06838 41.8563 5.00558 42.1183 5.00183C43.0009 5.00183 43.4128 5.53144 43.4128 6.62007V8.79734C43.4128 9.6506 43.3246 9.70944 42.5596 9.79771ZM19.1981 3.58955C18.9627 2.73629 18.6097 1.85361 17.4622 1.85361C17.2687 1.84286 17.0751 1.87256 16.8937 1.94082C16.7123 2.00907 16.5471 2.11438 16.4087 2.25003C16.2703 2.38569 16.1616 2.5487 16.0897 2.72867C16.0178 2.90865 15.9842 3.10163 15.9911 3.29532C15.9911 4.26627 16.6089 4.70761 17.6681 5.23721C18.7274 5.76682 19.9484 6.38469 19.9484 7.85582C19.9484 9.23868 18.7715 10.3273 17.0356 10.3273C16.5966 10.3187 16.1609 10.2494 15.741 10.1214C15.5207 10.0446 15.3046 9.95624 15.0937 9.85656C14.9313 9.18836 14.8134 8.51016 14.7406 7.8264L15.1231 7.73813C15.3291 8.53254 15.9175 9.85656 17.2709 9.85656C18.2713 9.85656 18.8598 9.23868 18.8598 8.26774C18.8598 7.29679 18.1242 6.82603 17.1533 6.29642L17.1393 6.2892C16.2856 5.8477 14.976 5.17036 14.976 3.70724C14.976 2.44207 15.9763 1.35343 17.6829 1.35343C18.2436 1.36937 18.7989 1.46852 19.3305 1.64766C19.3444 1.75836 19.3582 1.87232 19.3728 1.99258L19.3729 1.99321L19.3729 1.99323L19.373 1.99404L19.373 1.99409L19.373 1.99422C19.4205 2.38504 19.476 2.84263 19.5659 3.47186L19.1981 3.58955ZM28.0249 10.1214V9.79772C28.7899 9.70945 28.937 9.68003 28.937 8.7385V6.53181C28.937 5.59029 28.6133 5.00184 27.7895 5.00184C27.2369 5.05513 26.7185 5.2936 26.3184 5.67856C26.3464 5.8635 26.3562 6.05073 26.3478 6.23759V8.79735C26.3478 9.62118 26.4655 9.70945 27.2011 9.79772V10.1508H24.3765V9.79772C25.2003 9.70945 25.318 9.6506 25.318 8.79735V6.53181C25.318 5.56087 24.9649 5.03126 24.1705 5.03126C23.6409 5.03126 23.1407 5.38433 22.7288 5.70798V8.79735C22.7288 9.6506 22.8465 9.73887 23.4644 9.79772V10.1508H20.6987V9.79772C21.5519 9.70945 21.699 9.6506 21.699 8.79735V6.06105C21.699 5.2078 21.6696 5.14895 20.9046 5.03126V4.73703C21.5305 4.62894 22.1424 4.45131 22.7288 4.20743V5.26664C22.8354 5.19559 22.9467 5.11502 23.0686 5.02682C23.2495 4.89588 23.4536 4.74815 23.6998 4.58992C24.0205 4.36859 24.3989 4.24586 24.7884 4.23685C25.1164 4.24277 25.4344 4.35082 25.698 4.54595C25.9617 4.74107 26.158 5.01357 26.2595 5.32549C26.5969 5.06595 26.9343 4.8522 27.2313 4.66404L27.2314 4.66401L27.2314 4.66398L27.3482 4.58992C27.6403 4.37759 27.9879 4.25491 28.3485 4.23685C29.3783 4.23685 30.0256 4.97241 30.0256 6.23759V8.76793C30.0256 9.6506 30.1433 9.70945 30.8789 9.76829V10.1214H28.0249ZM31.5556 9.79771V10.1508H34.439V9.79771C33.5857 9.70944 33.4975 9.62118 33.4975 8.7385V4.20742C32.9004 4.44336 32.2786 4.61115 31.6438 4.70761V5.03125C32.4382 5.17837 32.4677 5.20779 32.4677 6.03162V8.7385C32.4677 9.6506 32.3794 9.70944 31.5556 9.79771ZM32.433 1.96609C32.3066 2.0925 32.2346 2.2633 32.2323 2.44207C32.243 2.61556 32.3158 2.77941 32.4373 2.90366C32.5589 3.02792 32.7211 3.10428 32.8943 3.11879C33.0705 3.11275 33.2376 3.03906 33.3609 2.91304C33.4841 2.78702 33.5541 2.61835 33.5563 2.44207C33.5611 2.35442 33.5479 2.2667 33.5175 2.18436C33.4871 2.10202 33.4401 2.0268 33.3794 1.96337C33.3187 1.89993 33.2456 1.84962 33.1647 1.81556C33.0838 1.7815 32.9968 1.76441 32.909 1.76535C32.7302 1.76764 32.5594 1.83967 32.433 1.96609ZM37.5283 10.1214C37.3559 10.2176 37.1657 10.2776 36.9693 10.2979C36.1455 10.2979 35.6747 9.76829 35.6747 8.7385V4.91356H34.7626L34.7038 4.79587L35.0569 4.41338H35.6747V3.44243L36.528 2.58918L36.7045 2.6186V4.41338H38.2051C38.2337 4.45143 38.2543 4.49497 38.2654 4.5413C38.2765 4.58763 38.278 4.63575 38.2697 4.68266C38.2614 4.72958 38.2436 4.7743 38.2173 4.81402C38.191 4.85374 38.1568 4.88763 38.1168 4.91356H36.7192V8.29716C36.7192 9.35637 37.1606 9.56233 37.4842 9.56233C37.7744 9.55546 38.058 9.47443 38.308 9.32695L38.4257 9.68002L37.5283 10.1214ZM49.371 5.94335C49.1356 5.17836 48.6648 4.64875 48.0175 4.64875C47.9002 4.64804 47.784 4.6716 47.6763 4.71796C47.5685 4.76432 47.4715 4.83248 47.3914 4.91815C47.3112 5.00382 47.2497 5.10514 47.2106 5.21575C47.1715 5.32635 47.1557 5.44385 47.1643 5.56085C47.1643 6.1493 47.6939 6.44353 48.2823 6.70833C49.2827 7.12025 49.93 7.59101 49.93 8.50311C49.93 9.70944 48.8119 10.3273 47.7527 10.3273C47.2184 10.3432 46.6928 10.1886 46.2522 9.88597C46.1202 9.37652 46.051 8.85283 46.0462 8.32658L46.3993 8.26773C46.6347 9.12099 47.2231 9.88597 48.0175 9.88597C48.1393 9.88831 48.2604 9.86653 48.3738 9.82188C48.4871 9.77724 48.5906 9.71061 48.6781 9.62583C48.7656 9.54106 48.8355 9.43981 48.8837 9.32792C48.9319 9.21603 48.9575 9.0957 48.959 8.97387C48.959 8.38542 48.5765 8.09119 47.9293 7.76755C47.1348 7.38505 46.2816 6.97314 46.2816 5.94335C46.2816 5.03124 47.076 4.23683 48.2823 4.23683C48.6866 4.2336 49.0873 4.31372 49.4592 4.47222C49.5883 4.93597 49.6866 5.40777 49.7535 5.8845L49.371 5.94335ZM53.7991 10.2979C55.0937 10.2979 56.6531 9.29752 56.6531 7.17909C56.6641 6.79715 56.5984 6.41687 56.46 6.06072C56.3216 5.70457 56.1132 5.37977 55.8472 5.1055C55.5811 4.83123 55.2628 4.61305 54.911 4.46385C54.5593 4.31466 54.1812 4.23746 53.7991 4.23684C52.5928 4.23684 50.9157 5.20778 50.9157 7.38505C50.9078 7.76725 50.9767 8.14715 51.1185 8.50219C51.2602 8.85723 51.4718 9.18017 51.7407 9.45186C52.0097 9.72354 52.3305 9.93843 52.6841 10.0838C53.0376 10.2291 53.4168 10.3019 53.7991 10.2979ZM53.9462 9.85655C52.887 9.85655 52.1514 8.6208 52.1514 6.97313C52.1514 5.50201 52.8576 4.67817 53.6814 4.64875C54.8289 4.64875 55.4467 5.91392 55.4467 7.4439C55.4467 9.23867 54.77 9.85655 53.9462 9.85655ZM61.14 10.1508V9.79772C61.905 9.70945 61.9933 9.62118 61.9933 8.70908V6.50239C61.9933 5.59029 61.6696 5.00184 60.7869 5.00184C60.2423 5.05304 59.7326 5.29232 59.3452 5.67856V8.76793C59.3452 9.6506 59.4335 9.70945 60.1985 9.79772V10.1508H57.3445V9.79772C58.2272 9.70945 58.3154 9.6506 58.3154 8.76793V6.03163C58.3154 5.17837 58.2272 5.14895 57.521 5.03126V4.73703C58.1478 4.6329 58.7601 4.45513 59.3452 4.20743V5.26664C59.493 5.15173 59.6499 5.04598 59.8159 4.93405L59.816 4.93404L59.816 4.93403L59.816 4.93402C59.9475 4.84535 60.0849 4.75281 60.2279 4.64877C60.5463 4.41896 60.9244 4.28613 61.3165 4.26627C62.3463 4.26627 63.023 5.00184 63.023 6.26701V8.79735C63.023 9.68003 63.0819 9.73887 63.8469 9.82714V10.1802H61.14V10.1508ZM64.5971 9.79771V10.1508H67.4806V9.79771C66.6273 9.70944 66.539 9.62118 66.539 8.7385V4.20742C65.9419 4.44336 65.3201 4.61115 64.6854 4.70761V5.03125C65.4798 5.17837 65.5092 5.20779 65.5092 6.03162V8.7385C65.5092 9.6506 65.421 9.70944 64.5971 9.79771ZM65.504 1.96609C65.3776 2.0925 65.3056 2.2633 65.3033 2.44207C65.3086 2.61488 65.3777 2.77961 65.4972 2.90454C65.6167 3.02948 65.7782 3.10579 65.9506 3.11879C66.1293 3.1165 66.3001 3.04447 66.4266 2.91805C66.553 2.79163 66.625 2.62083 66.6273 2.44207C66.6321 2.35442 66.6189 2.2667 66.5885 2.18436C66.5581 2.10202 66.5111 2.0268 66.4504 1.96337C66.3897 1.89993 66.3166 1.84962 66.2357 1.81556C66.1548 1.7815 66.0678 1.76441 65.98 1.76535C65.8012 1.76764 65.6304 1.83967 65.504 1.96609ZM72.3206 10.2979C72.0959 10.2823 71.8809 10.2004 71.7027 10.0625C71.5558 9.89047 71.4457 9.69022 71.3791 9.47406C71.2766 9.54235 71.1709 9.61615 71.0639 9.69078L71.0639 9.69083C70.6181 10.002 70.1519 10.3273 69.8197 10.3273C69.6085 10.3273 69.3995 10.2853 69.2048 10.2036C69.0101 10.1219 68.8336 10.0023 68.6857 9.8516C68.5377 9.70094 68.4213 9.5223 68.3432 9.32613C68.2651 9.12995 68.2269 8.92018 68.2308 8.70907C68.2308 8.06178 68.5839 7.64986 69.2901 7.41448C70.0845 7.14968 71.026 6.79661 71.3202 6.56122V6.32584C71.3202 5.38432 70.8789 4.82529 70.2022 4.82529C70.0905 4.82245 69.9796 4.84478 69.8777 4.89062C69.7759 4.93646 69.6856 5.00463 69.6137 5.0901C69.4118 5.33496 69.2797 5.62972 69.2312 5.94335C69.2125 6.02969 69.1639 6.10662 69.0938 6.16049C69.0238 6.21435 68.937 6.24166 68.8487 6.23758C68.7021 6.22392 68.5644 6.16137 68.4577 6.05997C68.351 5.95858 68.2814 5.82424 68.2603 5.67855C68.2603 5.47259 68.4368 5.32548 68.6722 5.14894C69.2701 4.73056 69.9376 4.42173 70.6435 4.23684C71.0353 4.23193 71.4178 4.35599 71.7321 4.58991C72.2029 4.97241 72.3206 5.50201 72.3206 6.20815V8.65023C72.3206 9.23868 72.556 9.44464 72.7913 9.44464C72.9591 9.44133 73.1224 9.3903 73.2621 9.29752L73.3798 9.65059L72.3206 10.2979ZM71.3791 7.00256C71.2467 7.07612 71.0186 7.1791 70.7906 7.28208C70.5626 7.38506 70.3346 7.48804 70.2022 7.56159C69.702 7.79697 69.4077 8.06178 69.4077 8.53254C69.4022 8.66045 69.4224 8.78817 69.467 8.90817C69.5116 9.02817 69.5798 9.13803 69.6676 9.23126C69.7553 9.32449 69.8608 9.39921 69.9779 9.45102C70.095 9.50282 70.2213 9.53067 70.3493 9.5329C70.744 9.49489 71.1157 9.32968 71.4085 9.06214V7.00256H71.3791ZM77.5431 9.79772V10.1508V10.1802H80.25V9.82714C79.485 9.73887 79.4261 9.68003 79.4261 8.79735V6.26701C79.4261 5.00184 78.7494 4.26627 77.7196 4.26627C77.3275 4.28613 76.9494 4.41896 76.631 4.64877C76.4879 4.75281 76.3506 4.84535 76.2191 4.93402C76.053 5.04596 75.8961 5.15172 75.7483 5.26664V4.20743C75.1632 4.45513 74.5509 4.6329 73.9241 4.73703V5.03126C74.6303 5.14895 74.7185 5.17837 74.7185 6.03163V8.76793C74.7185 9.6506 74.6303 9.70945 73.7476 9.79772V10.1508H76.6016V9.79772C75.8366 9.70945 75.7483 9.6506 75.7483 8.76793V5.67856C76.1357 5.29232 76.6454 5.05304 77.19 5.00184C78.0727 5.00184 78.3964 5.59029 78.3964 6.50239V8.70908C78.3964 9.62118 78.3081 9.70945 77.5431 9.79772Z" fill="white"/>
<path fill-rule="evenodd" clip-rule="evenodd" d="M11.1952 5.4726C11.1952 8.49503 8.74503 10.9452 5.7226 10.9452C2.70017 10.9452 0.25 8.49503 0.25 5.4726C0.25 2.45017 2.70017 0 5.7226 0C8.74503 0 11.1952 2.45017 11.1952 5.4726ZM8.61699 6.1194C8.7878 6.2281 8.92626 6.3807 9.01789 6.56123C9.45585 7.33409 9.96147 7.06934 10.1101 6.9915C10.1313 6.98044 10.1452 6.97315 10.1507 6.97315C10.0035 7.53218 9.23856 7.64987 8.85607 7.2968C8.54815 6.99024 8.14164 6.80262 7.70859 6.76719L8.32646 7.70871L9.0326 8.76793L7.00245 7.44391C7.14616 7.58723 7.24708 7.76778 7.29386 7.96528C7.34063 8.16278 7.33142 8.36941 7.26725 8.56197C7.00245 9.53291 7.76743 9.62118 7.76743 9.62118C7.29667 9.91541 6.64937 9.47407 6.64937 8.94446C6.65163 8.5113 6.49456 8.09243 6.20804 7.76756L5.70785 10.1214L5.20767 7.76756C5.20112 7.96991 5.14032 8.16679 5.03162 8.3376C4.92293 8.50841 4.77033 8.64687 4.58979 8.7385C3.73654 9.26811 4.2073 9.85656 4.2073 9.85656C3.64827 9.70945 3.53058 8.94446 3.88365 8.56197C4.19021 8.25405 4.37783 7.84754 4.41326 7.41449L2.3831 8.7385L3.70712 6.70835C3.5638 6.85207 3.38325 6.95298 3.18575 6.99976C2.98825 7.04653 2.78161 7.03732 2.58906 6.97315C1.61811 6.70835 1.52985 7.47333 1.52985 7.47333C1.23562 7.00257 1.67696 6.35528 2.20657 6.35528C2.63669 6.34139 3.05027 6.18629 3.38347 5.91394L1.02966 5.41375L3.38347 4.91357C3.18111 4.90702 2.98424 4.84622 2.81343 4.73753C2.64262 4.62883 2.50416 4.47623 2.41252 4.2957C1.88292 3.44244 1.29447 3.9132 1.29447 3.9132C1.44158 3.35417 2.20657 3.23648 2.58906 3.58955C2.89319 3.89299 3.29397 4.08037 3.72183 4.11916L3.48645 3.73667L2.39781 2.089L4.44268 3.41302C4.29896 3.2697 4.19805 3.08915 4.15127 2.89165C4.10449 2.69415 4.11371 2.48752 4.17788 2.29496C4.44268 1.32402 3.67769 1.23575 3.67769 1.23575C4.14846 0.941523 4.79575 1.38286 4.79575 1.91247C4.79349 2.34563 4.95057 2.7645 5.23709 3.08937L5.73728 0.735565L6.23746 3.08937C6.24401 2.88702 6.30481 2.69014 6.4135 2.51933C6.5222 2.34852 6.6748 2.21006 6.85533 2.11843C7.70859 1.58882 7.23783 1.00037 7.23783 1.00037C7.79685 1.14748 7.91455 1.91247 7.56147 2.29496C7.25492 2.60288 7.0673 3.00939 7.03187 3.44244L9.06203 2.11843L7.7233 4.14858C7.86662 4.00486 8.04716 3.90395 8.24467 3.85717C8.44217 3.8104 8.6488 3.81961 8.84136 3.88378C9.8123 4.14858 9.90057 3.3836 9.90057 3.3836C10.1948 3.85436 9.75346 4.50165 9.22385 4.50165C8.79069 4.4994 8.37182 4.65647 8.04695 4.94299L10.4008 5.44318L8.04695 5.94336C8.2493 5.94991 8.44618 6.01071 8.61699 6.1194Z" fill="white"/>
</svg>
