<svg width="15" height="25" viewBox="0 0 15 25" fill="none" xmlns="http://www.w3.org/2000/svg">
<path d="M7.74063 12.9025C11.3042 12.9013 14.1907 10.0114 14.1896 6.44894C14.1884 2.88536 11.2985 -0.0011492 7.73603 3.43233e-07C4.1736 0.00114989 1.28594 2.8911 1.28709 6.45354C1.29169 10.0148 4.17934 12.9002 7.74063 12.9025ZM7.74063 3.782C9.21665 3.782 10.4133 4.97868 10.4133 6.45469C10.4133 7.93071 9.21665 9.12623 7.74063 9.12623C6.26462 9.12623 5.06794 7.92956 5.06794 6.45354C5.07024 4.97868 6.26577 3.78315 7.74063 3.782ZM10.3489 18.1662C11.6767 17.8651 12.9435 17.3397 14.0965 16.6144C14.9747 16.0476 15.2276 14.8774 14.6609 13.9992C14.1034 13.1347 12.9561 12.8737 12.0802 13.4129C9.42356 15.074 6.0508 15.074 3.39421 13.4129C2.5125 12.86 1.34802 13.1243 0.792786 14.0049C0.235257 14.8866 0.497353 16.0545 1.3802 16.6121C1.38135 16.6121 1.3825 16.6132 1.3825 16.6132C2.53435 17.3374 3.80114 17.8628 5.12772 18.1651L1.52045 21.7724C0.801983 22.5311 0.83532 23.7289 1.59517 24.4474C2.32513 25.1371 3.46548 25.1371 4.19544 24.4474L7.73833 20.9022L11.2835 24.4474C12.0215 25.1842 13.2159 25.1842 13.9539 24.4474C14.6908 23.7093 14.6908 22.515 13.9539 21.777L10.3489 18.1662Z" fill="white"/>
</svg>
