<svg width="65" height="9" viewBox="0 0 65 9" fill="none" xmlns="http://www.w3.org/2000/svg">
<path fill-rule="evenodd" clip-rule="evenodd" d="M5.97043 6.03584C5.97043 7.455 4.83583 8.3 3.21654 8.3C2.03788 8.3 0.925306 7.89917 0 7.08667L0.815152 6.13334C1.55319 6.76167 2.29124 7.11917 3.24959 7.11917C4.08678 7.11917 4.61552 6.74 4.61552 6.16584V6.14417C4.61552 5.6025 4.30709 5.31 2.87506 4.985C1.23374 4.595 0.308436 4.11833 0.308436 2.72083V2.69917C0.308436 1.39917 1.40999 0.5 2.94116 0.5C4.06475 0.5 4.95699 0.835835 5.73911 1.45333L5.01207 2.46083C4.3181 1.95167 3.62412 1.68083 2.91913 1.68083C2.126 1.68083 1.66335 2.08167 1.66335 2.58V2.60167C1.66335 3.18667 2.01585 3.44667 3.49194 3.79333C5.12222 4.18334 5.97043 4.7575 5.97043 6.01417V6.03584ZM10.9935 8.19167H9.62759V1.84334H7.18216V0.608337H13.439V1.84334H10.9935V8.19167ZM13.5556 8.19165H14.9436L15.7367 6.36082H19.3829L20.165 8.19165H21.597L18.2042 0.554146H16.9485L13.5556 8.19165ZM16.2324 5.17998L17.5543 2.14665L18.8872 5.17998H16.2324ZM24.5827 8.19167H23.2498V0.608337H24.5055L28.6364 5.85167V0.608337H29.9693V8.19167H28.8347L24.5827 2.79667V8.19167ZM32.2831 8.19167H35.1582C37.5816 8.19167 39.2559 6.53417 39.2559 4.4V4.37834C39.2559 2.24417 37.5816 0.608337 35.1582 0.608337H32.2831V8.19167ZM33.638 6.97834V1.82167H35.1582C36.7774 1.82167 37.8349 2.91584 37.8349 4.4V4.42167C37.8349 5.90584 36.7774 6.97834 35.1582 6.97834H33.638ZM41.43 8.19165H40.042L43.4347 0.554146H44.6905L48.0835 8.19165H46.6513L45.8691 6.36082H42.2231L41.43 8.19165ZM44.0405 2.14665L42.7188 5.17998H45.3734L44.0405 2.14665ZM49.7363 8.19167H51.0913V5.54834H52.7874L54.6823 8.19167H56.2796L54.1974 5.32084C55.2769 5.0175 56.0369 4.27 56.0369 3.02417V3.0025C56.0369 2.34167 55.806 1.77834 55.3982 1.36667C54.9025 0.890005 54.1424 0.608337 53.173 0.608337H49.7363V8.19167ZM51.0913 4.3675V1.82167H53.063C54.0653 1.82167 54.6602 2.26584 54.6602 3.07834V3.1C54.6602 3.86917 54.0432 4.3675 53.0738 4.3675H51.0913ZM60.9024 8.19167H58.0272V0.608337H60.9024C63.3256 0.608337 65 2.24417 65 4.37834V4.4C65 6.53417 63.3256 8.19167 60.9024 8.19167ZM59.3822 1.82167V6.97834H60.9024C62.5213 6.97834 63.5791 5.90584 63.5791 4.42167V4.4C63.5791 2.91584 62.5213 1.82167 60.9024 1.82167H59.3822Z" fill="white"/>
</svg>
