<svg width="91" height="7" viewBox="0 0 91 7" fill="none" xmlns="http://www.w3.org/2000/svg">
<path d="M87.9368 3.436H86.2605V1.02709H87.9953C88.8041 1.04869 89.3938 1.51607 89.3962 2.28104C89.3872 2.95451 88.951 3.4168 87.9365 3.436H87.9368ZM90.6661 6.19079C90.1633 5.51882 89.4112 4.52345 89.0833 4.08787C89.8213 3.77078 90.3349 3.13541 90.3349 2.26394C90.3328 1.14258 89.4109 0.156521 88.0148 0.156521H85.5711L85.5537 0.152321C85.4613 0.152321 85.2903 0.323315 85.2903 0.44991C85.2873 0.557006 85.2873 6.26129 85.2903 6.39208C85.2921 6.43798 85.2831 6.48748 85.3401 6.57807C85.4139 6.67767 85.5231 6.68307 85.5711 6.68307H85.9782C86.0007 6.68307 86.0871 6.68967 86.1921 6.58617C86.2691 6.49738 86.2565 6.44218 86.2605 6.39208V4.28766H88.0808L89.7367 6.53308C89.7799 6.60447 89.9308 6.68307 90.0397 6.68307H90.4366C90.4654 6.68307 90.7492 6.60897 90.7492 6.42328C90.7582 6.33538 90.6913 6.21929 90.6658 6.19079H90.6661ZM82.6525 6.14189C82.6465 6.08879 82.681 6.0399 82.5895 5.8974C82.4866 5.8116 82.42 5.8116 82.3675 5.8116C82.3615 5.8116 82.3441 5.8188 82.3285 5.8116H78.8876V3.80378H82.2634C82.4686 3.80378 82.5496 3.52119 82.5496 3.445V3.259C82.5496 3.2116 82.4587 2.92901 82.2634 2.92901H78.8969V1.02829H82.3018C82.3444 1.03309 82.4689 1.02679 82.5517 0.918492C82.6138 0.812296 82.6087 0.757398 82.6117 0.6971V0.469109C82.5949 0.416011 82.6225 0.352714 82.5499 0.238118C82.4494 0.157121 82.3678 0.157121 82.3201 0.157121H78.1665C78.1407 0.152321 78.0924 0.152321 78.0105 0.207219C77.9037 0.308015 77.9385 0.390212 77.934 0.405212V6.35278C77.9385 6.41098 77.9085 6.46588 77.9781 6.55977C78.0501 6.66657 78.1575 6.68277 78.2136 6.68277H82.3678C82.4068 6.68277 82.4689 6.68487 82.573 6.60417C82.678 6.48718 82.6495 6.42298 82.6525 6.36808V6.14219V6.14189ZM73.1252 2.89242L75.235 0.595404C75.2692 0.552506 75.3049 0.502408 75.3049 0.43791C75.2899 0.262117 75.157 0.156821 74.9971 0.156821H74.6071C74.4757 0.143322 74.3413 0.235718 74.3041 0.261817L71.1308 3.76418V0.461309C71.1308 0.416311 71.138 0.352714 71.0678 0.249218C70.9886 0.159221 70.8788 0.156821 70.8308 0.156821H70.4673C70.4223 0.156821 70.3365 0.156821 70.2414 0.233018C70.1643 0.317015 70.1664 0.401912 70.1664 0.44961C70.1643 0.533007 70.1643 6.33058 70.1664 6.39718C70.1664 6.44398 70.1664 6.53278 70.245 6.59877C70.3218 6.67017 70.4145 6.68277 70.4796 6.68277H70.805C70.862 6.67737 70.9331 6.68487 71.045 6.61377C71.138 6.52558 71.1305 6.43228 71.1305 6.39718V5.06163L72.4475 3.61869L74.6929 6.49708C74.7781 6.56427 74.806 6.64197 75.0469 6.68307H75.4738C75.5728 6.68307 75.7732 6.58617 75.7732 6.42598C75.771 6.33358 75.7426 6.29039 75.7066 6.24299L73.1252 2.89212V2.89242ZM64.9055 3.436H63.2174V1.02709H64.9484C65.7589 1.04869 66.3601 1.51607 66.3667 2.28104C66.3577 2.95451 65.9203 3.4168 64.9058 3.436H64.9055ZM66.0493 4.08787C66.7861 3.77078 67.3054 3.13541 67.3027 2.26394C67.3027 1.14258 66.3889 0.156521 64.9703 0.156521H62.5344L62.5254 0.152021C62.4354 0.152021 62.2605 0.323015 62.2605 0.44961V6.39208C62.2626 6.43798 62.2485 6.48748 62.3154 6.57807C62.3886 6.67767 62.4984 6.68307 62.5344 6.68307H62.9369C62.954 6.68307 63.0527 6.68967 63.1529 6.58617C63.2339 6.49738 63.2177 6.44218 63.2177 6.39208V4.28766H65.0477L66.7126 6.53308C66.7456 6.60447 66.8962 6.68307 67.0102 6.68307H67.3912C67.4317 6.68307 67.7158 6.60897 67.7158 6.42328C67.7197 6.33538 67.6549 6.21929 67.6294 6.19079C67.1224 5.51882 66.3865 4.52345 66.0493 4.08787ZM55.4948 4.36146C55.7888 3.79298 56.4314 2.51863 56.8607 1.61867C56.8658 1.61567 56.8682 1.61387 56.8682 1.61087C56.8772 1.61567 56.8796 1.61837 56.8868 1.62646C57.3254 2.51623 57.9553 3.79238 58.2337 4.36116H55.4948V4.36146ZM57.1442 0.17872C57.1442 0.173321 57.0488 -0.00727247 56.8682 0.000227239C56.6972 -0.00697248 56.6087 0.17872 56.6087 0.17872C56.0039 1.31418 53.8563 5.57851 53.5158 6.26129C53.4867 6.29249 53.4639 6.33538 53.4639 6.43828C53.4867 6.68307 53.7399 6.68307 53.7885 6.68307H54.1089C54.2634 6.70887 54.4518 6.54058 54.4578 6.47368L55.0973 5.21133H58.6492L59.2942 6.49918C59.3008 6.55708 59.4652 6.68517 59.5702 6.68517C59.5747 6.68517 59.5822 6.68517 59.5882 6.68307H59.9872C60.0586 6.68307 60.2895 6.60447 60.2895 6.43528C60.2841 6.35638 60.2559 6.31888 60.2463 6.27149C59.8645 5.50412 57.7249 1.34058 57.1439 0.17872H57.1442ZM50.242 3.45069C49.7135 3.4453 48.8921 3.44529 48.4919 3.44529V1.02829H50.224C51.01 1.04869 51.6202 1.47617 51.6202 2.23784C51.616 3.04541 51.0136 3.4426 50.2423 3.45069H50.242ZM50.2534 0.156821H47.8067C47.7731 0.152321 47.6798 0.159821 47.6105 0.235718C47.543 0.307715 47.5289 0.382713 47.5289 0.44991V6.39208C47.543 6.43798 47.5139 6.48748 47.6021 6.59307C47.6852 6.68307 47.7683 6.68307 47.8043 6.68307H48.2282C48.2591 6.68307 48.3752 6.68307 48.4472 6.56427C48.509 6.46618 48.4856 6.42628 48.4922 6.39208V4.31676H50.0713C51.5257 4.31376 52.5804 3.52179 52.5858 2.23784C52.5804 0.947891 51.4759 0.156821 50.2537 0.156821H50.2534ZM40.1813 0.156821H39.7994C39.6734 0.150821 39.5354 0.273817 39.5 0.354814C39.1716 0.845295 38.04 2.57833 37.5996 3.2641C37.1565 2.56813 36.0286 0.821296 35.6998 0.329315C35.6998 0.271417 35.479 0.123823 35.383 0.156821H35.0449C34.9789 0.156821 34.7473 0.156821 34.7005 0.404912C34.7047 0.488308 34.7359 0.530307 34.7473 0.557006C35.2234 1.29258 36.8646 3.84188 37.1211 4.22136V6.37828C37.1262 6.43768 37.1073 6.49708 37.1931 6.59247C37.2546 6.66987 37.3485 6.68247 37.3962 6.68247H37.7688C37.8258 6.68247 37.9068 6.68247 38.0097 6.59247C38.0928 6.47938 38.0739 6.41848 38.0739 6.35548V4.22107C38.3289 3.84908 39.9128 1.40417 40.4282 0.587605C40.4477 0.529707 40.4738 0.511408 40.481 0.404612C40.4642 0.169121 40.2146 0.156221 40.1819 0.156221L40.1813 0.156821ZM30.7818 5.8191H28.657V3.81878H30.7647C31.6856 3.83258 32.1554 4.24266 32.1635 4.83484C32.1365 5.50832 31.7915 5.78041 30.7821 5.8188L30.7818 5.8191ZM28.6573 1.02679H30.5013C31.3803 1.05079 31.799 1.42667 31.8101 1.99065C31.7603 2.71362 31.5536 2.92901 30.6567 2.96651H28.6573V1.02709V1.02679ZM32.1872 3.3025C32.5562 3.02891 32.7893 2.56843 32.7758 1.95345C32.7758 0.793397 31.7018 0.157121 30.4401 0.157121H27.9952C27.9517 0.157121 27.8614 0.157121 27.7711 0.228518C27.6826 0.298116 27.6826 0.402512 27.6826 0.46191V6.39268C27.6826 6.48808 27.8377 6.68367 27.9736 6.68367H30.8511C32.246 6.68367 33.128 6.06419 33.1325 4.83574C33.1325 4.15267 32.7635 3.58599 32.1875 3.3028L32.1872 3.3025ZM22.4166 3.4363H20.7136V1.02829H22.4589C23.2551 1.04869 23.8538 1.51637 23.8688 2.28074C23.84 2.95451 23.4114 3.4237 22.4163 3.4357L22.4166 3.4363ZM23.5521 4.09027C24.2876 3.77138 24.8114 3.13631 24.8114 2.26454C24.797 1.14018 23.8886 0.156821 22.4826 0.156821H20.0326C19.9975 0.152321 19.9018 0.159821 19.8376 0.235718C19.7686 0.307715 19.7614 0.382713 19.7614 0.44991V6.39208C19.7614 6.43798 19.7446 6.48748 19.8088 6.57507C19.8922 6.68307 20.0014 6.68307 20.0449 6.68307H20.4445C20.4805 6.68307 20.5615 6.68307 20.6536 6.59307C20.7346 6.48748 20.7082 6.43798 20.7178 6.39208V4.29756H22.5492L24.2123 6.53308C24.2633 6.59907 24.3833 6.68307 24.4913 6.68307H24.8939C24.9365 6.68307 25.2125 6.62127 25.2125 6.42328C25.217 6.33328 25.1465 6.21629 25.124 6.19079C24.6242 5.52391 23.8841 4.52345 23.5509 4.08967L23.5521 4.09027ZM12.94 4.36206C13.2211 3.79358 13.8684 2.51923 14.3091 1.61927C14.3091 1.61627 14.3112 1.61447 14.3112 1.60727C14.3133 1.61627 14.319 1.61927 14.3232 1.62706C14.7711 2.51683 15.39 3.79298 15.6804 4.36176H12.94V4.36206ZM14.5788 0.17872C14.5788 0.173321 14.4999 -0.00727247 14.3136 0.000227239C14.1426 -0.00697248 14.0406 0.17872 14.0406 0.17872C13.4526 1.31418 11.2996 5.57851 10.9576 6.26129C10.9306 6.29249 10.8976 6.33538 10.8976 6.43828C10.9306 6.68307 11.1886 6.68307 11.2336 6.68307H11.5546C11.7076 6.70887 11.8864 6.54058 11.9074 6.47368L12.5212 5.21133H16.0835L16.7216 6.49918C16.7276 6.55708 16.9016 6.68517 17.0006 6.68517C17.0066 6.68517 17.0186 6.68517 17.0237 6.68307H17.4308C17.4992 6.68307 17.7248 6.60447 17.7248 6.43528C17.7248 6.35638 17.7038 6.31888 17.6786 6.27149C17.3093 5.50412 15.1734 1.34028 14.5788 0.17872ZM9.66649 0.156821H9.3446C9.2648 0.131322 9.01461 0.245918 9.01461 0.352714L7.31278 4.82314L5.65774 0.319115C5.62774 0.17632 5.39975 0.128322 5.38265 0.140322H5.35685C5.27166 0.112123 5.09106 0.257317 5.09106 0.323315L3.48823 4.82704C3.08804 3.81428 2.23188 1.63786 1.74379 0.392312C1.72339 0.293316 1.5818 0.143322 1.43091 0.156821H1.01602C0.989023 0.156821 0.950024 0.152321 0.860028 0.19072C0.776631 0.238718 0.745432 0.352714 0.750532 0.397712C0.750532 0.471809 0.774531 0.504808 0.785031 0.556706L3.19904 6.64647C3.29053 6.79227 3.42583 6.82046 3.46903 6.82046H3.48823C3.48823 6.82046 3.70572 6.83366 3.77112 6.62847C4.231 5.36402 5.00497 3.2785 5.37605 2.28824C5.73964 3.2902 6.51361 5.41352 6.97019 6.63027C7.00019 6.77577 7.23718 6.82616 7.26298 6.82046C7.28158 6.82646 7.51887 6.77547 7.54047 6.63747C8.34984 4.60955 9.3188 2.16644 9.94488 0.556706C9.96108 0.504808 9.96888 0.485609 9.97548 0.404912C9.97548 0.19072 9.69229 0.156821 9.66649 0.156821Z" fill="white"/>
</svg>
