<svg width="19" height="21" viewBox="0 0 19 21" fill="none" xmlns="http://www.w3.org/2000/svg">
<path fill-rule="evenodd" clip-rule="evenodd" d="M2.15195 0H16.2231C16.5064 0.000724792 16.7868 0.0572475 17.0483 0.166341C17.3097 0.275434 17.5472 0.434962 17.747 0.635815C17.9468 0.836668 18.1051 1.07491 18.2129 1.33695C18.3206 1.59898 18.3757 1.87968 18.375 2.163V21L16.1158 19.0039L14.8459 17.8279L13.5008 16.5778L14.059 18.522H2.15195C0.966007 18.522 7.09735e-06 17.556 7.09735e-06 16.359V2.163C-0.000719602 1.87968 0.0543658 1.59898 0.162118 1.33695C0.269871 1.07491 0.42818 0.836668 0.628007 0.635815C0.827834 0.434962 1.06527 0.275434 1.32674 0.166341C1.58822 0.0572475 1.86863 0.000724792 2.15195 0ZM11.4771 12.8608C11.791 13.2621 12.169 13.713 12.169 13.713C14.4507 13.6402 15.3513 12.1682 15.3812 12.1193C15.3817 12.1185 15.382 12.1181 15.382 12.1181C15.382 8.7371 13.87 5.99716 13.87 5.99716C12.3591 4.86205 10.92 4.8941 10.92 4.8941L10.773 5.06211C12.558 5.6081 13.3881 6.39505 13.3881 6.39505C11.779 5.5087 9.92771 5.1627 8.10711 5.40805C8.05533 5.40805 8.01028 5.41552 7.96089 5.4237C7.95019 5.42547 7.93928 5.42728 7.92806 5.42905C7.56001 5.46111 6.66806 5.59816 5.54511 6.0911C5.15716 6.26905 4.92506 6.39505 4.92506 6.39505C4.92506 6.39505 5.79711 5.5661 7.68711 5.019L7.58211 4.893C7.58211 4.893 6.14416 4.86095 4.63216 5.99605C4.63216 5.99605 3.12016 8.736 3.12016 12.117C3.12016 12.117 4.00106 13.6389 6.32101 13.713C6.32101 13.713 6.71006 13.2388 7.02506 12.8409C5.69101 12.4419 5.18701 11.6019 5.18701 11.6019C5.18701 11.6019 5.29201 11.6749 5.48101 11.7788C5.49286 11.7928 5.50756 11.8041 5.52411 11.8119C5.5386 11.8218 5.55308 11.8289 5.56767 11.8362C5.58427 11.8444 5.60101 11.8527 5.61806 11.865C5.86469 12.0012 6.12064 12.1197 6.38401 12.2198C6.88338 12.4177 7.39986 12.5694 7.92695 12.6729C9.35344 12.9469 10.829 12.7938 12.169 12.2331C12.537 12.096 12.946 11.8948 13.377 11.6119C13.377 11.6119 12.852 12.4718 11.4771 12.8608ZM6.21591 9.97595C6.21591 9.3349 6.68785 8.8099 7.28691 8.8099C7.88485 8.8099 8.36896 9.33379 8.3568 9.97595C8.3568 10.6148 7.88485 11.142 7.28691 11.142C6.69891 11.142 6.21591 10.6148 6.21591 9.97595ZM10.049 9.97595C10.049 9.3349 10.5209 8.8099 11.12 8.8099C11.7179 8.8099 12.1887 9.33379 12.1899 9.97595C12.1899 10.6148 11.7179 11.142 11.12 11.142C10.532 11.142 10.049 10.6148 10.049 9.97595Z" fill="white"/>
</svg>
