<svg width="32" height="23" viewBox="0 0 32 23" fill="none" xmlns="http://www.w3.org/2000/svg">
<path d="M21.5693 8.24513L16.3687 19.7367C16.2814 19.9005 16.1596 19.9806 16.0027 19.9806H15.7874C15.6307 19.9806 15.5086 19.9005 15.4217 19.7367L10.0044 7.6911L11.9343 4.22766C12.1224 4.22766 12.2442 4.30808 12.3 4.47157L15.8495 12.5721H15.982L19.5314 4.47157C19.587 4.30808 19.7088 4.22766 19.8971 4.22766L21.5693 8.24513Z" fill="#945DD6"/>
<path d="M21.5693 8.24513L19.5906 12.6165C18.664 11.2344 18.2356 9.65238 18.2356 7.89361C18.2356 7.73002 18.2391 7.56644 18.246 7.40285L19.5314 4.47304C19.587 4.30955 19.7088 4.22914 19.8971 4.22914L21.5693 8.24513ZM12.2616 12.7108L10.0044 7.6911L11.9343 4.22766C12.1224 4.22766 12.2442 4.30808 12.3 4.47157L13.655 7.56486L13.676 7.78097C13.8327 9.62016 13.2822 11.2781 12.2616 12.7099V12.7108Z" fill="#71548F"/>
<path d="M21.0236 13.4597C19.4981 11.9338 18.8013 10.0814 18.8013 7.89362C18.8013 5.70587 19.4981 3.84599 21.0236 2.306C22.5491 0.766006 24.3992 0 26.5692 0C28.5928 0 30.3426 0.678102 31.8186 2.03431C32.038 2.24125 32.0451 2.442 31.8429 2.64717L30.15 4.41688C29.962 4.59091 29.7809 4.59091 29.6067 4.41688C28.781 3.67482 27.8045 3.3033 26.6772 3.30231C25.4615 3.30231 24.449 3.74351 23.6397 4.6259C22.8282 5.5072 22.4728 6.56619 22.4728 7.80492C22.4728 9.03095 22.8314 10.076 23.6501 10.9434C24.4687 11.8109 25.4831 12.2428 26.6981 12.2428C27.8267 12.2428 28.7962 11.8932 29.6067 11.1942C29.8087 11.0201 29.9968 11.0271 30.171 11.2151L31.8639 13.0301C32.0519 13.2217 32.0451 13.4168 31.8429 13.6214C30.394 15.0353 28.6362 15.7424 26.5692 15.7426C24.3992 15.7426 22.5507 14.9809 21.0236 13.4576V13.4597Z" fill="#F46737"/>
<path d="M0.000266981 15.2814V0.428384C-0.00175215 0.372476 0.00769853 0.316747 0.0280367 0.26463C0.0483748 0.212514 0.0791696 0.165114 0.118523 0.125352C0.151591 0.0863456 0.192699 0.0549489 0.239033 0.0333129C0.285367 0.0116769 0.33583 0.000313054 0.386966 0L5.61538 0C7.76114 0.15669 9.35997 0.783744 10.8334 2.31635C12.3069 3.84895 12.8991 5.59087 13.0871 7.83449C13.2683 9.98735 12.4009 11.8579 10.931 13.3976C9.46108 14.9373 7.68457 15.7104 5.61538 15.7104H0.386966C0.335784 15.71 0.285292 15.6985 0.238956 15.6768C0.192619 15.655 0.151535 15.6235 0.118523 15.5844C0.0791696 15.5447 0.0483748 15.4973 0.0280367 15.4451C0.00769853 15.393 -0.00175215 15.3373 0.000266981 15.2814ZM3.34426 4.03727V12.3874H5.39956C6.60183 12.3874 7.59923 11.9496 8.39174 11.0741C9.18426 10.1986 9.58002 9.11875 9.57904 7.83449C9.57904 6.56323 9.18199 5.4868 8.39145 4.612C7.6009 3.7372 6.60105 3.29876 5.39926 3.29876H3.34426V4.03787V4.03727Z" fill="#13ADC7"/>
</svg>
