<svg width="161" height="80" viewBox="0 0 161 80" fill="none" xmlns="http://www.w3.org/2000/svg">
<path fill-rule="evenodd" clip-rule="evenodd" d="M84.719 55.5954V56.2427H90.3093V55.5366C88.7793 55.4189 88.6028 55.2424 88.6028 53.5358V48.9459C88.6028 45.8271 87.0728 44.4737 84.9544 44.4737C83.5421 44.4737 82.1298 45.4741 81.1883 46.4156V37.5888C79.9209 38.0058 78.6221 38.3206 77.3045 38.5303V39.1188C79.011 39.2953 79.0699 39.413 79.0699 41.0607V53.5947C79.0699 55.3012 78.8345 55.4777 77.2457 55.5954V56.3016H82.8359V55.5954C81.2471 55.4777 81.1294 55.3012 81.1294 53.5947V47.3571C81.4498 46.9425 81.8596 46.6054 82.3282 46.3711C82.7969 46.1368 83.3124 46.0112 83.8363 46.0037C85.6017 46.0037 86.4255 47.0629 86.4255 49.2401V53.5947C86.4255 55.3012 86.249 55.4189 84.719 55.5954ZM37.9961 43.1791C37.5253 41.4726 36.8192 39.7072 34.5242 39.7072C34.1372 39.6857 33.75 39.7451 33.3872 39.8816C33.0244 40.0181 32.6941 40.2288 32.4172 40.5001C32.1404 40.7714 31.9231 41.0974 31.7793 41.4573C31.6355 41.8173 31.5683 42.2033 31.582 42.5906C31.582 44.5325 32.8177 45.4152 34.9361 46.4744C37.0546 47.5336 39.4966 48.7694 39.4966 51.7116C39.4966 54.4774 37.1428 56.6546 33.671 56.6546C32.793 56.6375 31.9217 56.4988 31.0818 56.2427C30.6412 56.0893 30.209 55.9125 29.7872 55.7131C29.4626 54.3767 29.2267 53.0203 29.0811 51.6528L29.846 51.4763C30.258 53.0651 31.4349 55.7131 34.1417 55.7131C36.1425 55.7131 37.3194 54.4774 37.3194 52.5355C37.3194 50.5936 35.8482 49.6521 33.9064 48.5928L33.8784 48.5784C32.1711 47.6954 29.5518 46.3407 29.5518 43.4145C29.5518 40.8841 31.5526 38.7069 34.9656 38.7069C36.0871 38.7387 37.1977 38.9371 38.2609 39.2953C38.2887 39.5175 38.3165 39.7463 38.3458 39.9878L38.3458 39.988L38.3458 39.9881C38.4407 40.7698 38.5519 41.6851 38.7317 42.9437L37.9961 43.1791ZM55.6497 56.2427V55.5954C57.1797 55.4189 57.4739 55.3601 57.4739 53.477V49.0636C57.4739 47.1806 56.8266 46.0037 55.1789 46.0037C54.0737 46.1103 53.0368 46.5872 52.2367 47.3571C52.2927 47.727 52.3124 48.1015 52.2955 48.4752V53.5947C52.2955 55.2424 52.5309 55.4189 54.002 55.5954V56.3016H48.3529V55.5954C50.0006 55.4189 50.2359 55.3012 50.2359 53.5947V49.0636C50.2359 47.1217 49.5298 46.0625 47.941 46.0625C46.8818 46.0625 45.8814 46.7687 45.0576 47.416V53.5947C45.0576 55.3012 45.2929 55.4777 46.5287 55.5954V56.3016H40.9973V55.5954C42.7038 55.4189 42.998 55.3012 42.998 53.5947V48.1221C42.998 46.4156 42.9391 46.2979 41.4092 46.0625V45.4741C42.6609 45.2579 43.8846 44.9026 45.0576 44.4149V46.5333C45.2707 46.3912 45.4934 46.23 45.7371 46.0537C46.0989 45.7918 46.5072 45.4963 46.9995 45.1798C47.6408 44.7372 48.3976 44.4917 49.1767 44.4737C49.8327 44.4855 50.4686 44.7016 50.996 45.0919C51.5234 45.4821 51.9159 46.0271 52.119 46.651C52.7939 46.1318 53.4687 45.7043 54.0628 45.328L54.0632 45.3277C54.1424 45.2775 54.2201 45.2283 54.2963 45.1798C54.8805 44.7552 55.5757 44.5098 56.297 44.4737C58.3566 44.4737 59.6512 45.9448 59.6512 48.4752V53.5359C59.6512 55.3012 59.8865 55.4189 61.3577 55.5366V56.2427H55.6497ZM62.711 55.5954V56.3016H68.4778V55.5954C66.7713 55.4189 66.5947 55.2424 66.5947 53.477V44.4148C65.4006 44.8867 64.157 45.2223 62.8875 45.4152V46.0625C64.4763 46.3567 64.5352 46.4156 64.5352 48.0632V53.477C64.5352 55.3012 64.3586 55.4189 62.711 55.5954ZM64.4659 39.9322C64.213 40.185 64.069 40.5266 64.0644 40.8841C64.0858 41.2311 64.2314 41.5588 64.4745 41.8073C64.7176 42.0558 65.042 42.2086 65.3884 42.2376C65.7408 42.2255 66.075 42.0781 66.3215 41.8261C66.5681 41.574 66.7081 41.2367 66.7124 40.8841C66.7221 40.7088 66.6957 40.5334 66.6348 40.3687C66.574 40.204 66.4799 40.0536 66.3586 39.9267C66.2372 39.7999 66.0911 39.6992 65.9293 39.6311C65.7675 39.563 65.5934 39.5288 65.4178 39.5307C65.0603 39.5353 64.7187 39.6793 64.4659 39.9322ZM74.6565 56.2427C74.3117 56.4351 73.9312 56.5553 73.5384 56.5958C71.8908 56.5958 70.9493 55.5366 70.9493 53.477V45.8271H69.1251L69.0074 45.5917L69.7135 44.8268H70.9493V42.8849L72.6558 41.1784L73.0088 41.2372V44.8268H76.0099C76.0673 44.9029 76.1084 44.9899 76.1306 45.0826C76.1528 45.1753 76.1558 45.2715 76.1392 45.3653C76.1227 45.4592 76.087 45.5486 76.0343 45.628C75.9817 45.7075 75.9133 45.7753 75.8334 45.8271H73.0383V52.5943C73.0383 54.7127 73.9209 55.1247 74.5682 55.1247C75.1486 55.1109 75.7159 54.9489 76.2159 54.6539L76.4513 55.36L74.6565 56.2427ZM98.3417 47.8867C97.8709 46.3567 96.9294 45.2975 95.6348 45.2975C95.4002 45.2961 95.1678 45.3432 94.9523 45.4359C94.7368 45.5286 94.5428 45.665 94.3825 45.8363C94.2222 46.0076 94.0992 46.2103 94.021 46.4315C93.9428 46.6527 93.9113 46.8877 93.9283 47.1217C93.9283 48.2986 94.9875 48.8871 96.1644 49.4167C98.1652 50.2405 99.4598 51.182 99.4598 53.0062C99.4598 55.4189 97.2236 56.6546 95.1052 56.6546C94.0365 56.6864 92.9855 56.3772 92.1041 55.7719C91.8401 54.753 91.7018 53.7057 91.6922 52.6531L92.3983 52.5355C92.8691 54.242 94.046 55.7719 95.6348 55.7719C95.8785 55.7766 96.1206 55.7331 96.3474 55.6438C96.5741 55.5545 96.7809 55.4212 96.9559 55.2517C97.131 55.0821 97.2707 54.8796 97.3671 54.6558C97.4636 54.4321 97.5148 54.1914 97.5179 53.9477C97.5179 52.7708 96.7529 52.1824 95.4583 51.5351C93.8695 50.7701 92.163 49.9463 92.163 47.8867C92.163 46.0625 93.7518 44.4737 96.1644 44.4737C96.9731 44.4672 97.7743 44.6274 98.5182 44.9444C98.7765 45.8719 98.973 46.8155 99.1067 47.769L98.3417 47.8867ZM107.198 56.5958C109.787 56.5958 112.906 54.595 112.906 50.3582C112.928 49.5943 112.797 48.8337 112.52 48.1214C112.243 47.4091 111.826 46.7595 111.294 46.211C110.762 45.6624 110.125 45.2261 109.422 44.9277C108.718 44.6293 107.962 44.4749 107.198 44.4737C104.785 44.4737 101.431 46.4156 101.431 50.7701C101.415 51.5345 101.553 52.2943 101.837 53.0044C102.12 53.7145 102.543 54.3603 103.081 54.9037C103.619 55.4471 104.261 55.8769 104.968 56.1675C105.675 56.4582 106.433 56.6038 107.198 56.5958ZM107.492 55.7131C105.374 55.7131 103.903 53.2416 103.903 49.9463C103.903 47.004 105.315 45.3563 106.963 45.2975C109.258 45.2975 110.493 47.8278 110.493 50.8878C110.493 54.4773 109.14 55.7131 107.492 55.7131ZM121.88 56.3016V55.5954C123.41 55.4189 123.586 55.2424 123.586 53.4182V49.0048C123.586 47.1806 122.939 46.0037 121.174 46.0037C120.085 46.1061 119.065 46.5846 118.29 47.3571V53.5359C118.29 55.3012 118.467 55.4189 119.997 55.5954V56.3016H114.289V55.5954C116.054 55.4189 116.231 55.3012 116.231 53.5359V48.0633C116.231 46.3567 116.054 46.2979 114.642 46.0625V45.4741C115.895 45.2658 117.12 44.9103 118.29 44.4149V46.5333C118.586 46.3035 118.9 46.0919 119.232 45.8681L119.232 45.868L119.232 45.8678C119.495 45.6906 119.77 45.5055 120.056 45.2975C120.692 44.8379 121.449 44.5723 122.233 44.5325C124.293 44.5325 125.646 46.0037 125.646 48.534V53.5947C125.646 55.3601 125.764 55.4777 127.294 55.6543V56.3604H121.88V56.3016ZM128.794 55.5954V56.3016H134.561V55.5954C132.854 55.4189 132.678 55.2424 132.678 53.477V44.4148C131.484 44.8867 130.24 45.2223 128.971 45.4152V46.0625C130.56 46.3567 130.618 46.4156 130.618 48.0632V53.477C130.618 55.3012 130.442 55.4189 128.794 55.5954ZM130.608 39.9322C130.355 40.185 130.211 40.5266 130.206 40.8841C130.217 41.2298 130.355 41.5592 130.594 41.8091C130.833 42.059 131.156 42.2116 131.501 42.2376C131.859 42.233 132.2 42.0889 132.453 41.8361C132.706 41.5833 132.85 41.2417 132.854 40.8841C132.864 40.7088 132.838 40.5334 132.777 40.3687C132.716 40.204 132.622 40.0536 132.501 39.9267C132.379 39.7999 132.233 39.6992 132.071 39.6311C131.91 39.563 131.735 39.5288 131.56 39.5307C131.202 39.5353 130.861 39.6793 130.608 39.9322ZM144.241 56.5958C143.792 56.5645 143.362 56.4007 143.005 56.125C142.712 55.7809 142.491 55.3804 142.358 54.9481C142.153 55.0847 141.942 55.2323 141.728 55.3816L141.728 55.3817C140.836 56.0039 139.904 56.6546 139.239 56.6546C138.817 56.6547 138.399 56.5706 138.009 56.4072C137.62 56.2439 137.267 56.0045 136.971 55.7032C136.675 55.4019 136.443 55.0446 136.286 54.6523C136.13 54.2599 136.054 53.8404 136.062 53.4181C136.062 52.1236 136.768 51.2997 138.18 50.829C139.769 50.2994 141.652 49.5932 142.24 49.1224V48.6517C142.24 46.7686 141.358 45.6506 140.004 45.6506C139.781 45.6449 139.559 45.6896 139.355 45.7812C139.152 45.8729 138.971 46.0093 138.827 46.1802C138.424 46.6699 138.159 47.2594 138.062 47.8867C138.025 48.0594 137.928 48.2132 137.788 48.321C137.647 48.4287 137.474 48.4833 137.297 48.4752C137.004 48.4478 136.729 48.3227 136.515 48.1199C136.302 47.9172 136.163 47.6485 136.12 47.3571C136.12 46.9452 136.473 46.651 136.944 46.2979C138.14 45.4611 139.475 44.8435 140.887 44.4737C141.67 44.4639 142.435 44.712 143.064 45.1798C144.006 45.9448 144.241 47.004 144.241 48.4163V53.3005C144.241 54.4774 144.712 54.8893 145.183 54.8893C145.518 54.8827 145.845 54.7806 146.124 54.595L146.359 55.3012L144.241 56.5958ZM142.358 50.0051C142.093 50.1522 141.637 50.3582 141.181 50.5642C140.725 50.7701 140.269 50.9761 140.004 51.1232C139.004 51.5939 138.415 52.1236 138.415 53.0651C138.404 53.3209 138.445 53.5763 138.534 53.8163C138.623 54.0563 138.759 54.2761 138.935 54.4625C139.11 54.649 139.322 54.7984 139.556 54.902C139.79 55.0056 140.042 55.0613 140.298 55.0658C141.088 54.9898 141.831 54.6594 142.417 54.1243V50.0051H142.358ZM154.686 55.5954V56.3016V56.3604H160.1V55.6543C158.57 55.4777 158.452 55.3601 158.452 53.5947V48.534C158.452 46.0037 157.099 44.5325 155.039 44.5325C154.255 44.5723 153.499 44.8379 152.862 45.2975C152.576 45.5056 152.301 45.6907 152.038 45.868C151.706 46.0919 151.392 46.3034 151.096 46.5333V44.4149C149.926 44.9103 148.702 45.2658 147.448 45.4741V46.0625C148.86 46.2979 149.037 46.3567 149.037 48.0633V53.5359C149.037 55.3012 148.86 55.4189 147.095 55.5954V56.3016H152.803V55.5954C151.273 55.4189 151.096 55.3012 151.096 53.5359V47.3571C151.871 46.5846 152.891 46.1061 153.98 46.0037C155.745 46.0037 156.393 47.1806 156.393 49.0048V53.4182C156.393 55.2424 156.216 55.4189 154.686 55.5954Z" fill="white"/>
<path fill-rule="evenodd" clip-rule="evenodd" d="M21.99 46.9452C21.99 52.9901 17.0897 57.8904 11.0448 57.8904C4.99994 57.8904 0.0996094 52.9901 0.0996094 46.9452C0.0996094 40.9003 4.99994 36 11.0448 36C17.0897 36 21.99 40.9003 21.99 46.9452ZM16.8336 48.2388C17.1752 48.4562 17.4521 48.7614 17.6354 49.1225C18.5113 50.6682 19.5226 50.1387 19.8199 49.983C19.8621 49.9609 19.8899 49.9463 19.9009 49.9463C19.6067 51.0644 18.0767 51.2997 17.3117 50.5936C16.6959 49.9805 15.8829 49.6052 15.0168 49.5344L16.2525 51.4174L17.6648 53.5359L13.6045 50.8878C13.8919 51.1745 14.0938 51.5356 14.1873 51.9306C14.2809 52.3256 14.2624 52.7388 14.1341 53.1239C13.6045 55.0658 15.1345 55.2424 15.1345 55.2424C14.193 55.8308 12.8984 54.9481 12.8984 53.8889C12.9029 53.0226 12.5887 52.1849 12.0157 51.5351L11.0153 56.2427L10.0149 51.5351C10.0019 51.9398 9.88025 52.3336 9.66286 52.6752C9.44547 53.0168 9.14027 53.2937 8.7792 53.477C7.07269 54.5362 8.01421 55.7131 8.01421 55.7131C6.89615 55.4189 6.66077 53.8889 7.36692 53.1239C7.98002 52.5081 8.35527 51.6951 8.42613 50.829L4.36581 53.477L7.01384 49.4167C6.72721 49.7041 6.36611 49.906 5.97111 49.9995C5.5761 50.0931 5.16284 50.0746 4.77773 49.9463C2.83584 49.4167 2.6593 50.9467 2.6593 50.9467C2.07085 50.0051 2.95353 48.7106 4.01274 48.7106C4.87298 48.6828 5.70016 48.3726 6.36655 47.8279L1.65894 46.8275L6.36655 45.8271C5.96184 45.814 5.56808 45.6924 5.22647 45.4751C4.88485 45.2577 4.60793 44.9525 4.42466 44.5914C3.36544 42.8849 2.18854 43.8264 2.18854 43.8264C2.48277 42.7083 4.01274 42.473 4.77773 43.1791C5.38599 43.786 6.18754 44.1607 7.04327 44.2383L6.57251 43.4733L4.39523 40.178L8.48497 42.826C8.19753 42.5394 7.9957 42.1783 7.90215 41.7833C7.8086 41.3883 7.82703 40.975 7.95537 40.5899C8.48497 38.648 6.955 38.4715 6.955 38.4715C7.89652 37.883 9.19112 38.7657 9.19112 39.8249C9.1866 40.6913 9.50075 41.529 10.0738 42.1787L11.0742 37.4711L12.0745 42.1787C12.0876 41.774 12.2092 41.3803 12.4266 41.0387C12.644 40.697 12.9492 40.4201 13.3103 40.2369C15.0168 39.1776 14.0753 38.0007 14.0753 38.0007C15.1933 38.295 15.4287 39.8249 14.7226 40.5899C14.1094 41.2058 13.7342 42.0188 13.6633 42.8849L17.7237 40.2369L15.0462 44.2972C15.3328 44.0097 15.6939 43.8079 16.0889 43.7143C16.4839 43.6208 16.8972 43.6392 17.2823 43.7676C19.2242 44.2972 19.4007 42.7672 19.4007 42.7672C19.9892 43.7087 19.1065 45.0033 18.0473 45.0033C17.181 44.9988 16.3432 45.3129 15.6935 45.886L20.4011 46.8864L15.6935 47.8867C16.0982 47.8998 16.492 48.0214 16.8336 48.2388Z" fill="white"/>
</svg>
