<svg width="130" height="80" viewBox="0 0 130 80" fill="none" xmlns="http://www.w3.org/2000/svg">
<path fill-rule="evenodd" clip-rule="evenodd" d="M11.9409 50.0717C11.9409 52.91 9.67166 54.6 6.43309 54.6C4.07576 54.6 1.85061 53.7983 0 52.1733L1.6303 50.2667C3.10639 51.5233 4.58248 52.2383 6.49919 52.2383C8.17355 52.2383 9.23104 51.48 9.23104 50.3317V50.2883C9.23104 49.205 8.61418 48.62 5.75013 47.97C2.46749 47.19 0.616872 46.2367 0.616872 43.4417V43.3983C0.616872 40.7983 2.81999 39 5.88231 39C8.12949 39 9.91398 39.6717 11.4782 40.9067L10.0241 42.9217C8.63621 41.9033 7.24824 41.3617 5.83825 41.3617C4.25201 41.3617 3.3267 42.1633 3.3267 43.16V43.2033C3.3267 44.3733 4.0317 44.8933 6.98387 45.5867C10.2444 46.3667 11.9409 47.515 11.9409 50.0283V50.0717ZM21.9871 54.3833H19.2552V41.6867H14.3643V39.2167H26.8779V41.6867H21.9871V54.3833ZM27.1113 54.3833H29.8872L31.4735 50.7216H38.7658L40.33 54.3833H43.194L36.4085 39.1083H33.897L27.1113 54.3833ZM32.4649 48.36L35.1086 42.2933L37.7744 48.36H32.4649ZM49.1653 54.3833H46.4995V39.2167H49.011L57.2727 49.7033V39.2167H59.9385V54.3833H57.6693L49.1653 43.5933V54.3833ZM64.5662 54.3833H70.3163C75.1632 54.3833 78.5119 51.0683 78.5119 46.8V46.7567C78.5119 42.4883 75.1632 39.2167 70.3163 39.2167H64.5662V54.3833ZM67.276 51.9567V41.6433H70.3163C73.5549 41.6433 75.6699 43.8317 75.6699 46.8V46.8433C75.6699 49.8117 73.5549 51.9567 70.3163 51.9567H67.276ZM82.86 54.3833H80.084L86.8693 39.1083H89.3809L96.1669 54.3833H93.3026L91.7383 50.7216H84.4462L82.86 54.3833ZM88.0809 42.2933L85.4376 48.36H90.7468L88.0809 42.2933ZM99.4726 54.3833H102.183V49.0967H105.575L109.365 54.3833H112.559L108.395 48.6417C110.554 48.035 112.074 46.54 112.074 44.0483V44.005C112.074 42.6833 111.612 41.5567 110.796 40.7333C109.805 39.78 108.285 39.2167 106.346 39.2167H99.4726V54.3833ZM102.183 46.735V41.6433H106.126C108.131 41.6433 109.321 42.5317 109.321 44.1567V44.2C109.321 45.7383 108.086 46.735 106.148 46.735H102.183ZM121.805 54.3833H116.054V39.2167H121.805C126.651 39.2167 130 42.4883 130 46.7567V46.8C130 51.0683 126.651 54.3833 121.805 54.3833ZM118.764 41.6433V51.9567H121.805C125.043 51.9567 127.158 49.8117 127.158 46.8433V46.8C127.158 43.8317 125.043 41.6433 121.805 41.6433H118.764Z" fill="white"/>
</svg>
