<svg width="30" height="80" viewBox="0 0 30 80" fill="none" xmlns="http://www.w3.org/2000/svg">
<path d="M14.6815 39.805C21.8086 39.8027 27.5816 34.0228 27.5793 26.8979C27.577 19.7707 21.7971 13.9977 14.6723 14C7.54739 14.0023 1.77208 19.7822 1.77438 26.9071C1.78357 34.0297 7.55888 39.8004 14.6815 39.805ZM14.6815 21.564C17.6335 21.564 20.0268 23.9574 20.0268 26.9094C20.0268 29.8614 17.6335 32.2525 14.6815 32.2525C11.7294 32.2525 9.33608 29.8591 9.33608 26.9071C9.34068 23.9574 11.7317 21.5663 14.6815 21.564ZM19.8981 50.3325C22.5535 49.7301 25.0871 48.6795 27.3931 47.2287C29.1496 46.0953 29.6554 43.7548 28.522 41.9983C27.4069 40.2694 25.1124 39.7475 23.3605 40.8258C18.0473 44.1479 11.3018 44.1479 5.98861 40.8258C4.2252 39.7199 1.89623 40.2487 0.785768 42.0098C-0.32929 43.7732 0.194902 46.1091 1.9606 47.2241C1.9629 47.2241 1.9652 47.2264 1.9652 47.2264C4.26889 48.6749 6.80248 49.7255 9.45563 50.3302L2.24109 57.5447C0.804161 59.0621 0.870834 61.4578 2.39053 62.8947C3.85045 64.2742 6.13115 64.2742 7.59107 62.8947L14.6769 55.8043L21.7673 62.8947C23.2433 64.3684 25.632 64.3684 27.108 62.8947C28.5817 61.4187 28.5817 59.0299 27.108 57.5539L19.8981 50.3325Z" fill="white"/>
</svg>
