<svg width="181" height="80" viewBox="0 0 181 80" fill="none" xmlns="http://www.w3.org/2000/svg">
<path d="M174.673 46.872H171.321V42.0542H174.79C176.408 42.0974 177.587 43.0321 177.592 44.5621C177.574 45.909 176.702 46.8336 174.673 46.872H174.673ZM180.132 52.3816C179.126 51.0376 177.622 49.0469 176.966 48.1757C178.442 47.5416 179.47 46.2708 179.47 44.5279C179.465 42.2852 177.622 40.313 174.829 40.313H169.942L169.907 40.3046C169.722 40.3046 169.38 40.6466 169.38 40.8998C169.374 41.114 169.374 52.5226 169.38 52.7842C169.384 52.876 169.366 52.975 169.48 53.1561C169.628 53.3553 169.846 53.3661 169.942 53.3661H170.756C170.801 53.3661 170.974 53.3793 171.184 53.1723C171.338 52.9948 171.313 52.8844 171.321 52.7842V48.5753H174.961L178.273 53.0662C178.36 53.2089 178.661 53.3661 178.879 53.3661H179.673C179.731 53.3661 180.298 53.2179 180.298 52.8466C180.316 52.6708 180.182 52.4386 180.131 52.3816H180.132ZM164.105 52.2838C164.093 52.1776 164.162 52.0798 163.979 51.7948C163.773 51.6232 163.64 51.6232 163.535 51.6232C163.523 51.6232 163.488 51.6376 163.457 51.6232H156.575V47.6076H163.327C163.737 47.6076 163.899 47.0424 163.899 46.89V46.518C163.899 46.4232 163.717 45.858 163.327 45.858H156.594V42.0566H163.403C163.489 42.0662 163.738 42.0536 163.903 41.837C164.027 41.6246 164.017 41.5148 164.023 41.3942V40.9382C163.99 40.832 164.045 40.7054 163.9 40.4762C163.699 40.3142 163.535 40.3142 163.44 40.3142H155.133C155.081 40.3046 154.985 40.3046 154.821 40.4144C154.607 40.616 154.677 40.7804 154.668 40.8104V52.7056C154.677 52.822 154.617 52.9318 154.756 53.1195C154.9 53.3331 155.115 53.3655 155.227 53.3655H163.535C163.613 53.3655 163.738 53.3697 163.946 53.2083C164.156 52.9744 164.099 52.846 164.105 52.7362V52.2844V52.2838ZM145.05 45.7848L149.27 41.1908C149.338 41.105 149.41 41.0048 149.41 40.8758C149.38 40.5242 149.114 40.3136 148.794 40.3136H148.014C147.751 40.2866 147.482 40.4714 147.408 40.5236L141.061 47.5284V40.9226C141.061 40.8326 141.076 40.7054 140.935 40.4984C140.777 40.3184 140.557 40.3136 140.461 40.3136H139.734C139.644 40.3136 139.473 40.3136 139.283 40.466C139.128 40.634 139.133 40.8038 139.133 40.8992C139.128 41.066 139.128 52.6612 139.133 52.7944C139.133 52.888 139.133 53.0656 139.29 53.1975C139.443 53.3403 139.629 53.3655 139.759 53.3655H140.41C140.524 53.3547 140.666 53.3697 140.89 53.2275C141.076 53.0512 141.061 52.8646 141.061 52.7944V50.1233L143.695 47.2374L148.186 52.9942C148.356 53.1285 148.412 53.2839 148.894 53.3661H149.747C149.945 53.3661 150.346 53.1723 150.346 52.852C150.342 52.6672 150.285 52.5808 150.213 52.486L145.05 45.7842V45.7848ZM128.611 46.872H125.235V42.0542H128.697C130.318 42.0974 131.52 43.0321 131.533 44.5621C131.515 45.909 130.64 46.8336 128.611 46.872H128.611ZM130.898 48.1757C132.372 47.5416 133.411 46.2708 133.405 44.5279C133.405 42.2852 131.578 40.313 128.74 40.313H123.869L123.851 40.304C123.671 40.304 123.321 40.646 123.321 40.8992V52.7842C123.325 52.876 123.297 52.975 123.431 53.1561C123.577 53.3553 123.797 53.3661 123.869 53.3661H124.674C124.708 53.3661 124.905 53.3793 125.106 53.1723C125.268 52.9948 125.235 52.8844 125.235 52.7842V48.5753H128.895L132.225 53.0662C132.291 53.2089 132.592 53.3661 132.82 53.3661H133.582C133.663 53.3661 134.231 53.2179 134.231 52.8466C134.239 52.6708 134.11 52.4386 134.059 52.3816C133.045 51.0376 131.573 49.0469 130.898 48.1757ZM109.789 48.7229C110.377 47.586 111.663 45.0373 112.521 43.2373C112.531 43.2313 112.536 43.2277 112.536 43.2217C112.554 43.2313 112.559 43.2367 112.573 43.2529C113.451 45.0325 114.71 47.5848 115.267 48.7223H109.789V48.7229ZM113.088 40.3574C113.088 40.3466 112.897 39.9855 112.536 40.0005C112.194 39.9861 112.017 40.3574 112.017 40.3574C110.808 42.6284 106.512 51.157 105.831 52.5226C105.773 52.585 105.728 52.6708 105.728 52.8766C105.773 53.3661 106.28 53.3661 106.377 53.3661H107.018C107.327 53.4177 107.703 53.0812 107.715 52.9474L108.994 50.4227H116.098L117.388 52.9984C117.401 53.1142 117.73 53.3703 117.94 53.3703C117.949 53.3703 117.964 53.3703 117.976 53.3661H118.774C118.917 53.3661 119.379 53.2089 119.379 52.8706C119.368 52.7128 119.312 52.6378 119.292 52.543C118.529 51.0082 114.25 42.6812 113.088 40.3574H113.088ZM99.2839 46.9014C98.2267 46.8906 96.584 46.8906 95.7836 46.8906V42.0566H99.2479C100.82 42.0974 102.04 42.9523 102.04 44.4757C102.032 46.0908 100.827 46.8852 99.2845 46.9014H99.2839ZM99.3067 40.3136H94.4133C94.3461 40.3046 94.1595 40.3196 94.0209 40.4714C93.8859 40.6154 93.8577 40.7654 93.8577 40.8998V52.7842C93.8859 52.876 93.8277 52.975 94.0041 53.1861C94.1703 53.3661 94.3365 53.3661 94.4085 53.3661H95.2562C95.318 53.3661 95.5502 53.3661 95.6942 53.1285C95.8178 52.9324 95.771 52.8526 95.7842 52.7842V48.6335H98.9425C101.851 48.6275 103.961 47.0436 103.971 44.4757C103.961 41.8958 101.752 40.3136 99.3073 40.3136H99.3067ZM79.1624 40.3136H78.3987C78.1467 40.3016 77.8707 40.5476 77.7999 40.7096C77.1429 41.6906 74.8798 45.1567 73.999 46.5282C73.1129 45.1363 70.857 41.6426 70.1994 40.6586C70.1994 40.5428 69.7578 40.2476 69.5658 40.3136H68.8896C68.7576 40.3136 68.2945 40.3136 68.2009 40.8098C68.2093 40.9766 68.2717 41.0606 68.2945 41.114C69.2466 42.5852 72.5291 47.6838 73.0421 48.4427V52.7566C73.0523 52.8754 73.0145 52.9942 73.1861 53.1849C73.3091 53.3397 73.4969 53.3649 73.5922 53.3649H74.3374C74.4514 53.3649 74.6134 53.3649 74.8192 53.1849C74.9854 52.9588 74.9476 52.837 74.9476 52.711V48.4421C75.4576 47.6982 78.6255 42.8083 79.6562 41.1752C79.6952 41.0594 79.7474 41.0228 79.7618 40.8092C79.7282 40.3382 79.229 40.3124 79.1636 40.3124L79.1624 40.3136ZM60.3634 51.6382H56.1137V47.6376H60.3292C62.1711 47.6652 63.1107 48.4853 63.1269 49.6697C63.0729 51.0166 62.3829 51.5608 60.364 51.6376L60.3634 51.6382ZM56.1143 42.0536H59.8024C61.5603 42.1016 62.3979 42.8533 62.4201 43.9813C62.3205 45.4272 61.9071 45.858 60.1132 45.933H56.1143V42.0542V42.0536ZM63.1743 46.605C63.9122 46.0578 64.3784 45.1369 64.3514 43.9069C64.3514 41.5868 62.2035 40.3142 59.68 40.3142H54.7902C54.7032 40.3142 54.5226 40.3142 54.342 40.457C54.165 40.5962 54.165 40.805 54.165 40.9238V52.7854C54.165 52.9762 54.4752 53.3673 54.747 53.3673H60.502C63.2919 53.3673 65.0558 52.1284 65.0648 49.6715C65.0648 48.3053 64.3268 47.172 63.1749 46.6056L63.1743 46.605ZM43.633 46.8726H40.2269V42.0566H43.7176C45.3099 42.0974 46.5075 43.0327 46.5375 44.5615C46.4799 45.909 45.6225 46.8474 43.6324 46.8714L43.633 46.8726ZM45.9039 48.1805C47.3751 47.5428 48.4226 46.2726 48.4226 44.5291C48.3938 42.2804 46.5771 40.3136 43.765 40.3136H38.865C38.7948 40.3046 38.6034 40.3196 38.475 40.4714C38.337 40.6154 38.3226 40.7654 38.3226 40.8998V52.7842C38.3226 52.876 38.289 52.975 38.4174 53.1501C38.5842 53.3661 38.8026 53.3661 38.8896 53.3661H39.6888C39.7608 53.3661 39.9227 53.3661 40.1069 53.1861C40.2689 52.975 40.2161 52.876 40.2353 52.7842V48.5951H43.8982L47.2245 53.0662C47.3265 53.1981 47.5665 53.3661 47.7824 53.3661H48.5876C48.6728 53.3661 49.2248 53.2425 49.2248 52.8466C49.2338 52.6666 49.0928 52.4326 49.0478 52.3816C48.0482 51.0478 46.5681 49.0469 45.9015 48.1793L45.9039 48.1805ZM24.6797 48.7241C25.2419 47.5872 26.5367 45.0385 27.418 43.2385C27.418 43.2325 27.4222 43.2289 27.4222 43.2145C27.4264 43.2325 27.4378 43.2385 27.4462 43.2541C28.342 45.0337 29.5797 47.586 30.1605 48.7235H24.6797V48.7241ZM27.9574 40.3574C27.9574 40.3466 27.7996 39.9855 27.427 40.0005C27.085 39.9861 26.8811 40.3574 26.8811 40.3574C25.7051 42.6284 21.3991 51.157 20.7151 52.5226C20.6611 52.585 20.5951 52.6708 20.5951 52.8766C20.6611 53.3661 21.1771 53.3661 21.2671 53.3661H21.909C22.215 53.4177 22.5726 53.0812 22.6146 52.9474L23.8422 50.4227H30.9669L32.243 52.9984C32.255 53.1142 32.603 53.3703 32.801 53.3703C32.813 53.3703 32.837 53.3703 32.8472 53.3661H33.6614C33.7982 53.3661 34.2494 53.2089 34.2494 52.8706C34.2494 52.7128 34.2074 52.6378 34.157 52.543C33.4184 51.0082 29.1466 42.6806 27.9574 40.3574ZM18.1328 40.3136H17.489C17.3294 40.2626 16.829 40.4918 16.829 40.7054L13.4254 49.6463L10.1153 40.6382C10.0553 40.3526 9.59931 40.2566 9.56511 40.2806H9.51351C9.34312 40.2242 8.98193 40.5146 8.98193 40.6466L5.77626 49.6541C4.97589 47.6286 3.26355 43.2757 2.28739 40.7846C2.24659 40.5866 1.9634 40.2866 1.66162 40.3136H0.831848C0.77785 40.3136 0.699853 40.3046 0.51986 40.3814C0.353067 40.4774 0.290669 40.7054 0.300869 40.7954C0.300869 40.9436 0.348867 41.0096 0.369866 41.1134L5.19788 53.2929C5.38087 53.5845 5.65146 53.6409 5.73786 53.6409H5.77626C5.77626 53.6409 6.21124 53.6673 6.34204 53.2569C7.2618 50.728 8.80974 46.557 9.55191 44.5765C10.2791 46.5804 11.827 50.827 12.7402 53.2605C12.8002 53.5515 13.2742 53.6523 13.3258 53.6409C13.363 53.6529 13.8375 53.5509 13.8807 53.2749C15.4995 49.2191 17.4374 44.3329 18.6896 41.1134C18.722 41.0096 18.7376 40.9712 18.7508 40.8098C18.7508 40.3814 18.1844 40.3136 18.1328 40.3136Z" fill="white"/>
</svg>
