<svg width="121" height="80" viewBox="0 0 121 80" fill="none" xmlns="http://www.w3.org/2000/svg">
<path fill-rule="evenodd" clip-rule="evenodd" d="M17.6323 30.1772C17.712 30.0971 17.809 30.0365 17.9158 30H18.4031C18.5099 30.0365 18.6069 30.0971 18.6865 30.1772L23.4083 34.8901C23.4777 34.9592 23.5327 35.0414 23.5703 35.1318C23.6079 35.2223 23.6272 35.3193 23.6272 35.4172C23.6272 35.5152 23.6079 35.6121 23.5703 35.7026C23.5327 35.793 23.4777 35.8752 23.4083 35.9443L18.6865 40.6572C18.6174 40.7266 18.5353 40.7817 18.4448 40.8192C18.3544 40.8568 18.2574 40.8761 18.1594 40.8761C18.0615 40.8761 17.9645 40.8568 17.8741 40.8192C17.7836 40.7817 17.7015 40.7266 17.6323 40.6572L12.9017 35.9443C12.8323 35.8752 12.7773 35.793 12.7397 35.7026C12.7021 35.6121 12.6828 35.5152 12.6828 35.4172C12.6828 35.3193 12.7021 35.2223 12.7397 35.1318C12.7773 35.0414 12.8323 34.9592 12.9017 34.8901L17.6323 30.1772ZM79.3787 53.919C76.5173 53.919 74.5329 51.722 74.5329 48.5239C74.5329 45.4233 76.5173 43.2618 79.3433 43.2618C80.0011 43.2785 80.6488 43.4273 81.248 43.6994C81.8471 43.9714 82.3854 44.3612 82.8309 44.8455C83.2763 45.3298 83.6199 45.8988 83.841 46.5185C84.0622 47.1383 84.1564 47.7962 84.1182 48.4531C84.1182 51.6157 82.2401 53.919 79.3787 53.919ZM76.954 41.5858C76.0771 41.9966 75.3087 42.6069 74.7101 43.3681V31.2934C74.7101 30.5138 74.6304 30.4075 73.8242 30.4075H73.1686C72.3891 30.4075 72.2827 30.4961 72.2827 31.2934V54.858C72.2827 55.6376 72.3625 55.7439 73.1686 55.7439H73.8242C74.6038 55.7439 74.7101 55.6553 74.7101 54.858V53.7773C75.2925 54.5409 76.047 55.1563 76.9121 55.5735C77.7772 55.9906 78.7285 56.1978 79.6888 56.178C83.7019 56.178 86.6607 52.8736 86.6607 48.5239C86.6607 44.1742 83.7373 41.0027 79.7597 41.0027C78.7917 40.9754 77.8309 41.1751 76.954 41.5858ZM52.0135 40.9673C50.6138 40.9673 49.9848 41.3482 48.7003 42.8808V42.2076C48.7003 41.4014 48.594 41.3217 47.8144 41.3217H47.1589C46.3527 41.3217 46.273 41.428 46.273 42.2076V54.858C46.273 55.6553 46.3793 55.7439 47.1589 55.7439H47.8144C48.6206 55.7439 48.7003 55.6376 48.7003 54.858V48.143C48.599 46.9543 48.7907 45.7589 49.2584 44.6615C49.5354 44.1949 49.9461 43.8222 50.4373 43.5916C50.9285 43.361 51.4776 43.2832 52.0135 43.3681C52.2562 43.407 52.4938 43.4723 52.7222 43.563C52.8104 43.598 52.9087 43.598 52.9969 43.563C53.0848 43.5238 53.1589 43.4589 53.2095 43.3769C53.3415 43.1894 53.4571 42.9908 53.555 42.7834L53.7587 42.3847C53.8731 42.2017 53.9569 42.0012 54.0068 41.7912C54.0068 41.3394 53.1209 40.9585 52.0224 40.9585L52.0135 40.9673ZM59.1803 49.7376C59.1123 50.6672 59.2672 51.5996 59.6321 52.4573C59.9482 52.9087 60.3685 53.2773 60.8574 53.5317C61.3462 53.7862 61.8892 53.9191 62.4403 53.9191C62.9914 53.9191 63.5344 53.7862 64.0233 53.5317C64.5122 53.2773 64.9325 52.9087 65.2486 52.4573C65.6135 51.5996 65.7684 50.6672 65.7004 49.7376V42.2075C65.7004 41.4014 65.8067 41.3217 66.5863 41.3217H67.2507C68.048 41.3217 68.1366 41.428 68.1366 42.2075V50.0034C68.1366 52.1206 67.7911 53.2723 66.8166 54.3531C65.6385 55.5216 64.0465 56.1773 62.3872 56.1773C60.7279 56.1773 59.1358 55.5216 57.9577 54.3531C56.9832 53.2723 56.6378 52.1206 56.6378 50.0034V42.2075C56.6378 41.4014 56.7352 41.3217 57.5236 41.3217H58.1881C58.9854 41.3217 59.074 41.428 59.074 42.2075L59.1803 49.7376ZM96.0599 40.9673C94.6691 40.9673 94.0401 41.3482 92.7467 42.8808V42.2076C92.7467 41.4014 92.6404 41.3217 91.8608 41.3217H91.1964C90.3991 41.3217 90.3105 41.428 90.3105 42.2076V54.858C90.3105 55.6553 90.4168 55.7439 91.1964 55.7439H91.8785C92.6758 55.7439 92.7644 55.6376 92.7644 54.858V48.143C92.6678 46.9545 92.8593 45.7602 93.3225 44.6615C93.5999 44.1973 94.0093 43.8263 94.4984 43.596C94.9876 43.3656 95.5343 43.2862 96.0688 43.3681C96.3114 43.407 96.5491 43.4723 96.7775 43.563C96.8657 43.598 96.9639 43.598 97.0521 43.563C97.141 43.5215 97.2174 43.4573 97.2736 43.3769C97.4028 43.1892 97.5154 42.9906 97.6102 42.7834L97.8228 42.3847C97.9318 42.2 98.0125 41.9999 98.062 41.7912C98.062 41.3394 97.1761 40.9585 96.0776 40.9585L96.0599 40.9673ZM102.863 55.7439C103.643 55.7439 103.749 55.6553 103.749 54.858V42.2075C103.749 41.4279 103.661 41.3216 102.863 41.3216H102.199C101.419 41.3216 101.313 41.4014 101.313 42.2075V54.858C101.313 55.6376 101.402 55.7439 102.199 55.7439H102.863ZM103.982 36.84C104.177 36.5487 104.281 36.2061 104.281 35.8557C104.281 35.3858 104.094 34.9351 103.762 34.6029C103.43 34.2706 102.979 34.0839 102.509 34.0839C102.159 34.0839 101.816 34.1878 101.525 34.3825C101.233 34.5772 101.006 34.8539 100.872 35.1777C100.738 35.5014 100.703 35.8577 100.771 36.2014C100.84 36.545 101.008 36.8607 101.256 37.1085C101.504 37.3563 101.82 37.5251 102.163 37.5934C102.507 37.6618 102.863 37.6267 103.187 37.4926C103.511 37.3585 103.788 37.1314 103.982 36.84ZM115.656 41.738C115.864 41.5251 115.968 41.4189 116.095 41.3658C116.221 41.3128 116.369 41.3128 116.666 41.3128H117.746C118.375 41.3128 118.632 41.49 118.632 41.8709C118.632 42.0126 118.499 42.2253 118.216 42.4999L113.211 47.5229L119.527 54.61C119.766 54.9289 119.908 55.1327 119.908 55.2744C119.908 55.6199 119.625 55.7971 119.022 55.7971H117.924C117.601 55.7971 117.444 55.7971 117.316 55.736C117.194 55.6781 117.099 55.5652 116.914 55.3453L111.474 49.2149L110.845 49.8439V54.8935C110.845 55.6908 110.739 55.7794 109.959 55.7794H109.295C108.489 55.7794 108.409 55.6731 108.409 54.8935V31.2934C108.409 30.4961 108.515 30.4075 109.295 30.4075H109.959C110.757 30.4075 110.845 30.5138 110.845 31.2934V46.637L115.656 41.738L115.656 41.738ZM17.6322 53.7241L12.9015 58.437C12.8324 58.5054 12.7776 58.5868 12.7401 58.6765C12.7027 58.7662 12.6834 58.8625 12.6834 58.9597C12.6834 59.0569 12.7027 59.1532 12.7401 59.2429C12.7776 59.3326 12.8324 59.414 12.9015 59.4824L17.6322 64.2042C17.6964 64.2672 17.7714 64.3182 17.8536 64.3548H18.4649C18.5471 64.3182 18.6221 64.2672 18.6864 64.2042L23.4082 59.4824C23.4773 59.414 23.5321 59.3326 23.5696 59.2429C23.607 59.1532 23.6263 59.0569 23.6263 58.9597C23.6263 58.8625 23.607 58.7662 23.5696 58.6765C23.5321 58.5868 23.4773 58.5054 23.4082 58.437L18.6864 53.7241C18.6176 53.6529 18.5349 53.5965 18.4435 53.5584C18.3521 53.5204 18.2539 53.5014 18.1548 53.5026C18.0572 53.5021 17.9605 53.5214 17.8707 53.5595C17.7808 53.5976 17.6997 53.6536 17.6322 53.7241ZM24.6838 46.637L29.4144 41.9329L29.4055 41.9241C29.5478 41.786 29.7388 41.7096 29.9371 41.7115C30.1325 41.711 30.3202 41.7873 30.4597 41.9241L35.1815 46.637C35.2522 46.7063 35.3084 46.789 35.3468 46.8803C35.3851 46.9715 35.4049 47.0695 35.4049 47.1685C35.4049 47.2675 35.3851 47.3655 35.3468 47.4568C35.3084 47.5481 35.2522 47.6308 35.1815 47.7001L30.4686 52.4041C30.3995 52.4735 30.3173 52.5286 30.2269 52.5661C30.1364 52.6037 30.0394 52.623 29.9415 52.623C29.8436 52.623 29.7466 52.6037 29.6561 52.5661C29.5657 52.5286 29.4835 52.4735 29.4144 52.4041L24.6838 47.6912C24.5478 47.5494 24.472 47.3605 24.472 47.1641C24.472 46.9677 24.5478 46.7788 24.6838 46.637ZM11.7144 59.5799L9.61488 61.6971C9.54537 61.7545 9.49189 61.829 9.45964 61.9132C9.42739 61.9974 9.41747 62.0885 9.43085 62.1776C9.44422 62.2668 9.48043 62.351 9.53597 62.422C9.5915 62.4931 9.66446 62.5485 9.74776 62.583L11.5195 63.4689C11.5942 63.5131 11.6798 63.5354 11.7666 63.5331C11.8534 63.5308 11.9377 63.504 12.0099 63.4559C12.0821 63.4077 12.1393 63.3402 12.1748 63.261C12.2103 63.1818 12.2227 63.0942 12.2105 63.0082V59.7925C12.2105 59.5444 12.1219 59.4115 11.9891 59.4115C11.8678 59.4252 11.7565 59.4856 11.679 59.5799H11.7144ZM24.0727 62.9462V59.7924V59.757C24.0727 59.509 24.1612 59.3761 24.2941 59.3761C24.4125 59.3911 24.5205 59.4514 24.5953 59.5444L26.6949 61.6351C26.7647 61.6919 26.8186 61.7657 26.8515 61.8494C26.8844 61.9331 26.8951 62.0239 26.8827 62.113C26.8702 62.2021 26.8349 62.2865 26.7803 62.3579C26.7257 62.4294 26.6536 62.4856 26.5709 62.521L24.7548 63.4069C24.6803 63.4486 24.5957 63.4688 24.5104 63.4653C24.4251 63.4618 24.3425 63.4346 24.2717 63.3868C24.201 63.339 24.1449 63.2725 24.1098 63.1947C24.0746 63.1169 24.0618 63.0309 24.0727 62.9462ZM24.8167 53.0774C24.6209 53.0774 24.4329 53.1546 24.2936 53.2922C24.1543 53.4298 24.0749 53.6169 24.0726 53.8127V58.0649C24.0749 58.2616 24.154 58.4495 24.2931 58.5886C24.4321 58.7277 24.6201 58.8068 24.8167 58.8091H29.0778C29.1789 58.8139 29.2799 58.7982 29.3748 58.7631C29.4697 58.7279 29.5566 58.674 29.6302 58.6045C29.7038 58.5351 29.7626 58.4515 29.8032 58.3588C29.8437 58.2661 29.8652 58.1661 29.8663 58.0649V53.8127C29.8639 53.6169 29.7845 53.4298 29.6452 53.2922C29.5059 53.1546 29.318 53.0774 29.1221 53.0774H24.8167ZM32.6672 38.6892L32.6925 38.664L32.666 38.6906L32.6672 38.6892ZM33.0646 38.5045C32.913 38.5113 32.7702 38.5777 32.6672 38.6892L30.5841 40.7635C30.3007 41.047 30.3981 41.2862 30.8056 41.2862H33.9682C34.0532 41.295 34.139 41.2803 34.2163 41.2439C34.2936 41.2075 34.3595 41.1507 34.4069 41.0796C34.4543 41.0085 34.4814 40.9258 34.4852 40.8405C34.4891 40.7551 34.4696 40.6703 34.4289 40.5952L33.543 38.8235C33.5005 38.7313 33.4333 38.6527 33.3489 38.5964C33.2644 38.5401 33.166 38.5083 33.0646 38.5045ZM24.0726 31.3997V34.5535C24.0726 34.961 24.3029 35.0584 24.5952 34.7749L26.6948 32.6754C26.7646 32.6186 26.8185 32.5448 26.8514 32.4611C26.8843 32.3774 26.895 32.2866 26.8826 32.1975C26.8701 32.1084 26.8348 32.024 26.7802 31.9526C26.7256 31.8811 26.6535 31.8249 26.5708 31.7895L24.7547 30.9036C24.6882 30.8863 24.6187 30.8833 24.5509 30.8948C24.4872 30.8941 24.424 30.9073 24.3658 30.9333C24.3076 30.9593 24.2556 30.9976 24.2136 31.0456C24.1715 31.0935 24.1403 31.15 24.1221 31.2111C24.1039 31.2722 24.0991 31.3366 24.108 31.3997H24.0726ZM1.8634 40.5598L2.74929 38.788V38.7969C2.78852 38.7041 2.8537 38.6247 2.93699 38.5681C3.02028 38.5115 3.11815 38.4802 3.21881 38.478C3.29572 38.4802 3.37141 38.4978 3.4414 38.5297C3.51139 38.5617 3.57427 38.6073 3.62632 38.664L5.72588 40.7281C6.01822 41.0116 5.92077 41.2508 5.5044 41.2508H2.32406C2.23813 41.2629 2.15051 41.2505 2.07131 41.215C1.99211 41.1795 1.92455 41.1224 1.87641 41.0502C1.82827 40.978 1.80151 40.8936 1.7992 40.8069C1.7969 40.7201 1.81916 40.6345 1.8634 40.5598ZM7.24076 35.5368C7.04411 35.5391 6.85617 35.6182 6.71711 35.7573C6.57805 35.8964 6.49891 36.0843 6.49661 36.281V40.5332C6.49891 40.7299 6.57805 40.9178 6.71711 41.0569C6.85617 41.1959 7.04411 41.2751 7.24076 41.2774H11.5019C11.6985 41.2751 11.8865 41.1959 12.0255 41.0569C12.1646 40.9178 12.2437 40.7299 12.246 40.5332V36.281C12.2437 36.0843 12.1646 35.8964 12.0255 35.7573C11.8865 35.6182 11.6985 35.5391 11.5019 35.5368H7.24076ZM9.78336 31.8338L11.5551 30.9479H11.5906C11.669 30.9142 11.7533 30.8961 11.8386 30.8947C11.9019 30.8955 11.9644 30.9096 12.0219 30.9361C12.0795 30.9627 12.1308 31.001 12.1725 31.0486C12.2143 31.0962 12.2456 31.152 12.2644 31.2125C12.2832 31.273 12.289 31.3368 12.2816 31.3997V34.5978C12.2816 35.0053 12.0424 35.1027 11.75 34.8192L9.65047 32.7197C9.58096 32.6622 9.52748 32.5878 9.49523 32.5036C9.46298 32.4194 9.45306 32.3283 9.46644 32.2392C9.47981 32.15 9.51603 32.0658 9.57156 31.9948C9.62709 31.9237 9.70005 31.8683 9.78336 31.8338ZM30.8056 53.0774C30.3981 53.0774 30.3007 53.3077 30.5841 53.6001L32.6925 55.6996C32.7512 55.7669 32.8259 55.8183 32.9097 55.849C32.9934 55.8798 33.0836 55.889 33.1719 55.8758C33.2601 55.8626 33.3437 55.8273 33.4147 55.7733C33.4858 55.7193 33.5421 55.6482 33.5784 55.5667L34.4643 53.795C34.5061 53.7205 34.5263 53.6359 34.5228 53.5506C34.5192 53.4653 34.492 53.3827 34.4442 53.3119C34.3965 53.2412 34.33 53.1851 34.2522 53.1499C34.1744 53.1148 34.0883 53.1019 34.0037 53.1128H30.8056V53.0774ZM6.71768 53.2922C6.85698 53.1546 7.04492 53.0774 7.24076 53.0774H11.5019C11.6977 53.0774 11.8857 53.1546 12.025 53.2922C12.1643 53.4298 12.2437 53.6169 12.246 53.8127V58.0649C12.2437 58.2616 12.1646 58.4495 12.0255 58.5886C11.8865 58.7277 11.6985 58.8068 11.5019 58.8091H7.24076C7.04411 58.8068 6.85617 58.7277 6.71711 58.5886C6.57805 58.4495 6.49891 58.2616 6.49661 58.0649V53.8127C6.49894 53.6169 6.57837 53.4298 6.71768 53.2922ZM2.35075 53.0774C2.26608 53.0665 2.18004 53.0794 2.10225 53.1145C2.02445 53.1497 1.95795 53.2057 1.91017 53.2765C1.86239 53.3472 1.83521 53.4299 1.83167 53.5152C1.82812 53.6005 1.84835 53.6851 1.89009 53.7595L2.77598 55.5313C2.81048 55.6146 2.86593 55.6876 2.93697 55.7431C3.008 55.7987 3.09219 55.8349 3.18135 55.8482C3.27052 55.8616 3.36163 55.8517 3.44583 55.8195C3.53002 55.7872 3.60445 55.7337 3.66187 55.6642L5.76142 53.5647C6.05377 53.2723 5.95632 53.042 5.53995 53.042H2.35075V53.0774ZM24.2931 35.7573C24.4321 35.6182 24.6201 35.5391 24.8167 35.5368H29.0778C29.2745 35.5391 29.4624 35.6182 29.6015 35.7573C29.7405 35.8964 29.8197 36.0843 29.822 36.281V40.5332C29.8197 40.7299 29.7405 40.9178 29.6015 41.0569C29.4624 41.1959 29.2745 41.2751 29.0778 41.2774H24.8167C24.6201 41.2751 24.4321 41.1959 24.2931 41.0569C24.154 40.9178 24.0749 40.7299 24.0726 40.5332V36.281C24.0749 36.0843 24.154 35.8964 24.2931 35.7573ZM5.84991 41.9329L1.11926 46.637C1.04989 46.7061 0.994841 46.7883 0.957283 46.8787C0.919724 46.9692 0.900391 47.0661 0.900391 47.1641C0.900391 47.262 0.919724 47.359 0.957283 47.4494C0.994841 47.5399 1.04989 47.622 1.11926 47.6912L5.84991 52.4041C5.91904 52.4735 6.00119 52.5285 6.09164 52.5661C6.18209 52.6036 6.27907 52.623 6.37701 52.623C6.47495 52.623 6.57193 52.6036 6.66238 52.5661C6.75283 52.5285 6.83498 52.4735 6.90411 52.4041L11.6259 47.6912C11.6953 47.622 11.7503 47.5399 11.7879 47.4494C11.8254 47.359 11.8448 47.262 11.8448 47.1641C11.8448 47.0661 11.8254 46.9692 11.7879 46.8787C11.7503 46.7883 11.6953 46.7061 11.6259 46.637L6.90411 41.9329C6.76184 41.7948 6.57084 41.7184 6.37258 41.7203C6.1772 41.7198 5.98946 41.7962 5.84991 41.9329ZM120.147 42.0127H120.068V41.8H120.156C120.263 41.8 120.307 41.8 120.307 41.9064C120.307 42.0127 120.236 42.0127 120.147 42.0127ZM119.908 42.4113H120.068V42.1367H120.147C120.181 42.1315 120.216 42.1397 120.244 42.1595C120.272 42.1793 120.291 42.2092 120.298 42.243C120.302 42.3053 120.32 42.3658 120.351 42.4202H120.528C120.499 42.3654 120.48 42.3051 120.475 42.243C120.449 42.1455 120.413 42.0747 120.342 42.0747C120.382 42.067 120.419 42.0464 120.446 42.016C120.473 41.9856 120.49 41.947 120.493 41.9064C120.494 41.8775 120.487 41.8488 120.475 41.8227C120.463 41.7965 120.445 41.7736 120.422 41.7558C120.347 41.7121 120.26 41.6935 120.174 41.7026H119.908V42.4113ZM119.67 42.2549C119.644 42.1862 119.631 42.1128 119.634 42.0392C119.632 41.9664 119.646 41.894 119.673 41.8263C119.7 41.7587 119.74 41.6971 119.791 41.6451C119.842 41.5932 119.903 41.5519 119.971 41.5238C120.038 41.4956 120.11 41.4811 120.183 41.4811C120.32 41.4984 120.446 41.565 120.537 41.6686C120.629 41.7722 120.679 41.9055 120.679 42.0437C120.679 42.1818 120.629 42.3152 120.537 42.4187C120.446 42.5223 120.32 42.589 120.183 42.6062C120.109 42.6062 120.036 42.5915 119.968 42.5628C119.901 42.5341 119.839 42.492 119.788 42.4391C119.737 42.3862 119.697 42.3236 119.67 42.2549ZM120.848 42.3152C120.884 42.2276 120.902 42.1338 120.9 42.0392C120.9 41.9458 120.882 41.8533 120.845 41.7673C120.809 41.6812 120.756 41.6032 120.689 41.538C120.622 41.4728 120.543 41.4216 120.456 41.3875C120.369 41.3534 120.276 41.337 120.183 41.3394C120.089 41.337 119.996 41.3533 119.908 41.3873C119.821 41.4213 119.741 41.4724 119.673 41.5375C119.606 41.6026 119.552 41.6805 119.514 41.7666C119.477 41.8527 119.457 41.9454 119.456 42.0392C119.456 42.1342 119.475 42.2283 119.512 42.3159C119.548 42.4035 119.602 42.483 119.67 42.5498C119.737 42.6165 119.817 42.6692 119.905 42.7047C119.994 42.7403 120.088 42.758 120.183 42.7568C120.277 42.758 120.371 42.7402 120.459 42.7046C120.546 42.669 120.626 42.6162 120.693 42.5493C120.76 42.4824 120.813 42.4028 120.848 42.3152Z" fill="white"/>
</svg>
