<svg width="24" height="24" viewBox="0 0 24 24" fill="none" xmlns="http://www.w3.org/2000/svg">
<path d="M22.0612 7.09911C21.8197 6.07604 21.1081 5.27031 20.2046 4.99687C18.5669 4.5 12 4.5 12 4.5C12 4.5 5.43315 4.5 3.79544 4.99687C2.89193 5.27035 2.18033 6.07604 1.93882 7.09911C1.5 8.95347 1.5 12.8224 1.5 12.8224C1.5 12.8224 1.5 16.6914 1.93882 18.5458C2.18033 19.5688 2.89193 20.341 3.79544 20.6144C5.43315 21.1113 12 21.1113 12 21.1113C12 21.1113 18.5668 21.1113 20.2046 20.6144C21.1081 20.341 21.8197 19.5688 22.0612 18.5458C22.5 16.6914 22.5 12.8224 22.5 12.8224C22.5 12.8224 22.5 8.95347 22.0612 7.09911ZM9.85226 16.3352V9.30971L15.3409 12.8225L9.85226 16.3352Z" fill="white"/>
</svg>
