<svg width="33" height="32" viewBox="0 0 33 32" fill="none" xmlns="http://www.w3.org/2000/svg">
<path d="M27.4163 10.0723C27.4354 10.3388 27.4354 10.6054 27.4354 10.8718C27.4354 19 21.2488 28.3655 9.94166 28.3655C6.45813 28.3655 3.2221 27.3566 0.5 25.6054C0.994943 25.6625 1.47079 25.6815 1.98477 25.6815C4.8591 25.6815 7.50509 24.7107 9.61804 23.0546C6.91499 22.9975 4.64974 21.2272 3.86927 18.7906C4.25001 18.8477 4.6307 18.8858 5.03049 18.8858C5.5825 18.8858 6.13457 18.8096 6.6485 18.6764C3.83124 18.1053 1.71823 15.6307 1.71823 12.6421V12.566C2.53673 13.0229 3.48859 13.3084 4.4974 13.3464C2.8413 12.2424 1.75631 10.3579 1.75631 8.22586C1.75631 7.08374 2.06083 6.03679 2.59386 5.12307C5.62053 8.85404 10.1701 11.2906 15.2715 11.5571C15.1764 11.1002 15.1193 10.6244 15.1193 10.1485C15.1193 6.76013 17.8604 4 21.2678 4C23.0381 4 24.637 4.74239 25.7602 5.94163C27.1497 5.67514 28.4822 5.16116 29.6625 4.45686C29.2055 5.88456 28.2348 7.0838 26.9594 7.84517C28.1967 7.71199 29.396 7.36927 30.5 6.89343C29.6626 8.11166 28.6156 9.19664 27.4163 10.0723Z" fill="white"/>
</svg>
