<svg width="16" height="16" viewBox="0 0 16 16" fill="none" xmlns="http://www.w3.org/2000/svg">
<path d="M8.1 0C5.004 0 2.5 2.504 2.5 5.6C2.5 9.8 8.1 16 8.1 16C8.1 16 13.7 9.8 13.7 5.6C13.7 2.504 11.196 0 8.1 0ZM8.1 7.6C7.56957 7.6 7.06086 7.38929 6.68579 7.01421C6.31071 6.63914 6.1 6.13043 6.1 5.6C6.1 5.06957 6.31071 4.56086 6.68579 4.18579C7.06086 3.81071 7.56957 3.6 8.1 3.6C8.63043 3.6 9.13914 3.81071 9.51421 4.18579C9.88929 4.56086 10.1 5.06957 10.1 5.6C10.1 6.13043 9.88929 6.63914 9.51421 7.01421C9.13914 7.38929 8.63043 7.6 8.1 7.6Z" fill="white"/>
</svg>
