<svg width="15" height="13" viewBox="0 0 15 13" fill="none" xmlns="http://www.w3.org/2000/svg">
<path d="M13.4582 3.03616C13.4677 3.16941 13.4677 3.30268 13.4677 3.43592C13.4677 7.5 10.3744 12.1828 4.72083 12.1828C2.97906 12.1828 1.36105 11.6783 0 10.8027C0.247472 10.8312 0.485393 10.8408 0.742386 10.8408C2.17955 10.8408 3.50254 10.3554 4.55902 9.52732C3.20749 9.49876 2.07487 8.61361 1.68464 7.39532C1.87501 7.42386 2.06535 7.4429 2.26524 7.4429C2.54125 7.4429 2.81729 7.40481 3.07425 7.33822C1.66562 7.05266 0.609114 5.81536 0.609114 4.32107V4.28301C1.01836 4.51144 1.49429 4.65421 1.9987 4.67322C1.17065 4.12118 0.628157 3.17893 0.628157 2.11293C0.628157 1.54187 0.780413 1.01839 1.04693 0.561535C2.56026 2.42702 4.83503 3.64528 7.38577 3.77855C7.33819 3.55012 7.30963 3.3122 7.30963 3.07425C7.30963 1.38006 8.6802 0 10.3839 0C11.269 0 12.0685 0.371193 12.6301 0.970814C13.3249 0.837572 13.9911 0.580578 14.5812 0.228429C14.3528 0.942279 13.8674 1.5419 13.2297 1.92259C13.8484 1.85599 14.448 1.68464 15 1.44671C14.5813 2.05583 14.0578 2.59832 13.4582 3.03616Z" fill="#0F1624" fill-opacity="0.5"/>
</svg>
