<svg width="40" height="24" viewBox="0 0 40 24" fill="none" xmlns="http://www.w3.org/2000/svg">
<path d="M14.2624 14.6626L13.1284 12.7763C12.6526 11.9848 11.5124 11.9648 11.0091 12.7391L4.5964 22.6047C3.84393 23.7624 2.29547 24.0908 1.13782 23.3384C-0.0198271 22.5859 -0.348288 21.0374 0.404184 19.8798L6.81684 10.0142C9.33328 6.14271 15.0345 6.24269 17.4136 10.2L17.5697 10.4596L14.2624 14.6626Z" fill="#13ADC7"/>
<path d="M14.2624 14.6626L13.1284 12.7763C12.6526 11.9848 11.5124 11.9648 11.0091 12.7391L4.5964 22.6047C3.84393 23.7624 2.29547 24.0908 1.13782 23.3384C-0.0198271 22.5859 -0.348288 21.0374 0.404184 19.8798L6.81684 10.0142C9.33328 6.14271 15.0345 6.24269 17.4136 10.2L17.5697 10.4596L14.2624 14.6626Z" fill="url(#paint0_linear)" fill-opacity="0.5" style="mix-blend-mode:color-burn"/>
<path d="M20.4914 15.3196L21.9753 17.7878C22.4448 18.5687 23.5652 18.6011 24.0789 17.8486L35.4356 1.21555C36.2141 0.0752757 37.7696 -0.217958 38.9099 0.560593C40.0502 1.33914 40.3434 2.89466 39.5649 4.03493L28.2082 20.668C25.6393 24.4304 20.0375 24.2686 17.6901 20.3641L17.0656 19.3252L20.4914 15.3196Z" fill="#F46737"/>
<path d="M20.4914 15.3196L21.9753 17.7878C22.4448 18.5687 23.5652 18.6011 24.0789 17.8486L35.4356 1.21555C36.2141 0.0752757 37.7696 -0.217958 38.9099 0.560593C40.0502 1.33914 40.3434 2.89466 39.5649 4.03493L28.2082 20.668C25.6393 24.4304 20.0375 24.2686 17.6901 20.3641L17.0656 19.3252L20.4914 15.3196Z" fill="url(#paint1_linear)" fill-opacity="0.5" style="mix-blend-mode:color-burn"/>
<path d="M11.009 12.7391L12.2467 10.9217C13.5442 9.01672 16.226 8.22466 17.4136 10.2L21.9753 17.7878C22.3986 18.4918 23.3509 18.5875 23.9108 18.0481L22.7839 19.6821C21.4971 21.5479 18.8579 22.3065 17.6902 20.3641L13.1284 12.7763C12.6526 11.9848 11.5123 11.9648 11.009 12.7391Z" fill="#945DD6"/>
<path d="M11.009 12.7391L12.2467 10.9217C13.5442 9.01672 16.226 8.22466 17.4136 10.2L21.9753 17.7878C22.3986 18.4918 23.3509 18.5875 23.9108 18.0481L22.7839 19.6821C21.4971 21.5479 18.8579 22.3065 17.6902 20.3641L13.1284 12.7763C12.6526 11.9848 11.5123 11.9648 11.009 12.7391Z" fill="url(#paint2_linear)" fill-opacity="0.5" style="mix-blend-mode:multiply"/>
<defs>
<linearGradient id="paint0_linear" x1="11.25" y1="2.62499" x2="4.6875" y2="13.25" gradientUnits="userSpaceOnUse">
<stop stop-color="#945DD6"/>
<stop offset="1" stop-color="#945DD6" stop-opacity="0"/>
</linearGradient>
<linearGradient id="paint1_linear" x1="28.125" y1="9.5" x2="18.4375" y2="23.25" gradientUnits="userSpaceOnUse">
<stop stop-color="#945DD6" stop-opacity="0"/>
<stop offset="1" stop-color="#7B61FF"/>
</linearGradient>
<linearGradient id="paint2_linear" x1="12.8125" y1="9.8125" x2="20.9375" y2="21.375" gradientUnits="userSpaceOnUse">
<stop stop-color="#13ADC7"/>
<stop offset="0.495393" stop-color="#7B61FF" stop-opacity="0"/>
<stop offset="1" stop-color="#F46737"/>
</linearGradient>
</defs>
</svg>
