<svg width="16" height="16" viewBox="0 0 16 16" fill="none" xmlns="http://www.w3.org/2000/svg">
<path d="M6.12969 1C5.35677 1 4.73151 1.62708 4.73151 2.4C4.73151 2.77005 4.87917 3.12734 5.13984 3.38984C5.40234 3.65234 5.75781 3.8 6.12969 3.8H7.52786V2.4C7.52786 1.62891 6.9026 1.00182 6.12969 1ZM6.12969 4.73333H2.39818C1.62526 4.73333 1 5.36042 1 6.13333C1 6.90625 1.62708 7.53333 2.39818 7.53333H6.12786C6.90078 7.53333 7.52604 6.90625 7.52604 6.13333C7.52786 5.36042 6.90078 4.73333 6.12969 4.73333ZM9.85938 7.53333C10.6323 7.53333 11.2594 6.90625 11.2576 6.13333V2.4C11.2576 1.62708 10.6323 1 9.85938 1C9.08646 1 8.4612 1.62708 8.4612 2.4V6.13333C8.4612 6.90807 9.08646 7.53333 9.85938 7.53333ZM14.9891 6.13333C14.9891 5.36042 14.362 4.73333 13.5909 4.73333C12.8198 4.73333 12.1927 5.36042 12.1927 6.13333V7.53333H13.5909C14.362 7.53333 14.9891 6.90625 14.9891 6.13333ZM13.5891 8.46667H9.85938C9.08646 8.46667 8.4612 9.09375 8.4612 9.86667C8.4612 10.2367 8.60885 10.594 8.86953 10.8565C9.13203 11.119 9.4875 11.2667 9.85938 11.2667H13.5891C14.362 11.2667 14.9872 10.6396 14.9872 9.86667C14.9891 9.09375 14.362 8.46849 13.5891 8.46667ZM9.85938 12.2H8.4612V13.6C8.4612 14.3729 9.08828 15 9.85938 15C10.6323 15 11.2594 14.3729 11.2576 13.6C11.2594 12.8271 10.6323 12.2018 9.85938 12.2ZM6.12969 8.46667C5.35677 8.46667 4.73151 9.09375 4.73151 9.86667V13.6C4.73151 14.3729 5.35859 15 6.12969 15C6.9026 15 7.52969 14.3729 7.52786 13.6V9.86667C7.52786 9.49661 7.38021 9.13932 7.11953 8.87682C6.85703 8.61432 6.49974 8.46667 6.12969 8.46667ZM1 9.86667C1 10.2367 1.14766 10.594 1.40833 10.8565C1.67083 11.119 2.0263 11.2667 2.39818 11.2667C3.17109 11.2667 3.79818 10.6396 3.79635 9.86667V8.46667H2.39818C1.62708 8.46667 1 9.09375 1 9.86667Z" fill="white"/>
</svg>
