<svg width="16" height="16" viewBox="0 0 16 16" fill="none" xmlns="http://www.w3.org/2000/svg">
<path d="M7.99436 15.0585L10.9384 5.99783H5.05029L7.99429 15.0585H7.99436Z" fill="#E24329"/>
<path d="M7.99426 15.0583L5.0502 5.99771H0.924316L7.99426 15.0583Z" fill="#FC6D26"/>
<path d="M0.924462 5.99771L0.0298373 8.75122C-0.00994042 8.87363 -0.00994591 9.00549 0.0298217 9.1279C0.0695892 9.25031 0.147088 9.35699 0.251212 9.43265L7.99439 15.0584L0.924399 5.99777L0.924462 5.99771Z" fill="#FCA326"/>
<path d="M0.924316 5.99776H5.05019L3.27713 0.540573C3.18588 0.25976 2.78863 0.259823 2.69744 0.540573L0.924316 5.99776Z" fill="#E24329"/>
<path d="M7.99432 15.0583L10.9383 5.99771H15.0643L7.99432 15.0583Z" fill="#FC6D26"/>
<path d="M15.0643 5.99771L15.9589 8.75122C15.9987 8.87363 15.9987 9.0055 15.9589 9.12791C15.9191 9.25032 15.8416 9.357 15.7375 9.43265L7.99438 15.0584L15.0643 5.99777V5.99771Z" fill="#FCA326"/>
<path d="M15.0643 5.99776H10.9384L12.7115 0.540573C12.8027 0.25976 13.2 0.259823 13.2912 0.540573L15.0643 5.99776Z" fill="#E24329"/>
</svg>
