<svg width="40" height="25" viewBox="0 0 40 25" fill="none" xmlns="http://www.w3.org/2000/svg">
<path d="M26.9618 10.3064L20.4611 24.6709C20.3521 24.8756 20.1998 24.9758 20.0036 24.9758H19.7345C19.5387 24.9758 19.386 24.8756 19.2774 24.6709L12.5057 9.61387L14.9182 5.28458C15.1532 5.28458 15.3055 5.38509 15.3753 5.58946L19.8121 15.7152H19.9777L24.4145 5.58946C24.484 5.38509 24.6363 5.28458 24.8717 5.28458L26.9618 10.3064Z" fill="#945DD6"/>
<path d="M26.9618 10.3064L24.4884 15.7706C23.3303 14.0429 22.7948 12.0655 22.7948 9.86701C22.7948 9.66253 22.7991 9.45804 22.8077 9.25356L24.4145 5.5913C24.484 5.38694 24.6363 5.28642 24.8717 5.28642L26.9618 10.3064ZM15.3273 15.8885L12.5057 9.61387L14.9182 5.28458C15.1532 5.28458 15.3055 5.38509 15.3753 5.58946L17.069 9.45607L17.0952 9.72621C17.2911 12.0252 16.603 14.0976 15.3273 15.8874V15.8885Z" fill="#71548F"/>
<path d="M26.2796 16.8246C24.3727 14.9173 23.5017 12.6017 23.5017 9.86702C23.5017 7.13234 24.3727 4.80749 26.2796 2.8825C28.1865 0.957507 30.4992 0 33.2117 0C35.7411 0 37.9284 0.847628 39.7734 2.54288C40.0476 2.80157 40.0565 3.05249 39.8037 3.30896L37.6877 5.5211C37.4526 5.73864 37.2262 5.73864 37.0084 5.5211C35.9764 4.59352 34.7558 4.12912 33.3466 4.12789C31.827 4.12789 30.5614 4.67938 29.5498 5.78237C28.5354 6.884 28.0912 8.20774 28.0912 9.75616C28.0912 11.2887 28.5394 12.595 29.5627 13.6793C30.586 14.7636 31.8539 15.3035 33.3728 15.3035C34.7835 15.3035 35.9954 14.8666 37.0084 13.9927C37.261 13.7751 37.4961 13.7839 37.7139 14.0189L39.83 16.2876C40.065 16.5271 40.0565 16.771 39.8037 17.0267C37.9927 18.7941 35.7953 19.678 33.2117 19.6782C30.4992 19.6782 28.1885 18.7262 26.2796 16.822V16.8246Z" fill="#F46737"/>
<path d="M0.000333727 19.1017V0.53548C-0.00219018 0.465595 0.00962317 0.395934 0.0350458 0.330788C0.0604685 0.265642 0.098962 0.206393 0.148154 0.15669C0.189488 0.107932 0.240874 0.0686861 0.298791 0.0416411C0.356708 0.0145961 0.419788 0.000391317 0.483707 0L7.01922 0C9.70143 0.195862 11.7 0.97968 13.5418 2.89543C15.3836 4.81119 16.1239 6.98858 16.3589 9.79311C16.5854 12.4842 15.5012 14.8223 13.6638 16.747C11.8263 18.6716 9.60571 19.638 7.01922 19.638H0.483707C0.41973 19.6375 0.356615 19.6232 0.298694 19.596C0.240774 19.5688 0.189419 19.5294 0.148154 19.4805C0.098962 19.4308 0.0604685 19.3716 0.0350458 19.3064C0.00962317 19.2413 -0.00219018 19.1716 0.000333727 19.1017ZM4.18033 5.04659V15.4842H6.74945C8.25229 15.4842 9.49904 14.937 10.4897 13.8427C11.4803 12.7483 11.975 11.3984 11.9738 9.79311C11.9738 8.20404 11.4775 6.8585 10.4893 5.765C9.50113 4.6715 8.25131 4.12345 6.74908 4.12345H4.18033V5.04733V5.04659Z" fill="#13ADC7"/>
</svg>
