<svg width="12" height="16" viewBox="0 0 12 16" fill="none" xmlns="http://www.w3.org/2000/svg">
<path d="M6.1 0C3.004 0 0.5 2.504 0.5 5.6C0.5 9.8 6.1 16 6.1 16C6.1 16 11.7 9.8 11.7 5.6C11.7 2.504 9.196 0 6.1 0ZM6.1 7.6C5.56957 7.6 5.06086 7.38929 4.68579 7.01421C4.31071 6.63914 4.1 6.13043 4.1 5.6C4.1 5.06957 4.31071 4.56086 4.68579 4.18579C5.06086 3.81071 5.56957 3.6 6.1 3.6C6.63043 3.6 7.13914 3.81071 7.51421 4.18579C7.88929 4.56086 8.1 5.06957 8.1 5.6C8.1 6.13043 7.88929 6.63914 7.51421 7.01421C7.13914 7.38929 6.63043 7.6 6.1 7.6Z" fill="#0F1624" fill-opacity="0.5"/>
</svg>
