<svg width="16" height="16" viewBox="0 0 16 16" fill="none" xmlns="http://www.w3.org/2000/svg">
<g clip-path="url(#clip0)">
<path fill-rule="evenodd" clip-rule="evenodd" d="M8 1C8.43571 1 8.86233 1.03891 9.27664 1.11323C9.57929 1.16752 9.7298 1.4986 9.7035 1.80496C9.69916 1.8556 9.69694 1.90685 9.69694 1.95863C9.69694 2.93851 10.4911 3.7329 11.4712 3.7329C11.8691 3.7329 12.2364 3.6019 12.5324 3.38065C12.7782 3.19686 13.1381 3.1508 13.3436 3.37881C13.9624 4.06528 14.4508 4.87168 14.7698 5.75886C14.8737 6.048 14.6622 6.34349 14.3839 6.47369C14.3377 6.4953 14.292 6.51908 14.247 6.54506C13.3985 7.035 13.1078 8.12025 13.5977 8.96883C13.797 9.31394 14.0948 9.56682 14.4351 9.71241C14.7173 9.83314 14.9374 10.1215 14.8427 10.4135C14.5513 11.3118 14.0878 12.1326 13.4913 12.8371C13.2928 13.0716 12.9311 13.0364 12.679 12.8607C12.6376 12.8319 12.5947 12.8046 12.5503 12.7789C11.7015 12.289 10.6165 12.5798 10.1265 13.4284C9.92741 13.7734 9.85724 14.1575 9.90115 14.5247C9.93763 14.8298 9.79756 15.165 9.49699 15.2287C9.01415 15.331 8.51344 15.385 8 15.385C7.56428 15.385 7.13765 15.3461 6.72334 15.2717C6.42069 15.2173 6.27025 14.8862 6.29651 14.5798C6.30085 14.5292 6.30306 14.4781 6.30306 14.4264C6.30306 13.4465 5.50888 12.6521 4.52879 12.6521C4.13077 12.6521 3.76352 12.7831 3.46762 13.0044C3.22176 13.1882 2.86185 13.2343 2.6563 13.0063C2.03745 12.3197 1.54896 11.5134 1.22991 10.6262C1.12591 10.3371 1.33747 10.0415 1.61586 9.91139C1.66215 9.88975 1.70789 9.86594 1.75297 9.83993C2.60154 9.34999 2.89219 8.26473 2.40225 7.41615C2.20298 7.07104 1.90517 6.81817 1.5649 6.67258C1.28271 6.55184 1.06262 6.26345 1.15732 5.97149C1.4487 5.07317 1.91216 4.25237 2.50868 3.54786C2.70724 3.31335 3.06894 3.34858 3.32102 3.5243C3.36237 3.55311 3.40527 3.58041 3.44969 3.60606C4.29848 4.096 5.38352 3.80514 5.87346 2.95657C6.07259 2.61156 6.14276 2.22752 6.09885 1.86024C6.06237 1.55516 6.20243 1.21999 6.50301 1.15629C6.98585 1.05397 7.48656 1 8 1ZM8 5.02489C9.74941 5.02489 11.1676 6.44308 11.1676 8.19249C11.1676 9.94191 9.74941 11.3601 8 11.3601C6.25058 11.3601 4.8324 9.94191 4.8324 8.19249C4.8324 6.44308 6.25058 5.02489 8 5.02489Z" fill="white"/>
</g>
<defs>
<clipPath id="clip0">
<rect width="16" height="16" fill="white"/>
</clipPath>
</defs>
</svg>
