<svg width="16" height="16" viewBox="0 0 16 16" fill="none" xmlns="http://www.w3.org/2000/svg">
<path fill-rule="evenodd" clip-rule="evenodd" d="M8 16C12.4183 16 16 12.4183 16 8C16 3.58172 12.4183 0 8 0C3.58172 0 0 3.58172 0 8C0 12.4183 3.58172 16 8 16ZM5.7072 11.7927C5.31668 12.1833 4.68351 12.1833 4.29299 11.7927L4.2072 11.707C3.81668 11.3164 3.81668 10.6833 4.2072 10.2927L6.32328 8.17666C6.42091 8.07903 6.42091 7.92074 6.32328 7.82311L4.20723 5.70705C3.8167 5.31653 3.8167 4.68336 4.20723 4.29284L4.29301 4.20705C4.68354 3.81653 5.3167 3.81653 5.70723 4.20705L7.82328 6.32311C7.92091 6.42074 8.0792 6.42074 8.17684 6.32311L10.293 4.20696C10.6835 3.81643 11.3167 3.81643 11.7072 4.20696L11.793 4.29274C12.1835 4.68327 12.1835 5.31643 11.793 5.70696L9.67684 7.82311C9.5792 7.92074 9.5792 8.07903 9.67684 8.17666L11.793 10.2928C12.1835 10.6834 12.1835 11.3165 11.793 11.7071L11.7072 11.7928C11.3167 12.1834 10.6835 12.1834 10.293 11.7928L8.17684 9.67666C8.0792 9.57903 7.92091 9.57903 7.82328 9.67666L5.7072 11.7927Z" fill="white"/>
</svg>
