<svg width="16" height="16" viewBox="0 0 16 16" fill="none" xmlns="http://www.w3.org/2000/svg">
<g clip-path="url(#clip0)">
<path d="M14.9618 3.84131C14.9729 3.56539 14.7483 3.34241 14.4724 3.32979C12.5042 3.23974 10.0954 2.60973 8.4885 1.0047C8.48822 1.00442 8.48806 1.00405 8.48806 1.00365V1.00271C8.48806 1.00173 8.48688 1.00135 8.48594 1.00165C8.48591 1.00166 8.48588 1.00167 8.48585 1.00168C8.48563 1.00173 8.4856 1.00183 8.48544 1.00167C8.4849 1.00113 8.48377 1.00131 8.48377 1.00208V1.00364C8.48377 1.00404 8.48361 1.00443 8.48333 1.00471C6.87722 2.60973 4.46773 3.23974 2.49943 3.32979C2.22358 3.34241 1.99896 3.56539 2.01007 3.84131C2.20315 8.63604 5.14521 12.7951 8.48329 14.9962C8.48361 14.9965 8.4838 14.9968 8.4838 14.9972V14.9979C8.4838 14.9987 8.48493 14.9989 8.48547 14.9983C8.48563 14.9982 8.48565 14.9983 8.48586 14.9983C8.48589 14.9983 8.48593 14.9983 8.48596 14.9983C8.48691 14.9986 8.48809 14.9983 8.48809 14.9973V14.9972C8.48809 14.9968 8.48828 14.9965 8.4886 14.9962C11.8275 12.7951 14.7688 8.63604 14.9618 3.84131Z" fill="#945DD6"/>
</g>
<defs>
<clipPath id="clip0">
<rect width="16" height="16" fill="white"/>
</clipPath>
</defs>
</svg>
