<svg width="40" height="24" viewBox="0 0 40 24" fill="none" xmlns="http://www.w3.org/2000/svg">
<path d="M11.4286 23.4286C17.7404 23.4286 22.619 18.0715 25.8333 14.9762V8.07147C16.7857 16.4048 14.979 18.4286 11.4286 18.4286C7.87817 18.4286 5 15.5504 5 12H0C0 18.3119 5.11675 23.4286 11.4286 23.4286Z" fill="#8669AC"/>
<path d="M11.4286 23.4286C17.7404 23.4286 22.619 18.0715 25.8333 14.9762V8.07147C16.7857 16.4048 14.979 18.4286 11.4286 18.4286C7.87817 18.4286 5 15.5504 5 12H0C0 18.3119 5.11675 23.4286 11.4286 23.4286Z" fill="url(#paint0_linear)"/>
<path d="M11.4286 0.571445C17.7404 0.571445 22.619 5.92859 25.8333 9.02383V15.9286C16.7857 7.59526 14.979 5.57145 11.4286 5.57145C7.87817 5.57145 5 8.44961 5 12H0C0 5.68819 5.11675 0.571445 11.4286 0.571445Z" fill="#8669AC"/>
<path d="M11.4286 0.571445C17.7404 0.571445 22.619 5.92859 25.8333 9.02383V15.9286C16.7857 7.59526 14.979 5.57145 11.4286 5.57145C7.87817 5.57145 5 8.44961 5 12H0C0 5.68819 5.11675 0.571445 11.4286 0.571445Z" fill="url(#paint1_linear)"/>
<path d="M11.4286 0.571472C5.11675 0.571472 0 5.68822 0 12C0 18.3119 5.11675 23.4286 11.4286 23.4286V18.4286C7.87817 18.4286 5 15.5504 5 12C5 8.44964 7.87817 5.57147 11.4286 5.57147V0.571472Z" fill="#27AFC8"/>
<path d="M11.4286 0.571472C5.11675 0.571472 0 5.68822 0 12C0 18.3119 5.11675 23.4286 11.4286 23.4286V18.4286C7.87817 18.4286 5 15.5504 5 12C5 8.44964 7.87817 5.57147 11.4286 5.57147V0.571472Z" fill="url(#paint2_linear)"/>
<path d="M40 12C40 7.92365 36.6955 4.61908 32.6191 4.61908C29.1667 4.61908 27.8572 6.28575 25.8334 8.07147L25.8334 14.9762C27.2619 13.6667 30.4762 9.61908 32.6191 9.61908C33.9341 9.61908 35 10.6851 35 12L40 12Z" fill="url(#paint3_linear)"/>
<path d="M40 12C40 16.0764 36.6955 19.381 32.6191 19.381C29.1667 19.381 27.8572 17.7143 25.8334 15.9286L25.8334 9.02383C27.2619 10.3334 30.4762 14.381 32.6191 14.381C33.9341 14.381 35 13.315 35 12L40 12Z" fill="url(#paint4_linear)"/>
<path d="M32.619 19.381C36.6954 19.381 40 16.0764 40 12C40 7.92364 36.6954 4.61908 32.619 4.61908V9.61908C33.934 9.61908 35 10.6851 35 12C35 13.315 33.934 14.381 32.619 14.381V19.381Z" fill="url(#paint5_linear)"/>
<defs>
<linearGradient id="paint0_linear" x1="6.19048" y1="17.3572" x2="24.0476" y2="13.4286" gradientUnits="userSpaceOnUse">
<stop offset="0.264498" stop-color="#6C4B9A"/>
<stop offset="0.704109" stop-color="#5C53BC"/>
<stop offset="0.985436" stop-color="#155C9D"/>
</linearGradient>
<linearGradient id="paint1_linear" x1="11.9048" y1="5.4524" x2="25.9524" y2="10.3334" gradientUnits="userSpaceOnUse">
<stop stop-color="#EB6237"/>
<stop offset="0.370218" stop-color="#E95962"/>
<stop offset="1" stop-color="#6E5CDE"/>
</linearGradient>
<linearGradient id="paint2_linear" x1="11.4286" y1="18.4286" x2="11.4286" y2="5.69052" gradientUnits="userSpaceOnUse">
<stop stop-color="#6B4898"/>
<stop offset="0.251771" stop-color="#884F82"/>
<stop offset="0.554757" stop-color="#AD5464"/>
<stop offset="0.804829" stop-color="#D65A44"/>
<stop offset="1" stop-color="#EB6136"/>
</linearGradient>
<linearGradient id="paint3_linear" x1="27.2619" y1="12.4762" x2="33.9286" y2="10.6905" gradientUnits="userSpaceOnUse">
<stop stop-color="#155C9D"/>
<stop offset="0.201687" stop-color="#1871B2"/>
<stop offset="0.342321" stop-color="#2281B7"/>
<stop offset="0.581426" stop-color="#259ACC"/>
<stop offset="0.755678" stop-color="#09AADD"/>
<stop offset="1" stop-color="#1DB9E8"/>
</linearGradient>
<linearGradient id="paint4_linear" x1="25.8334" y1="14.2024" x2="33.2143" y2="14.1429" gradientUnits="userSpaceOnUse">
<stop stop-color="#6E5CDE"/>
<stop offset="0.203274" stop-color="#5C72E1"/>
<stop offset="0.410033" stop-color="#588FE0"/>
<stop offset="0.759012" stop-color="#36B1E6"/>
<stop offset="1" stop-color="#1DB9E8"/>
</linearGradient>
<linearGradient id="paint5_linear" x1="32.619" y1="10.8096" x2="40" y2="10.8096" gradientUnits="userSpaceOnUse">
<stop stop-color="#23BAE8" stop-opacity="0"/>
<stop offset="0.417914" stop-color="#23D0E8" stop-opacity="0.38"/>
<stop offset="1" stop-color="#21D6EF"/>
</linearGradient>
</defs>
</svg>
