<svg width="22" height="22" viewBox="0 0 22 22" fill="none" xmlns="http://www.w3.org/2000/svg">
<path fill-rule="evenodd" clip-rule="evenodd" d="M1.20696 2.04274C0.816432 2.43327 0.816433 3.06643 1.20696 3.45696L8.57307 10.8231C8.6707 10.9207 8.6707 11.079 8.57307 11.1766L1.20696 18.5427C0.816432 18.9333 0.816431 19.5664 1.20696 19.957L2.04274 20.7927C2.43327 21.1833 3.06643 21.1833 3.45696 20.7927L10.8231 13.4266C10.9207 13.329 11.079 13.329 11.1766 13.4266L18.5427 20.7927C18.9333 21.1833 19.5664 21.1833 19.957 20.7927L20.7927 19.957C21.1833 19.5664 21.1833 18.9333 20.7927 18.5427L13.4266 11.1766C13.329 11.079 13.329 10.9207 13.4266 10.8231L20.7927 3.45696C21.1833 3.06643 21.1833 2.43327 20.7927 2.04274L19.957 1.20696C19.5664 0.816432 18.9333 0.816432 18.5427 1.20696L11.1766 8.57307C11.079 8.6707 10.9207 8.6707 10.8231 8.57307L3.45696 1.20696C3.06643 0.816432 2.43327 0.816431 2.04274 1.20696L1.20696 2.04274Z" fill="#0F1624" fill-opacity="0.5"/>
</svg>
