<svg width="33" height="32" viewBox="0 0 33 32" fill="none" xmlns="http://www.w3.org/2000/svg">
<path fill-rule="evenodd" clip-rule="evenodd" d="M7.36927 4H26.1307C26.5085 4.00097 26.8824 4.07633 27.231 4.22179C27.5797 4.36725 27.8962 4.57995 28.1627 4.84775C28.4291 5.11556 28.6402 5.43322 28.7839 5.7826C28.9275 6.13198 29.001 6.50623 29 6.884V32L25.9878 29.3385L24.2945 27.7705L22.5011 26.1038L23.2453 28.696H7.36927C5.78801 28.696 4.50001 27.408 4.50001 25.812V6.884C4.49904 6.50623 4.57249 6.13198 4.71616 5.7826C4.85983 5.43322 5.07091 5.11556 5.33734 4.84775C5.60378 4.57995 5.92035 4.36725 6.26899 4.22179C6.61763 4.07633 6.99151 4.00097 7.36927 4ZM19.8027 21.1478C20.2213 21.6827 20.7253 22.284 20.7253 22.284C23.7676 22.1869 24.9684 20.2242 25.0082 20.1591C25.0089 20.158 25.0093 20.1574 25.0093 20.1575C25.0093 15.6495 22.9933 11.9962 22.9933 11.9962C20.9787 10.4827 19.06 10.5255 19.06 10.5255L18.864 10.7495C21.244 11.4775 22.3507 12.5267 22.3507 12.5267C20.2053 11.3449 17.7369 10.8836 15.3095 11.2107C15.2404 11.2107 15.1804 11.2207 15.1145 11.2316C15.1003 11.234 15.0857 11.2364 15.0707 11.2387C14.58 11.2815 13.3907 11.4642 11.8935 12.1215C11.3762 12.3587 11.0667 12.5267 11.0667 12.5267C11.0667 12.5267 12.2295 11.4215 14.7495 10.692L14.6095 10.524C14.6095 10.524 12.6922 10.4813 10.6762 11.9947C10.6762 11.9947 8.66022 15.648 8.66022 20.156C8.66022 20.156 9.83475 22.1853 12.928 22.284C12.928 22.284 13.4467 21.6518 13.8667 21.1213C12.088 20.5893 11.416 19.4693 11.416 19.4693C11.416 19.4693 11.556 19.5665 11.808 19.7051C11.8238 19.7237 11.8434 19.7388 11.8655 19.7493C11.8848 19.7624 11.9041 19.7719 11.9236 19.7815C11.9457 19.7925 11.968 19.8035 11.9907 19.82C12.3196 20.0016 12.6609 20.1597 13.012 20.2931C13.6778 20.557 14.3665 20.7592 15.0693 20.8973C16.9712 21.2625 18.9387 21.0584 20.7253 20.3107C21.216 20.128 21.7613 19.8598 22.336 19.4825C22.336 19.4825 21.636 20.6291 19.8027 21.1478ZM12.7879 17.3013C12.7879 16.4465 13.4171 15.7465 14.2159 15.7465C15.0131 15.7465 15.6586 16.4451 15.6424 17.3013C15.6424 18.1531 15.0131 18.856 14.2159 18.856C13.4319 18.856 12.7879 18.1531 12.7879 17.3013ZM17.8986 17.3013C17.8986 16.4465 18.5279 15.7465 19.3266 15.7465C20.1239 15.7465 20.7517 16.4451 20.7531 17.3013C20.7531 18.1531 20.1239 18.856 19.3266 18.856C18.5426 18.856 17.8986 18.1531 17.8986 17.3013Z" fill="white"/>
</svg>
