<svg width="16" height="16" viewBox="0 0 16 16" fill="none" xmlns="http://www.w3.org/2000/svg">
<path fill-rule="evenodd" clip-rule="evenodd" d="M14.0086 3.29289C13.6181 2.90237 12.9849 2.90237 12.5944 3.29289L6.76732 9.11997C6.57206 9.31523 6.25548 9.31523 6.06022 9.11997L3.41217 6.47193C3.02166 6.08141 2.38851 6.0814 1.99798 6.47191L1.29291 7.17693C0.90237 7.56745 0.90236 8.20063 1.29289 8.59116L4.98849 12.2868C4.99278 12.2912 4.99712 12.2956 5.0015 12.3L5.70654 13.0051C5.87209 13.1706 6.08124 13.266 6.29703 13.2912C6.59035 13.3255 6.89596 13.2301 7.12101 13.0051L7.82607 12.3001C7.83134 12.2948 7.83653 12.2895 7.84166 12.2842L14.7137 5.41215C15.1042 5.02163 15.1042 4.38846 14.7137 3.99794L14.0086 3.29289Z" fill="white"/>
</svg>
