<svg width="16" height="16" viewBox="0 0 16 16" fill="none" xmlns="http://www.w3.org/2000/svg">
<g clip-path="url(#clip0)">
<path d="M6.08727 14.2876C5.81739 14.2291 5.64604 13.9629 5.70453 13.693L8.34991 1.48865C8.4084 1.21878 8.6746 1.04742 8.94448 1.10592L9.91109 1.31544C10.181 1.37393 10.3523 1.64013 10.2938 1.91001L7.64845 14.1144C7.58995 14.3843 7.32376 14.5556 7.05388 14.4971L6.08727 14.2876Z" fill="#F46737"/>
<path d="M4.13484 3.9738C3.92744 3.79153 3.61155 3.81188 3.42925 4.01926L0.290196 7.59014C0.124236 7.77893 0.124235 8.06158 0.290195 8.25037L3.42925 11.8213C3.61155 12.0286 3.92744 12.049 4.13484 11.8667L4.87745 11.2141C5.0849 11.0318 5.10525 10.7158 4.92289 10.5084L2.9377 8.2504C2.77171 8.0616 2.77171 7.77891 2.9377 7.59011L4.92289 5.33215C5.10525 5.12473 5.0849 4.80874 4.87745 4.62643L4.13484 3.9738Z" fill="#F46737"/>
<path d="M11.1226 4.62643C10.9151 4.80874 10.8947 5.12473 11.0771 5.33215L13.0623 7.59011C13.2283 7.77891 13.2283 8.0616 13.0623 8.2504L11.0771 10.5084C10.8947 10.7158 10.9151 11.0318 11.1226 11.2141L11.8652 11.8667C12.0726 12.049 12.3885 12.0286 12.5708 11.8213L15.7098 8.25037C15.8758 8.06158 15.8758 7.77893 15.7098 7.59014L12.5708 4.01926C12.3885 3.81188 12.0726 3.79153 11.8652 3.9738L11.1226 4.62643Z" fill="#F46737"/>
</g>
<defs>
<clipPath id="clip0">
<rect width="16" height="16" fill="white"/>
</clipPath>
</defs>
</svg>
