<svg width="16" height="16" viewBox="0 0 16 16" fill="none" xmlns="http://www.w3.org/2000/svg">
<path d="M14.7075 4.73274C14.5464 4.05069 14.072 3.51354 13.4697 3.33125C12.3779 3 8 3 8 3C8 3 3.6221 3 2.53029 3.33125C1.92795 3.51357 1.45356 4.05069 1.29254 4.73274C1 5.96898 1 8.54829 1 8.54829C1 8.54829 1 11.1276 1.29254 12.3638C1.45356 13.0459 1.92795 13.5607 2.53029 13.743C3.6221 14.0742 8 14.0742 8 14.0742C8 14.0742 12.3779 14.0742 13.4697 13.743C14.072 13.5607 14.5464 13.0459 14.7075 12.3638C15 11.1276 15 8.54829 15 8.54829C15 8.54829 15 5.96898 14.7075 4.73274ZM6.56817 10.8901V6.20647L10.2272 8.54835L6.56817 10.8901Z" fill="white"/>
</svg>
