<svg width="16" height="16" viewBox="0 0 16 16" fill="none" xmlns="http://www.w3.org/2000/svg">
<path d="M10.4999 5.29032C10.0905 2.76976 9.12502 1 8.00141 1C6.8778 1 5.91228 2.76976 5.50292 5.29032H10.4999ZM5.29119 8C5.29119 8.62661 5.32507 9.22782 5.38435 9.80645H10.6156C10.6749 9.22782 10.7088 8.62661 10.7088 8C10.7088 7.37339 10.6749 6.77218 10.6156 6.19355H5.38435C5.32507 6.77218 5.29119 7.37339 5.29119 8ZM14.458 5.29032C13.6505 3.37379 12.0159 1.89194 9.99738 1.29355C10.6862 2.24758 11.1605 3.68427 11.409 5.29032H14.458ZM6.00262 1.29355C3.98689 1.89194 2.34947 3.37379 1.54487 5.29032H4.59387C4.83948 3.68427 5.31377 2.24758 6.00262 1.29355ZM14.76 6.19355H11.5219C11.5812 6.78629 11.615 7.39315 11.615 8C11.615 8.60685 11.5812 9.21371 11.5219 9.80645H14.7572C14.9125 9.22782 15 8.62661 15 8C15 7.37339 14.9125 6.77218 14.76 6.19355ZM4.38778 8C4.38778 7.39315 4.42166 6.78629 4.48094 6.19355H1.24279C1.09034 6.77218 1 7.37339 1 8C1 8.62661 1.09034 9.22782 1.24279 9.80645H4.47812C4.42166 9.21371 4.38778 8.60685 4.38778 8ZM5.50292 10.7097C5.91228 13.2302 6.8778 15 8.00141 15C9.12502 15 10.0905 13.2302 10.4999 10.7097H5.50292ZM10.0002 14.7065C12.0159 14.1081 13.6534 12.6262 14.4608 10.7097H11.4118C11.1633 12.3157 10.689 13.7524 10.0002 14.7065ZM1.54487 10.7097C2.35229 12.6262 3.98689 14.1081 6.00544 14.7065C5.3166 13.7524 4.84231 12.3157 4.59387 10.7097H1.54487Z" fill="white"/>
</svg>
