<svg width="109" height="22" viewBox="0 0 109 22" fill="none" xmlns="http://www.w3.org/2000/svg">
<path d="M0.800018 20.8726H5.8182V6.90892H0.800018V20.8726ZM3.30911 5.45438C4.67275 5.45438 5.78184 4.4271 5.78184 3.16347C5.78184 1.89983 4.67275 0.872559 3.30911 0.872559C1.94547 0.872559 0.836382 1.89983 0.836382 3.16347C0.836382 4.4271 1.94547 5.45438 3.30911 5.45438Z" fill="white"/>
<path d="M16.9583 6.90892H14.5583V3.56347H9.54011V6.90892H7.75829V10.5453H9.54011V16.8544C9.50375 19.7816 11.3128 21.2635 14.7765 21.0726C15.9128 21.0089 16.7583 20.7726 17.2128 20.6362L16.4856 17.1089C16.2947 17.1544 15.8037 17.2544 15.5037 17.2544C14.8492 17.2544 14.5583 16.9635 14.5583 16.3816V10.5453H16.9583V6.90892Z" fill="white"/>
<path d="M25.8029 21.1271C29.6757 21.1271 32.1666 19.2726 32.6393 16.3635H28.0575C27.7666 17.1544 26.9393 17.5998 25.912 17.5998C24.4211 17.5998 23.5484 16.618 23.5484 15.2726V15.0544H32.6393V13.8907C32.6393 9.44529 29.912 6.7271 25.6938 6.7271C21.3666 6.7271 18.6029 9.59983 18.6029 13.9271C18.6029 18.4453 21.3302 21.1271 25.8029 21.1271ZM23.5484 12.2907C23.5757 11.0816 24.5757 10.2544 25.8029 10.2544C27.0484 10.2544 27.9938 11.0907 28.0211 12.2907H23.5484Z" fill="white"/>
<path d="M34.943 20.8726H39.9612V13.5998C39.9612 11.9998 41.0612 10.9453 42.543 10.9453C43.0612 10.9453 43.8976 11.0271 44.3976 11.1998V6.91801C43.9976 6.79983 43.5612 6.7271 43.1248 6.7271C41.6339 6.7271 40.4703 7.59983 39.9612 9.56347H39.8157V6.90892H34.943V20.8726Z" fill="white"/>
<path d="M49.5399 21.0907C51.3581 21.0907 52.7308 20.4726 53.5763 18.9089H53.6854V20.8726H58.3763V11.3089C58.3763 8.7271 55.9308 6.7271 51.9399 6.7271C47.7672 6.7271 45.7127 8.90892 45.5399 11.4544H50.1581C50.2763 10.5907 50.9127 10.1816 51.8672 10.1816C52.7399 10.1816 53.3581 10.5816 53.3581 11.3089V11.3453C53.3581 12.1544 52.4672 12.4089 50.1217 12.5816C47.2399 12.7907 44.9945 13.9544 44.9945 17.018C44.9945 19.7998 46.8672 21.0907 49.5399 21.0907ZM51.1763 17.9271C50.3217 17.9271 49.7217 17.5089 49.7217 16.7271C49.7217 16.0089 50.2308 15.4544 51.3945 15.2726C52.1945 15.1453 52.8672 14.9816 53.3945 14.7635V15.9271C53.3945 17.1998 52.3127 17.9271 51.1763 17.9271Z" fill="white"/>
<path d="M69.3573 6.90892H66.9573V3.56347H61.9391V6.90892H60.1573V10.5453H61.9391V16.8544C61.9027 19.7816 63.7118 21.2635 67.1755 21.0726C68.3118 21.0089 69.1573 20.7726 69.6118 20.6362L68.8846 17.1089C68.6936 17.1544 68.2027 17.2544 67.9027 17.2544C67.2482 17.2544 66.9573 16.9635 66.9573 16.3816V10.5453H69.3573V6.90892Z" fill="white"/>
<path d="M71.661 20.8726H76.6792V6.90892H71.661V20.8726ZM74.1701 5.45438C75.5337 5.45438 76.6428 4.4271 76.6428 3.16347C76.6428 1.89983 75.5337 0.872559 74.1701 0.872559C72.8065 0.872559 71.6974 1.89983 71.6974 3.16347C71.6974 4.4271 72.8065 5.45438 74.1701 5.45438Z" fill="white"/>
<path d="M93.5647 6.90892H88.292L86.0375 16.1453H85.892L83.6375 6.90892H78.3647L83.0556 20.8726H88.8738L93.5647 6.90892Z" fill="white"/>
<path d="M101.514 21.1271C105.387 21.1271 107.878 19.2726 108.35 16.3635H103.768C103.478 17.1544 102.65 17.5998 101.623 17.5998C100.132 17.5998 99.2594 16.618 99.2594 15.2726V15.0544H108.35V13.8907C108.35 9.44529 105.623 6.7271 101.405 6.7271C97.0776 6.7271 94.3139 9.59983 94.3139 13.9271C94.3139 18.4453 97.0412 21.1271 101.514 21.1271ZM99.2594 12.2907C99.2867 11.0816 100.287 10.2544 101.514 10.2544C102.759 10.2544 103.705 11.0907 103.732 12.2907H99.2594Z" fill="white"/>
</svg>
