<svg width="20" height="20" viewBox="0 0 20 20" fill="none" xmlns="http://www.w3.org/2000/svg">
<path d="M4.86487 19.5H0.822098V6.48085H4.86487V19.5ZM2.84131 4.70492C1.54856 4.70492 0.5 3.63413 0.5 2.34136C0.5 1.72039 0.746673 1.12486 1.18575 0.685768C1.62483 0.246678 2.22035 0 2.84131 0C3.46226 0 4.05778 0.246678 4.49686 0.685768C4.93594 1.12486 5.18261 1.72039 5.18261 2.34136C5.18261 3.63413 4.13362 4.70492 2.84131 4.70492ZM19.9956 19.5H15.9616V13.1624C15.9616 11.6519 15.9311 9.71496 13.8597 9.71496C11.7578 9.71496 11.4357 11.356 11.4357 13.0535V19.5H7.39725V6.48085H11.2746V8.25678H11.3312C11.8709 7.23388 13.1894 6.15439 15.1563 6.15439C19.2479 6.15439 20 8.84876 20 12.3484V19.5H19.9956Z" fill="white"/>
</svg>
