<svg width="191" height="40" viewBox="0 0 191 40" fill="none" xmlns="http://www.w3.org/2000/svg">
<path fill-rule="evenodd" clip-rule="evenodd" d="M14.6847 8.60997C14.2653 8.19061 13.5854 8.19061 13.166 8.60997L8.60998 13.166C8.19061 13.5854 8.19061 14.2653 8.60998 14.6847L25.3154 31.39C25.7347 31.8094 26.4147 31.8094 26.834 31.39L31.39 26.834C31.8094 26.4146 31.8094 25.7347 31.39 25.3153L14.6847 8.60997ZM5.57263 10.1286C3.47579 12.2255 3.47579 15.6251 5.57263 17.722L22.278 34.4274C24.3749 36.5242 27.7745 36.5242 29.8714 34.4274L34.4274 29.8714C36.5242 27.7745 36.5242 24.3749 34.4274 22.278L17.722 5.57263C15.6252 3.47579 12.2255 3.47579 10.1286 5.57263L5.57263 10.1286Z" fill="url(#paint0_linear)"/>
<path d="M31.39 14.6847C31.8094 14.2653 31.8094 13.5854 31.39 13.166L26.834 8.60997C26.4147 8.19061 25.7347 8.19061 25.3154 8.60997L23.0452 10.8801L20.0079 7.84275L22.278 5.57263C24.3749 3.47579 27.7745 3.47579 29.8714 5.57263L34.4274 10.1286C36.5242 12.2255 36.5242 15.6251 34.4274 17.722L23.0294 29.1199L19.9921 26.0826L31.39 14.6847Z" fill="url(#paint1_linear)"/>
<path d="M16.9547 29.1199L14.6847 31.39C14.2653 31.8094 13.5854 31.8094 13.166 31.39L8.60998 26.834C8.19061 26.4146 8.19061 25.7347 8.60998 25.3153L20.0079 13.9174L16.9706 10.8801L5.57263 22.278C3.47579 24.3749 3.47579 27.7745 5.57263 29.8714L10.1286 34.4274C12.2255 36.5242 15.6252 36.5242 17.722 34.4274L19.9921 32.1573L16.9547 29.1199Z" fill="url(#paint2_linear)"/>
<path d="M20 32.1757L16.1256 29.9754L16.9626 29.1383L20 32.1757Z" fill="url(#paint3_radial)" fill-opacity="0.4" style="mix-blend-mode:multiply"/>
<path d="M20 13.9516L16.1476 11.7293L16.9626 10.9143L20 13.9516Z" fill="url(#paint4_radial)" fill-opacity="0.4" style="mix-blend-mode:multiply"/>
<path d="M23.0373 10.9143L23.9006 10.051L20 7.87695L23.0373 10.9143Z" fill="url(#paint5_radial)" fill-opacity="0.4" style="mix-blend-mode:multiply"/>
<path d="M23.8845 28.2912L20 26.101L23.0373 29.1383L23.8845 28.2912Z" fill="url(#paint6_radial)" fill-opacity="0.4" style="mix-blend-mode:multiply"/>
<path d="M7.85059 20.0001L10.0509 16.1257L10.8879 16.9627L7.85059 20.0001Z" fill="url(#paint7_radial)" fill-opacity="0.4" style="mix-blend-mode:multiply"/>
<path d="M26.0746 20.0001L28.297 16.1477L29.112 16.9627L26.0746 20.0001Z" fill="url(#paint8_radial)" fill-opacity="0.4" style="mix-blend-mode:multiply"/>
<path d="M29.112 23.0374L29.9753 23.9007L32.1493 20.0001L29.112 23.0374Z" fill="url(#paint9_radial)" fill-opacity="0.4" style="mix-blend-mode:multiply"/>
<path d="M11.7351 23.8846L13.9253 20L10.8879 23.0374L11.7351 23.8846Z" fill="url(#paint10_radial)" fill-opacity="0.4" style="mix-blend-mode:multiply"/>
<path d="M56 32.3408H62.2727V14.8863H56V32.3408ZM59.1364 13.0681C60.8409 13.0681 62.2273 11.784 62.2273 10.2045C62.2273 8.62491 60.8409 7.34082 59.1364 7.34082C57.4318 7.34082 56.0455 8.62491 56.0455 10.2045C56.0455 11.784 57.4318 13.0681 59.1364 13.0681Z" fill="white"/>
<path d="M76.1978 14.8863H73.1978V10.7045H66.9251V14.8863H64.6978V19.4317H66.9251V27.3181C66.8797 30.9772 69.141 32.8295 73.4706 32.5908C74.891 32.5113 75.9478 32.2158 76.516 32.0454L75.6069 27.6363C75.3683 27.6931 74.7547 27.8181 74.3797 27.8181C73.5615 27.8181 73.1978 27.4545 73.1978 26.7272V19.4317H76.1978V14.8863Z" fill="white"/>
<path d="M87.2536 32.659C92.0945 32.659 95.2082 30.3408 95.7991 26.7045H90.0718C89.7082 27.6931 88.6741 28.2499 87.39 28.2499C85.5264 28.2499 84.4355 27.0226 84.4355 25.3408V25.0681H95.7991V23.6135C95.7991 18.0567 92.39 14.659 87.1173 14.659C81.7082 14.659 78.2536 18.2499 78.2536 23.659C78.2536 29.3067 81.6627 32.659 87.2536 32.659ZM84.4355 21.6135C84.4695 20.1022 85.7195 19.0681 87.2536 19.0681C88.8105 19.0681 89.9923 20.1135 90.0264 21.6135H84.4355Z" fill="white"/>
<path d="M98.6787 32.3408H104.951V23.2499C104.951 21.2499 106.326 19.9317 108.179 19.9317C108.826 19.9317 109.872 20.034 110.497 20.2499V14.8976C109.997 14.7499 109.451 14.659 108.906 14.659C107.042 14.659 105.588 15.7499 104.951 18.2045H104.77V14.8863H98.6787V32.3408Z" fill="white"/>
<path d="M116.925 32.6135C119.198 32.6135 120.914 31.8408 121.97 29.8863H122.107V32.3408H127.97V20.3863C127.97 17.159 124.914 14.659 119.925 14.659C114.709 14.659 112.141 17.3863 111.925 20.5681H117.698C117.845 19.4885 118.641 18.9772 119.834 18.9772C120.925 18.9772 121.698 19.4772 121.698 20.3863V20.4317C121.698 21.4431 120.584 21.7613 117.652 21.9772C114.05 22.2385 111.243 23.6931 111.243 27.5226C111.243 30.9999 113.584 32.6135 116.925 32.6135ZM118.97 28.659C117.902 28.659 117.152 28.1363 117.152 27.159C117.152 26.2613 117.789 25.5681 119.243 25.3408C120.243 25.1817 121.084 24.9772 121.743 24.7045V26.159C121.743 27.7499 120.391 28.659 118.97 28.659Z" fill="white"/>
<path d="M141.697 14.8863H138.697V10.7045H132.424V14.8863H130.197V19.4317H132.424V27.3181C132.378 30.9772 134.64 32.8295 138.969 32.5908C140.39 32.5113 141.447 32.2158 142.015 32.0454L141.106 27.6363C140.867 27.6931 140.253 27.8181 139.878 27.8181C139.06 27.8181 138.697 27.4545 138.697 26.7272V19.4317H141.697V14.8863Z" fill="white"/>
<path d="M144.576 32.3408H150.849V14.8863H144.576V32.3408ZM147.713 13.0681C149.417 13.0681 150.804 11.784 150.804 10.2045C150.804 8.62491 149.417 7.34082 147.713 7.34082C146.008 7.34082 144.622 8.62491 144.622 10.2045C144.622 11.784 146.008 13.0681 147.713 13.0681Z" fill="white"/>
<path d="M171.956 14.8863H165.365L162.547 26.4317H162.365L159.547 14.8863H152.956L158.82 32.3408H166.092L171.956 14.8863Z" fill="white"/>
<path d="M181.892 32.659C186.733 32.659 189.847 30.3408 190.438 26.7045H184.711C184.347 27.6931 183.313 28.2499 182.029 28.2499C180.165 28.2499 179.074 27.0226 179.074 25.3408V25.0681H190.438V23.6135C190.438 18.0567 187.029 14.659 181.756 14.659C176.347 14.659 172.892 18.2499 172.892 23.659C172.892 29.3067 176.301 32.659 181.892 32.659ZM179.074 21.6135C179.108 20.1022 180.358 19.0681 181.892 19.0681C183.449 19.0681 184.631 20.1135 184.665 21.6135H179.074Z" fill="white"/>
<defs>
<linearGradient id="paint0_linear" x1="10.5714" y1="10.8571" x2="29.1429" y2="28.8572" gradientUnits="userSpaceOnUse">
<stop stop-color="#13ADC7"/>
<stop offset="0.479167" stop-color="#4685D9"/>
<stop offset="1" stop-color="#945DD6"/>
</linearGradient>
<linearGradient id="paint1_linear" x1="28.2857" y1="11.1429" x2="10" y2="28.8571" gradientUnits="userSpaceOnUse">
<stop stop-color="#F46737"/>
<stop offset="0.5" stop-color="#D94D81"/>
<stop offset="1" stop-color="#945DD6"/>
</linearGradient>
<linearGradient id="paint2_linear" x1="28.2857" y1="11.1429" x2="10" y2="28.8571" gradientUnits="userSpaceOnUse">
<stop stop-color="#F46737"/>
<stop offset="0.5" stop-color="#D94D81"/>
<stop offset="1" stop-color="#945DD6"/>
</linearGradient>
<radialGradient id="paint3_radial" cx="0" cy="0" r="1" gradientUnits="userSpaceOnUse" gradientTransform="translate(20 20.0001) rotate(90) scale(14.2857)">
<stop offset="0.137737" stop-color="#0E131F" stop-opacity="0"/>
<stop offset="0.486973" stop-color="#0E131F" stop-opacity="0.48"/>
<stop offset="0.883198" stop-color="#0E131F" stop-opacity="0"/>
</radialGradient>
<radialGradient id="paint4_radial" cx="0" cy="0" r="1" gradientUnits="userSpaceOnUse" gradientTransform="translate(20 20.0001) rotate(90) scale(14.2857)">
<stop offset="0.137737" stop-color="#0E131F" stop-opacity="0"/>
<stop offset="0.486973" stop-color="#0E131F" stop-opacity="0.48"/>
<stop offset="0.883198" stop-color="#0E131F" stop-opacity="0"/>
</radialGradient>
<radialGradient id="paint5_radial" cx="0" cy="0" r="1" gradientUnits="userSpaceOnUse" gradientTransform="translate(20 20.0001) rotate(90) scale(14.2857)">
<stop offset="0.137737" stop-color="#0E131F" stop-opacity="0"/>
<stop offset="0.486973" stop-color="#0E131F" stop-opacity="0.48"/>
<stop offset="0.883198" stop-color="#0E131F" stop-opacity="0"/>
</radialGradient>
<radialGradient id="paint6_radial" cx="0" cy="0" r="1" gradientUnits="userSpaceOnUse" gradientTransform="translate(20 20.0001) rotate(90) scale(14.2857)">
<stop offset="0.137737" stop-color="#0E131F" stop-opacity="0"/>
<stop offset="0.486973" stop-color="#0E131F" stop-opacity="0.48"/>
<stop offset="0.883198" stop-color="#0E131F" stop-opacity="0"/>
</radialGradient>
<radialGradient id="paint7_radial" cx="0" cy="0" r="1" gradientUnits="userSpaceOnUse" gradientTransform="translate(20 20.0001) rotate(90) scale(14.2857)">
<stop offset="0.137737" stop-color="#0E131F" stop-opacity="0"/>
<stop offset="0.486973" stop-color="#0E131F" stop-opacity="0.48"/>
<stop offset="0.883198" stop-color="#0E131F" stop-opacity="0"/>
</radialGradient>
<radialGradient id="paint8_radial" cx="0" cy="0" r="1" gradientUnits="userSpaceOnUse" gradientTransform="translate(20 20.0001) rotate(90) scale(14.2857)">
<stop offset="0.137737" stop-color="#0E131F" stop-opacity="0"/>
<stop offset="0.486973" stop-color="#0E131F" stop-opacity="0.48"/>
<stop offset="0.883198" stop-color="#0E131F" stop-opacity="0"/>
</radialGradient>
<radialGradient id="paint9_radial" cx="0" cy="0" r="1" gradientUnits="userSpaceOnUse" gradientTransform="translate(20 20.0001) rotate(90) scale(14.2857)">
<stop offset="0.137737" stop-color="#0E131F" stop-opacity="0"/>
<stop offset="0.486973" stop-color="#0E131F" stop-opacity="0.48"/>
<stop offset="0.883198" stop-color="#0E131F" stop-opacity="0"/>
</radialGradient>
<radialGradient id="paint10_radial" cx="0" cy="0" r="1" gradientUnits="userSpaceOnUse" gradientTransform="translate(20 20.0001) rotate(90) scale(14.2857)">
<stop offset="0.137737" stop-color="#0E131F" stop-opacity="0"/>
<stop offset="0.486973" stop-color="#0E131F" stop-opacity="0.48"/>
<stop offset="0.883198" stop-color="#0E131F" stop-opacity="0"/>
</radialGradient>
</defs>
</svg>
