<svg width="153" height="32" viewBox="0 0 153 32" fill="none" xmlns="http://www.w3.org/2000/svg">
<path fill-rule="evenodd" clip-rule="evenodd" d="M11.7479 6.88793C11.4124 6.55244 10.8685 6.55244 10.533 6.88793L6.88818 10.5327C6.55268 10.8682 6.55268 11.4122 6.88818 11.7477L20.2525 25.112C20.588 25.4475 21.1319 25.4475 21.4674 25.112L25.1122 21.4672C25.4477 21.1317 25.4477 20.5877 25.1122 20.2522L11.7479 6.88793ZM4.4583 8.10287C2.78083 9.78034 2.78083 12.5001 4.4583 14.1775L17.8226 27.5418C19.5001 29.2193 22.2198 29.2193 23.8973 27.5418L27.5421 23.897C29.2196 22.2196 29.2196 19.4998 27.5421 17.8224L14.1778 4.45806C12.5003 2.78058 9.78059 2.78058 8.10311 4.45806L4.4583 8.10287Z" fill="url(#paint0_linear)"/>
<path d="M25.1122 11.7477C25.4477 11.4122 25.4477 10.8682 25.1122 10.5327L21.4674 6.88793C21.1319 6.55244 20.588 6.55244 20.2525 6.88793L18.4364 8.70402L16.0065 6.27415L17.8226 4.45806C19.5001 2.78058 22.2198 2.78058 23.8973 4.45806L27.5421 8.10287C29.2196 9.78034 29.2196 12.5001 27.5421 14.1775L18.4237 23.2959L15.9939 20.866L25.1122 11.7477Z" fill="url(#paint1_linear)"/>
<path d="M13.564 23.2959L11.7479 25.112C11.4124 25.4475 10.8685 25.4475 10.533 25.112L6.88818 21.4672C6.55268 21.1317 6.55268 20.5877 6.88818 20.2522L16.0065 11.1339L13.5766 8.70402L4.4583 17.8224C2.78083 19.4998 2.78083 22.2196 4.4583 23.897L8.10311 27.5418C9.78059 29.2193 12.5003 29.2193 14.1778 27.5418L15.9939 25.7258L13.564 23.2959Z" fill="url(#paint2_linear)"/>
<path d="M15.9998 25.7405L12.9003 23.9803L13.5699 23.3106L15.9998 25.7405Z" fill="url(#paint3_radial)" fill-opacity="0.4" style="mix-blend-mode:multiply"/>
<path d="M15.9998 11.1613L12.9179 9.38339L13.5699 8.73139L15.9998 11.1613Z" fill="url(#paint4_radial)" fill-opacity="0.4" style="mix-blend-mode:multiply"/>
<path d="M18.4297 8.73139L19.1203 8.04075L15.9998 6.30151L18.4297 8.73139Z" fill="url(#paint5_radial)" fill-opacity="0.4" style="mix-blend-mode:multiply"/>
<path d="M19.1074 22.6329L15.9998 20.8808L18.4297 23.3106L19.1074 22.6329Z" fill="url(#paint6_radial)" fill-opacity="0.4" style="mix-blend-mode:multiply"/>
<path d="M6.28027 16L8.04053 12.9005L8.71016 13.5701L6.28027 16Z" fill="url(#paint7_radial)" fill-opacity="0.4" style="mix-blend-mode:multiply"/>
<path d="M20.8595 16L22.6374 12.9181L23.2894 13.5701L20.8595 16Z" fill="url(#paint8_radial)" fill-opacity="0.4" style="mix-blend-mode:multiply"/>
<path d="M23.2894 18.4299L23.98 19.1205L25.7193 16L23.2894 18.4299Z" fill="url(#paint9_radial)" fill-opacity="0.4" style="mix-blend-mode:multiply"/>
<path d="M9.38791 19.1076L11.14 16L8.71016 18.4299L9.38791 19.1076Z" fill="url(#paint10_radial)" fill-opacity="0.4" style="mix-blend-mode:multiply"/>
<path d="M44.7998 25.8728H49.818V11.9092H44.7998V25.8728ZM47.3089 10.4546C48.6725 10.4546 49.7816 9.42735 49.7816 8.16371C49.7816 6.90007 48.6725 5.8728 47.3089 5.8728C45.9453 5.8728 44.8362 6.90007 44.8362 8.16371C44.8362 9.42735 45.9453 10.4546 47.3089 10.4546Z" fill="white"/>
<path d="M60.9581 11.9092H58.5581V8.56371H53.5399V11.9092H51.7581V15.5455H53.5399V21.8546C53.5035 24.7819 55.3126 26.2637 58.7763 26.0728C59.9126 26.0092 60.7581 25.7728 61.2126 25.6364L60.4853 22.1092C60.2944 22.1546 59.8035 22.2546 59.5035 22.2546C58.849 22.2546 58.5581 21.9637 58.5581 21.3819V15.5455H60.9581V11.9092Z" fill="white"/>
<path d="M69.8027 26.1273C73.6754 26.1273 76.1663 24.2728 76.6391 21.3637H72.0573C71.7663 22.1546 70.9391 22.6001 69.9118 22.6001C68.4209 22.6001 67.5482 21.6183 67.5482 20.2728V20.0546H76.6391V18.891C76.6391 14.4455 73.9118 11.7273 69.6936 11.7273C65.3663 11.7273 62.6027 14.6001 62.6027 18.9273C62.6027 23.4455 65.33 26.1273 69.8027 26.1273ZM67.5482 17.291C67.5754 16.0819 68.5754 15.2546 69.8027 15.2546C71.0482 15.2546 71.9936 16.091 72.0209 17.291H67.5482Z" fill="white"/>
<path d="M78.9428 25.8728H83.961V18.6001C83.961 17.0001 85.061 15.9455 86.5428 15.9455C87.061 15.9455 87.8973 16.0273 88.3973 16.2001V11.9183C87.9973 11.8001 87.561 11.7273 87.1246 11.7273C85.6337 11.7273 84.4701 12.6001 83.961 14.5637H83.8155V11.9092H78.9428V25.8728Z" fill="white"/>
<path d="M93.5397 26.091C95.3579 26.091 96.7306 25.4728 97.5761 23.9092H97.6852V25.8728H102.376V16.3092C102.376 13.7273 99.9306 11.7273 95.9397 11.7273C91.767 11.7273 89.7124 13.9092 89.5397 16.4546H94.1579C94.2761 15.591 94.9124 15.1819 95.867 15.1819C96.7397 15.1819 97.3579 15.5819 97.3579 16.3092V16.3455C97.3579 17.1546 96.467 17.4092 94.1215 17.5819C91.2397 17.791 88.9943 18.9546 88.9943 22.0183C88.9943 24.8001 90.867 26.091 93.5397 26.091ZM95.1761 22.9273C94.3215 22.9273 93.7215 22.5092 93.7215 21.7273C93.7215 21.0092 94.2306 20.4546 95.3943 20.2728C96.1943 20.1455 96.867 19.9819 97.3943 19.7637V20.9273C97.3943 22.2001 96.3124 22.9273 95.1761 22.9273Z" fill="white"/>
<path d="M113.357 11.9092H110.957V8.56371H105.939V11.9092H104.157V15.5455H105.939V21.8546C105.903 24.7819 107.712 26.2637 111.175 26.0728C112.312 26.0092 113.157 25.7728 113.612 25.6364L112.884 22.1092C112.693 22.1546 112.203 22.2546 111.903 22.2546C111.248 22.2546 110.957 21.9637 110.957 21.3819V15.5455H113.357V11.9092Z" fill="white"/>
<path d="M115.661 25.8728H120.679V11.9092H115.661V25.8728ZM118.17 10.4546C119.534 10.4546 120.643 9.42735 120.643 8.16371C120.643 6.90007 119.534 5.8728 118.17 5.8728C116.806 5.8728 115.697 6.90007 115.697 8.16371C115.697 9.42735 116.806 10.4546 118.17 10.4546Z" fill="white"/>
<path d="M137.565 11.9092H132.292L130.037 21.1455H129.892L127.637 11.9092H122.365L127.055 25.8728H132.874L137.565 11.9092Z" fill="white"/>
<path d="M145.514 26.1273C149.386 26.1273 151.877 24.2728 152.35 21.3637H147.768C147.477 22.1546 146.65 22.6001 145.623 22.6001C144.132 22.6001 143.259 21.6183 143.259 20.2728V20.0546H152.35V18.891C152.35 14.4455 149.623 11.7273 145.405 11.7273C141.077 11.7273 138.314 14.6001 138.314 18.9273C138.314 23.4455 141.041 26.1273 145.514 26.1273ZM143.259 17.291C143.286 16.0819 144.286 15.2546 145.514 15.2546C146.759 15.2546 147.705 16.091 147.732 17.291H143.259Z" fill="white"/>
<defs>
<linearGradient id="paint0_linear" x1="8.45734" y1="8.68567" x2="23.3145" y2="23.0857" gradientUnits="userSpaceOnUse">
<stop stop-color="#13ADC7"/>
<stop offset="0.479167" stop-color="#4685D9"/>
<stop offset="1" stop-color="#945DD6"/>
</linearGradient>
<linearGradient id="paint1_linear" x1="22.6288" y1="8.91423" x2="8.0002" y2="23.0857" gradientUnits="userSpaceOnUse">
<stop stop-color="#F46737"/>
<stop offset="0.5" stop-color="#D94D81"/>
<stop offset="1" stop-color="#945DD6"/>
</linearGradient>
<linearGradient id="paint2_linear" x1="22.6288" y1="8.91423" x2="8.0002" y2="23.0857" gradientUnits="userSpaceOnUse">
<stop stop-color="#F46737"/>
<stop offset="0.5" stop-color="#D94D81"/>
<stop offset="1" stop-color="#945DD6"/>
</linearGradient>
<radialGradient id="paint3_radial" cx="0" cy="0" r="1" gradientUnits="userSpaceOnUse" gradientTransform="translate(15.9998 16) rotate(90) scale(11.4286)">
<stop offset="0.137737" stop-color="#0E131F" stop-opacity="0"/>
<stop offset="0.486973" stop-color="#0E131F" stop-opacity="0.48"/>
<stop offset="0.883198" stop-color="#0E131F" stop-opacity="0"/>
</radialGradient>
<radialGradient id="paint4_radial" cx="0" cy="0" r="1" gradientUnits="userSpaceOnUse" gradientTransform="translate(15.9998 16) rotate(90) scale(11.4286)">
<stop offset="0.137737" stop-color="#0E131F" stop-opacity="0"/>
<stop offset="0.486973" stop-color="#0E131F" stop-opacity="0.48"/>
<stop offset="0.883198" stop-color="#0E131F" stop-opacity="0"/>
</radialGradient>
<radialGradient id="paint5_radial" cx="0" cy="0" r="1" gradientUnits="userSpaceOnUse" gradientTransform="translate(15.9998 16) rotate(90) scale(11.4286)">
<stop offset="0.137737" stop-color="#0E131F" stop-opacity="0"/>
<stop offset="0.486973" stop-color="#0E131F" stop-opacity="0.48"/>
<stop offset="0.883198" stop-color="#0E131F" stop-opacity="0"/>
</radialGradient>
<radialGradient id="paint6_radial" cx="0" cy="0" r="1" gradientUnits="userSpaceOnUse" gradientTransform="translate(15.9998 16) rotate(90) scale(11.4286)">
<stop offset="0.137737" stop-color="#0E131F" stop-opacity="0"/>
<stop offset="0.486973" stop-color="#0E131F" stop-opacity="0.48"/>
<stop offset="0.883198" stop-color="#0E131F" stop-opacity="0"/>
</radialGradient>
<radialGradient id="paint7_radial" cx="0" cy="0" r="1" gradientUnits="userSpaceOnUse" gradientTransform="translate(15.9998 16) rotate(90) scale(11.4286)">
<stop offset="0.137737" stop-color="#0E131F" stop-opacity="0"/>
<stop offset="0.486973" stop-color="#0E131F" stop-opacity="0.48"/>
<stop offset="0.883198" stop-color="#0E131F" stop-opacity="0"/>
</radialGradient>
<radialGradient id="paint8_radial" cx="0" cy="0" r="1" gradientUnits="userSpaceOnUse" gradientTransform="translate(15.9998 16) rotate(90) scale(11.4286)">
<stop offset="0.137737" stop-color="#0E131F" stop-opacity="0"/>
<stop offset="0.486973" stop-color="#0E131F" stop-opacity="0.48"/>
<stop offset="0.883198" stop-color="#0E131F" stop-opacity="0"/>
</radialGradient>
<radialGradient id="paint9_radial" cx="0" cy="0" r="1" gradientUnits="userSpaceOnUse" gradientTransform="translate(15.9998 16) rotate(90) scale(11.4286)">
<stop offset="0.137737" stop-color="#0E131F" stop-opacity="0"/>
<stop offset="0.486973" stop-color="#0E131F" stop-opacity="0.48"/>
<stop offset="0.883198" stop-color="#0E131F" stop-opacity="0"/>
</radialGradient>
<radialGradient id="paint10_radial" cx="0" cy="0" r="1" gradientUnits="userSpaceOnUse" gradientTransform="translate(15.9998 16) rotate(90) scale(11.4286)">
<stop offset="0.137737" stop-color="#0E131F" stop-opacity="0"/>
<stop offset="0.486973" stop-color="#0E131F" stop-opacity="0.48"/>
<stop offset="0.883198" stop-color="#0E131F" stop-opacity="0"/>
</radialGradient>
</defs>
</svg>
