<svg width="135" height="26" viewBox="0 0 135 26" fill="none" xmlns="http://www.w3.org/2000/svg">
<path d="M0 25.3409H6.27273V7.88637H0V25.3409ZM3.13636 6.06818C4.84091 6.06818 6.22727 4.78409 6.22727 3.20455C6.22727 1.625 4.84091 0.340912 3.13636 0.340912C1.43182 0.340912 0.0454546 1.625 0.0454546 3.20455C0.0454546 4.78409 1.43182 6.06818 3.13636 6.06818Z" fill="white"/>
<path d="M20.1978 7.88637H17.1978V3.70455H10.9251V7.88637H8.69784V12.4318H10.9251V20.3182C10.8797 23.9773 13.141 25.8295 17.4706 25.5909C18.891 25.5114 19.9478 25.2159 20.516 25.0455L19.6069 20.6364C19.3683 20.6932 18.7547 20.8182 18.3797 20.8182C17.5615 20.8182 17.1978 20.4545 17.1978 19.7273V12.4318H20.1978V7.88637Z" fill="white"/>
<path d="M31.2536 25.6591C36.0945 25.6591 39.2082 23.3409 39.7991 19.7045H34.0718C33.7082 20.6932 32.6741 21.25 31.39 21.25C29.5264 21.25 28.4355 20.0227 28.4355 18.3409V18.0682H39.7991V16.6136C39.7991 11.0568 36.39 7.65909 31.1173 7.65909C25.7082 7.65909 22.2536 11.25 22.2536 16.6591C22.2536 22.3068 25.6627 25.6591 31.2536 25.6591ZM28.4355 14.6136C28.4695 13.1023 29.7195 12.0682 31.2536 12.0682C32.8105 12.0682 33.9923 13.1136 34.0264 14.6136H28.4355Z" fill="white"/>
<path d="M42.6787 25.3409H48.9515V16.25C48.9515 14.25 50.3265 12.9318 52.1787 12.9318C52.8265 12.9318 53.8719 13.0341 54.4969 13.25V7.89773C53.9969 7.75 53.4515 7.65909 52.906 7.65909C51.0424 7.65909 49.5878 8.75 48.9515 11.2045H48.7697V7.88637H42.6787V25.3409Z" fill="white"/>
<path d="M60.9249 25.6136C63.1976 25.6136 64.9135 24.8409 65.9703 22.8864H66.1067V25.3409H71.9703V13.3864C71.9703 10.1591 68.9135 7.65909 63.9249 7.65909C58.709 7.65909 56.1408 10.3864 55.9249 13.5682H61.6976C61.8453 12.4886 62.6408 11.9773 63.834 11.9773C64.9249 11.9773 65.6976 12.4773 65.6976 13.3864V13.4318C65.6976 14.4432 64.584 14.7614 61.6522 14.9773C58.0499 15.2386 55.2431 16.6932 55.2431 20.5227C55.2431 24 57.584 25.6136 60.9249 25.6136ZM62.9703 21.6591C61.9022 21.6591 61.1522 21.1364 61.1522 20.1591C61.1522 19.2614 61.7885 18.5682 63.2431 18.3409C64.2431 18.1818 65.084 17.9773 65.7431 17.7045V19.1591C65.7431 20.75 64.3908 21.6591 62.9703 21.6591Z" fill="white"/>
<path d="M85.6966 7.88637H82.6966V3.70455H76.4239V7.88637H74.1966V12.4318H76.4239V20.3182C76.3784 23.9773 78.6398 25.8295 82.9693 25.5909C84.3898 25.5114 85.4466 25.2159 86.0148 25.0455L85.1057 20.6364C84.8671 20.6932 84.2534 20.8182 83.8784 20.8182C83.0602 20.8182 82.6966 20.4545 82.6966 19.7273V12.4318H85.6966V7.88637Z" fill="white"/>
<path d="M88.5762 25.3409H94.849V7.88637H88.5762V25.3409ZM91.7126 6.06818C93.4172 6.06818 94.8035 4.78409 94.8035 3.20455C94.8035 1.625 93.4172 0.340912 91.7126 0.340912C90.0081 0.340912 88.6217 1.625 88.6217 3.20455C88.6217 4.78409 90.0081 6.06818 91.7126 6.06818Z" fill="white"/>
<path d="M115.956 7.88637H109.365L106.547 19.4318H106.365L103.547 7.88637H96.9559L102.82 25.3409H110.092L115.956 7.88637Z" fill="white"/>
<path d="M125.892 25.6591C130.733 25.6591 133.847 23.3409 134.438 19.7045H128.711C128.347 20.6932 127.313 21.25 126.029 21.25C124.165 21.25 123.074 20.0227 123.074 18.3409V18.0682H134.438V16.6136C134.438 11.0568 131.029 7.65909 125.756 7.65909C120.347 7.65909 116.892 11.25 116.892 16.6591C116.892 22.3068 120.301 25.6591 125.892 25.6591ZM123.074 14.6136C123.108 13.1023 124.358 12.0682 125.892 12.0682C127.449 12.0682 128.631 13.1136 128.665 14.6136H123.074Z" fill="white"/>
</svg>
