<svg width="24" height="24" viewBox="0 0 24 24" fill="none" xmlns="http://www.w3.org/2000/svg">
<path d="M20.1872 7.55425C20.2015 7.75411 20.2015 7.95402 20.2015 8.15388C20.2015 14.25 15.5616 21.2742 7.08124 21.2742C4.4686 21.2742 2.04158 20.5175 0 19.2041C0.371207 19.2469 0.728089 19.2611 1.11358 19.2611C3.26932 19.2611 5.25381 18.5331 6.83853 17.291C4.81124 17.2481 3.11231 15.9204 2.52695 14.093C2.81251 14.1358 3.09802 14.1643 3.39786 14.1643C3.81188 14.1643 4.22593 14.1072 4.61138 14.0073C2.49843 13.579 0.913671 11.723 0.913671 9.48161V9.42452C1.52754 9.76716 2.24144 9.98131 2.99805 10.0098C1.75597 9.18177 0.942235 7.76839 0.942235 6.16939C0.942235 5.31281 1.17062 4.52759 1.57039 3.8423C3.8404 6.64053 7.25254 8.46792 11.0787 8.66782C11.0073 8.32518 10.9644 7.9683 10.9644 7.61138C10.9644 5.0701 13.0203 3 15.5758 3C16.9035 3 18.1028 3.55679 18.9451 4.45622C19.9873 4.25636 20.9867 3.87087 21.8718 3.34264C21.5292 4.41342 20.8011 5.31285 19.8445 5.88388C20.7725 5.78399 21.672 5.52695 22.5 5.17007C21.8719 6.08374 21.0867 6.89748 20.1872 7.55425Z" fill="white"/>
</svg>
