<svg width="33" height="32" viewBox="0 0 33 32" fill="none" xmlns="http://www.w3.org/2000/svg">
<g clip-path="url(#clip0)">
<path d="M11.7435 18.1301L10.8362 16.6211C10.4556 15.9879 9.54338 15.9719 9.14074 16.5913L4.01062 24.4838C3.40864 25.4099 2.16987 25.6727 1.24375 25.0707C0.317634 24.4688 0.0548654 23.23 0.656843 22.3039L5.78697 14.4114C7.80012 11.3142 12.3611 11.3942 14.2644 14.56L14.3892 14.7677L11.7435 18.1301Z" fill="#13ADC7"/>
<path d="M11.7435 18.1301L10.8362 16.6211C10.4556 15.9879 9.54338 15.9719 9.14074 16.5913L4.01062 24.4838C3.40864 25.4099 2.16987 25.6727 1.24375 25.0707C0.317634 24.4688 0.0548654 23.23 0.656843 22.3039L5.78697 14.4114C7.80012 11.3142 12.3611 11.3942 14.2644 14.56L14.3892 14.7677L11.7435 18.1301Z" fill="url(#paint0_linear)" fill-opacity="0.5" style="mix-blend-mode:color-burn"/>
<path d="M16.7265 18.6557L17.9137 20.6302C18.2892 21.255 19.1855 21.2809 19.5966 20.6789L28.6819 7.37244C29.3047 6.46022 30.5491 6.22563 31.4613 6.84847C32.3736 7.47131 32.6081 8.71573 31.9853 9.62795L22.9 22.9344C20.8449 25.9444 16.3634 25.8149 14.4855 22.6913L13.9858 21.8602L16.7265 18.6557Z" fill="#F46737"/>
<path d="M16.7265 18.6557L17.9137 20.6302C18.2892 21.255 19.1855 21.2809 19.5966 20.6789L28.6819 7.37244C29.3047 6.46022 30.5491 6.22563 31.4613 6.84847C32.3736 7.47131 32.6081 8.71573 31.9853 9.62795L22.9 22.9344C20.8449 25.9444 16.3634 25.8149 14.4855 22.6913L13.9858 21.8602L16.7265 18.6557Z" fill="url(#paint1_linear)" fill-opacity="0.5" style="mix-blend-mode:color-burn"/>
<path d="M9.14062 16.5913L10.1308 15.1374C11.1687 13.6134 13.3142 12.9798 14.2643 14.56L17.9137 20.6303C18.2523 21.1935 19.0141 21.27 19.462 20.8385L18.5605 22.1457C17.5311 23.6383 15.4197 24.2452 14.4855 22.6913L10.8361 16.621C10.4554 15.9879 9.54326 15.9719 9.14062 16.5913Z" fill="#945DD6"/>
<path d="M9.14062 16.5913L10.1308 15.1374C11.1687 13.6134 13.3142 12.9798 14.2643 14.56L17.9137 20.6303C18.2523 21.1935 19.0141 21.27 19.462 20.8385L18.5605 22.1457C17.5311 23.6383 15.4197 24.2452 14.4855 22.6913L10.8361 16.621C10.4554 15.9879 9.54326 15.9719 9.14062 16.5913Z" fill="url(#paint2_linear)" fill-opacity="0.5" style="mix-blend-mode:multiply"/>
</g>
<defs>
<linearGradient id="paint0_linear" x1="9.3335" y1="8.50003" x2="4.0835" y2="17" gradientUnits="userSpaceOnUse">
<stop stop-color="#945DD6"/>
<stop offset="1" stop-color="#945DD6" stop-opacity="0"/>
</linearGradient>
<linearGradient id="paint1_linear" x1="22.8334" y1="14" x2="15.0834" y2="25" gradientUnits="userSpaceOnUse">
<stop stop-color="#945DD6" stop-opacity="0"/>
<stop offset="1" stop-color="#7B61FF"/>
</linearGradient>
<linearGradient id="paint2_linear" x1="10.5834" y1="14.25" x2="17.0834" y2="23.5" gradientUnits="userSpaceOnUse">
<stop stop-color="#13ADC7"/>
<stop offset="0.495393" stop-color="#7B61FF" stop-opacity="0"/>
<stop offset="1" stop-color="#F46737"/>
</linearGradient>
<clipPath id="clip0">
<rect width="32" height="32" fill="white" transform="translate(0.333496)"/>
</clipPath>
</defs>
</svg>
