<svg width="22" height="18" viewBox="0 0 22 18" fill="none" xmlns="http://www.w3.org/2000/svg">
<path d="M21.0612 3.09911C20.8197 2.07604 20.1081 1.27031 19.2046 0.996868C17.5669 0.5 11 0.5 11 0.5C11 0.5 4.43315 0.5 2.79544 0.996868C1.89193 1.27035 1.18033 2.07604 0.938815 3.09911C0.5 4.95347 0.5 8.82244 0.5 8.82244C0.5 8.82244 0.5 12.6914 0.938815 14.5458C1.18033 15.5688 1.89193 16.341 2.79544 16.6144C4.43315 17.1113 11 17.1113 11 17.1113C11 17.1113 17.5668 17.1113 19.2046 16.6144C20.1081 16.341 20.8197 15.5688 21.0612 14.5458C21.5 12.6914 21.5 8.82244 21.5 8.82244C21.5 8.82244 21.5 4.95347 21.0612 3.09911ZM8.85226 12.3352V5.30971L14.3409 8.82252L8.85226 12.3352Z" fill="white"/>
</svg>
