<svg width="48" height="41" viewBox="0 0 48 41" fill="none" xmlns="http://www.w3.org/2000/svg">
<path d="M17.2845 39.651C17.0146 39.5925 16.8433 39.3263 16.9018 39.0564L25.2616 0.488653C25.3201 0.218777 25.5863 0.0474212 25.8561 0.105918L30.7106 1.15815C30.9804 1.21665 31.1518 1.48285 31.0933 1.75272L22.7335 40.3205C22.675 40.5904 22.4088 40.7617 22.1389 40.7032L17.2845 39.651Z" fill="#F46737"/>
<path d="M11.6535 8.26137C11.4461 8.0791 11.1302 8.09945 10.9479 8.30683L0.290196 20.4307C0.124236 20.6194 0.124235 20.9021 0.290195 21.0909L10.9479 33.2147C11.1302 33.4221 11.4461 33.4425 11.6535 33.2602L15.3837 29.982C15.5911 29.7997 15.6115 29.4837 15.4291 29.2763L8.23257 21.0909C8.06658 20.9021 8.06658 20.6194 8.23257 20.4306L15.4291 12.2453C15.6115 12.0379 15.5911 11.7219 15.3837 11.5396L11.6535 8.26137Z" fill="#F46737"/>
<path d="M32.6163 11.5396C32.4089 11.7219 32.3885 12.0379 32.5709 12.2453L39.7674 20.4306C39.9334 20.6194 39.9334 20.9021 39.7674 21.0909L32.5709 29.2763C32.3885 29.4837 32.4089 29.7997 32.6163 29.982L36.3465 33.2602C36.5539 33.4425 36.8698 33.4221 37.0521 33.2147L47.7098 21.0909C47.8758 20.9021 47.8758 20.6194 47.7098 20.4307L37.0521 8.30683C36.8698 8.09945 36.5539 8.0791 36.3465 8.26137L32.6163 11.5396Z" fill="#F46737"/>
</svg>
