<svg width="32" height="32" viewBox="0 0 32 32" fill="none" xmlns="http://www.w3.org/2000/svg">
<g clip-path="url(#clip0)">
<path d="M11.6859 28.4693C11.416 28.4108 11.2447 28.1446 11.3031 27.8747L16.8057 2.48865C16.8642 2.21878 17.1304 2.04742 17.4003 2.10592L20.3108 2.73679C20.5807 2.79529 20.7521 3.06149 20.6936 3.33136L15.191 28.7175C15.1325 28.9873 14.8663 29.1587 14.5964 29.1002L11.6859 28.4693Z" fill="#F46737"/>
<path d="M7.89416 7.61759C7.68676 7.43532 7.37087 7.45567 7.18857 7.66305L0.290196 15.5104C0.124236 15.6992 0.124236 15.9818 0.290196 16.1706L7.18857 24.018C7.37087 24.2254 7.68676 24.2457 7.89416 24.0634L10.1306 22.098C10.338 21.9157 10.3584 21.5997 10.176 21.3923L5.58513 16.1707C5.41914 15.9819 5.41914 15.6992 5.58513 15.5104L10.176 10.2887C10.3584 10.0813 10.338 9.76531 10.1306 9.58299L7.89416 7.61759Z" fill="#F46737"/>
<path d="M21.8694 9.58299C21.662 9.76531 21.6416 10.0813 21.824 10.2887L26.4149 15.5104C26.5809 15.6992 26.5809 15.9819 26.4149 16.1707L21.824 21.3923C21.6416 21.5997 21.662 21.9157 21.8694 22.098L24.1058 24.0634C24.3132 24.2457 24.6291 24.2254 24.8114 24.018L31.7098 16.1706C31.8758 15.9818 31.8758 15.6992 31.7098 15.5104L24.8114 7.66305C24.6291 7.45567 24.3132 7.43532 24.1058 7.61759L21.8694 9.58299Z" fill="#F46737"/>
</g>
<defs>
<clipPath id="clip0">
<rect width="32" height="32" fill="white"/>
</clipPath>
</defs>
</svg>
