<svg width="42" height="44" viewBox="0 0 42 44" fill="none" xmlns="http://www.w3.org/2000/svg">
<path fill-rule="evenodd" clip-rule="evenodd" d="M21 0C22.7131 0 24.3794 0.200495 25.977 0.577841C26.2763 0.648521 26.4308 0.97474 26.338 1.2679C26.1775 1.77521 26.0908 2.31535 26.0908 2.87589C26.0908 5.81552 28.4734 8.19871 31.4136 8.19871C33.0274 8.19871 34.4735 7.48041 35.4497 6.34595C35.6499 6.11327 36.0079 6.0732 36.2254 6.28982C38.7353 8.78972 40.6338 11.9042 41.675 15.3882C41.763 15.6826 41.5577 15.9792 41.2576 16.0454C40.738 16.1599 40.2268 16.3548 39.7411 16.6352C37.1954 18.105 36.3234 21.3608 37.7932 23.9065C38.6011 25.3055 39.9487 26.1993 41.4211 26.4764C41.7227 26.5332 41.9367 26.8231 41.858 27.1197C40.9245 30.6425 39.1217 33.8115 36.6939 36.3839C36.4829 36.6073 36.1235 36.578 35.916 36.3514C35.5577 35.96 35.1344 35.6159 34.6509 35.3368C32.1046 33.8669 28.8494 34.7395 27.3796 37.2852C26.5719 38.6846 26.4715 40.2982 26.9679 41.712C27.0697 42.0019 26.9254 42.3324 26.6287 42.4124C24.8343 42.8961 22.9477 43.1549 21 43.1549C19.2869 43.1549 17.6206 42.9544 16.0229 42.5766C15.7237 42.5059 15.5693 42.1796 15.6621 41.8864C15.8225 41.3795 15.9092 40.8395 15.9092 40.2791C15.9092 37.3394 13.5266 34.9562 10.5864 34.9562C8.97202 34.9562 7.52639 35.6745 6.55032 36.8094C6.35013 37.0422 5.99204 37.0823 5.77452 36.8657C3.26407 34.3653 1.36562 31.2508 0.323842 27.7668C0.235802 27.4724 0.441118 27.1757 0.741242 27.1097C1.26139 26.9951 1.77308 26.8002 2.2589 26.5198C4.80463 25.05 5.67657 21.7942 4.20676 19.2485C3.39891 17.8494 2.05131 16.9556 0.578935 16.6785C0.2773 16.6218 0.0633335 16.3319 0.141956 16.0352C1.07548 12.5125 2.87829 9.34347 5.30614 6.77109C5.51706 6.54762 5.87655 6.57694 6.08403 6.80359C6.44228 7.19493 6.86561 7.539 7.34908 7.81819C9.89544 9.28801 13.1506 8.41543 14.6204 5.8697C15.4281 4.4703 15.5285 2.85678 15.0321 1.443C14.9303 1.15309 15.0746 0.822532 15.3713 0.742562C17.1657 0.258854 19.0523 0 21 0ZM21 12.0747C26.2482 12.0747 30.5028 16.3292 30.5028 21.5775C30.5028 26.8257 26.2482 31.0803 21 31.0803C15.7517 31.0803 11.4972 26.8257 11.4972 21.5775C11.4972 16.3292 15.7517 12.0747 21 12.0747Z" fill="#13ADC7"/>
</svg>
