<svg width="32" height="32" viewBox="0 0 32 32" fill="none" xmlns="http://www.w3.org/2000/svg">
<g clip-path="url(#clip0)">
<path fill-rule="evenodd" clip-rule="evenodd" d="M16 2C17.0742 2 18.1208 2.11825 19.1277 2.34163C19.4278 2.40823 19.5814 2.73515 19.505 3.03299C19.4325 3.31566 19.3939 3.61192 19.3939 3.91726C19.3939 5.87701 20.9822 7.46581 22.9424 7.46581C23.9482 7.46581 24.8563 7.04725 25.5021 6.37474C25.7147 6.15332 26.0728 6.11206 26.2873 6.33159C27.8484 7.92882 29.0409 9.88848 29.7262 12.0723C29.8182 12.3655 29.6118 12.6615 29.3159 12.7441C29.0347 12.8226 28.7587 12.9374 28.4941 13.0901C26.7969 14.07 26.2156 16.2405 27.1955 17.9377C27.699 18.8097 28.5172 19.3873 29.4237 19.6097C29.7218 19.6829 29.9369 19.9721 29.8542 20.2677C29.2365 22.4766 28.1043 24.4707 26.5955 26.1131C26.3876 26.3394 26.028 26.3089 25.8083 26.0941C25.6004 25.8907 25.3639 25.7099 25.1006 25.5578C23.403 24.578 21.2329 25.1597 20.2531 26.8568C19.7497 27.729 19.6584 28.726 19.919 29.6222C20.0048 29.9173 19.8615 30.2485 19.5638 30.3244C18.4242 30.615 17.2304 30.77 16 30.77C14.9258 30.77 13.8792 30.6517 12.8723 30.4281C12.5721 30.3614 12.4187 30.0344 12.4951 29.7366C12.5676 29.4541 12.6061 29.1579 12.6061 28.8527C12.6061 26.893 11.0178 25.3042 9.05758 25.3042C8.05141 25.3042 7.14355 25.7227 6.49788 26.3955C6.2853 26.617 5.92716 26.6583 5.71257 26.4387C4.15122 24.8412 2.95873 22.8816 2.27307 20.6978C2.18101 20.4046 2.38745 20.1085 2.68346 20.0259C2.96492 19.9474 3.24119 19.8327 3.50593 19.6799C5.20308 18.7 5.78438 16.5295 4.8045 14.8323C4.30095 13.9602 3.48283 13.3827 2.57627 13.1602C2.27818 13.0871 2.06314 12.7978 2.1458 12.5022C2.76355 10.2934 3.89568 8.29924 5.40448 6.65683C5.61237 6.43054 5.97196 6.46109 6.19167 6.67591C6.39963 6.87924 6.63614 7.06011 6.89938 7.21213C8.59696 8.19201 10.767 7.61028 11.7469 5.91313C12.2503 5.04095 12.3416 4.04399 12.081 3.14772C11.9952 2.85269 12.1385 2.52148 12.4362 2.44556C13.5758 2.15495 14.7696 2 16 2ZM16 10.0498C19.4988 10.0498 22.3352 12.8862 22.3352 16.385C22.3352 19.8838 19.4988 22.7202 16 22.7202C12.5012 22.7202 9.66479 19.8838 9.66479 16.385C9.66479 12.8862 12.5012 10.0498 16 10.0498Z" fill="#13ADC7"/>
</g>
<defs>
<clipPath id="clip0">
<rect width="32" height="32" fill="white"/>
</clipPath>
</defs>
</svg>
