<svg width="32" height="32" viewBox="0 0 32 32" fill="none" xmlns="http://www.w3.org/2000/svg">
<g clip-path="url(#clip0)">
<path d="M29.9387 7.18349C29.9442 6.90741 29.7205 6.68321 29.4445 6.67681C25.4231 6.5836 20.3281 5.35663 16.977 2.0094C16.9764 2.00884 16.9761 2.00809 16.9761 2.00731V2.00543C16.9761 2.00345 16.9738 2.00269 16.9719 2.0033C16.9718 2.00332 16.9718 2.00333 16.9717 2.00335C16.9713 2.00347 16.9712 2.00366 16.9709 2.00334C16.9698 2.00226 16.9675 2.00262 16.9675 2.00416V2.00728C16.9675 2.00808 16.9672 2.00885 16.9667 2.00942C13.6172 5.35663 8.52069 6.5836 4.49925 6.67681C4.22318 6.68321 3.99948 6.90741 4.00506 7.18349C4.20282 16.9829 10.1748 25.5141 16.9666 29.9925C16.9672 29.9929 16.9676 29.9936 16.9676 29.9944V29.9958C16.9676 29.9973 16.9699 29.9977 16.9709 29.9967C16.9713 29.9963 16.9713 29.9965 16.9717 29.9966C16.9718 29.9967 16.9719 29.9967 16.9719 29.9967C16.9738 29.9973 16.9762 29.9965 16.9762 29.9946V29.9944C16.9762 29.9936 16.9766 29.9929 16.9772 29.9925C23.7706 25.5141 29.741 16.9829 29.9387 7.18349Z" fill="#945DD6"/>
</g>
<defs>
<clipPath id="clip0">
<rect width="32" height="32" fill="white"/>
</clipPath>
</defs>
</svg>
