<svg width="39" height="42" viewBox="0 0 39 42" fill="none" xmlns="http://www.w3.org/2000/svg">
<path d="M38.9122 7.52517C38.9159 7.24905 38.6924 7.02434 38.4163 7.02005C32.3467 6.92574 24.5618 5.10444 19.4655 0.0140987C19.4647 0.013267 19.4642 0.0121361 19.4642 0.0109592V0.00813764C19.4642 0.00517793 19.4606 0.00403894 19.4578 0.00494413C19.4577 0.00497437 19.4576 0.00500176 19.4575 0.00502617C19.4569 0.00519866 19.4568 0.00549695 19.4563 0.0050122C19.4547 0.00338425 19.4513 0.00393583 19.4513 0.0062377V0.0109227C19.4513 0.012123 19.4508 0.0132764 19.45 0.0141249C14.3562 5.10445 6.56891 6.92574 0.49933 7.02005C0.223221 7.02434 -0.000342881 7.24905 0.00337552 7.52517C0.202737 22.3292 9.20455 35.233 19.4499 41.9887C19.4508 41.9894 19.4514 41.9904 19.4514 41.9916V41.9937C19.4514 41.996 19.4548 41.9966 19.4564 41.995C19.4569 41.9945 19.4569 41.9948 19.4576 41.995C19.4577 41.995 19.4578 41.995 19.4579 41.995C19.4607 41.9959 19.4643 41.9948 19.4643 41.9918V41.9916C19.4643 41.9904 19.4648 41.9894 19.4658 41.9887C29.7136 35.233 38.7129 22.3292 38.9122 7.52517Z" fill="#945DD6"/>
</svg>
