<svg width="24" height="24" viewBox="0 0 24 24" fill="none" xmlns="http://www.w3.org/2000/svg">
<g opacity="0.25">
<path fill-rule="evenodd" clip-rule="evenodd" d="M12 24C18.6274 24 24 18.6274 24 12C24 5.37258 18.6274 0 12 0C5.37258 0 0 5.37258 0 12C0 18.6274 5.37258 24 12 24ZM8.20726 18.0427C7.81674 18.4332 7.18357 18.4332 6.79305 18.0427L5.95726 17.2069C5.56674 16.8164 5.56674 16.1832 5.95726 15.7927L9.57332 12.1766C9.67095 12.079 9.67095 11.9207 9.57332 11.8231L5.95729 8.20702C5.56676 7.81649 5.56676 7.18333 5.95729 6.79281L6.79307 5.95702C7.1836 5.56649 7.81676 5.5665 8.20729 5.95702L11.8233 9.57305C11.921 9.67068 12.0792 9.67068 12.1769 9.57305L15.793 5.95688C16.1836 5.56635 16.8167 5.56635 17.2073 5.95688L18.043 6.79267C18.4336 7.18319 18.4336 7.81635 18.043 8.20688L14.4269 11.8231C14.3292 11.9207 14.3292 12.079 14.4269 12.1766L18.0431 15.7928C18.4336 16.1833 18.4336 16.8165 18.0431 17.207L17.2073 18.0428C16.8168 18.4333 16.1836 18.4333 15.7931 18.0428L12.1769 14.4266C12.0792 14.329 11.921 14.329 11.8233 14.4266L8.20726 18.0427Z" fill="#0F1624" fill-opacity="0.5"/>
</g>
</svg>
