<svg width="24" height="24" viewBox="0 0 24 24" fill="none" xmlns="http://www.w3.org/2000/svg">
<path fill-rule="evenodd" clip-rule="evenodd" d="M2.2072 3.04285C1.81668 3.43337 1.81668 4.06654 2.2072 4.45706L9.57332 11.8232C9.67095 11.9208 9.67095 12.0791 9.57332 12.1767L2.2072 19.5429C1.81668 19.9334 1.81668 20.5665 2.2072 20.9571L3.04299 21.7929C3.43351 22.1834 4.06668 22.1834 4.4572 21.7929L11.8233 14.4267C11.9209 14.3291 12.0792 14.3291 12.1769 14.4267L19.543 21.7929C19.9335 22.1834 20.5667 22.1834 20.9572 21.7929L21.793 20.9571C22.1835 20.5665 22.1835 19.9334 21.793 19.5429L14.4269 12.1767C14.3292 12.0791 14.3292 11.9208 14.4269 11.8232L21.793 4.45706C22.1835 4.06654 22.1835 3.43338 21.793 3.04285L20.9572 2.20706C20.5667 1.81654 19.9335 1.81654 19.543 2.20706L12.1769 9.57318C12.0792 9.67081 11.9209 9.67081 11.8233 9.57318L4.4572 2.20706C4.06668 1.81654 3.43351 1.81654 3.04299 2.20706L2.2072 3.04285Z" fill="#C4C4C4" fill-opacity="0.5"/>
</svg>
